{"glyphs":{"0":{"ha":524,"x_min":21,"x_max":499,"o":"m 22 419 q 35 543 24 471 q 74 682 47 615 q 146 795 101 749 q 257 843 190 842 q 342 821 306 843 q 405 761 378 799 q 450 677 432 724 q 478 582 468 631 q 494 489 489 533 q 497 411 499 444 q 492 333 497 378 q 476 240 488 288 q 447 147 465 193 q 403 66 429 101 q 340 8 376 31 q 257 -14 304 -14 q 172 8 208 -14 q 108 65 135 29 q 65 147 82 101 q 38 240 47 192 q 24 335 28 289 q 22 419 21 382 m 257 111 q 297 128 281 111 q 326 174 314 146 q 344 235 338 201 q 353 303 350 269 q 358 365 357 336 q 360 410 360 393 q 358 451 360 424 q 353 513 357 479 q 341 582 349 546 q 322 646 333 618 q 295 690 311 674 q 257 704 279 707 q 206 663 225 699 q 178 580 188 626 q 165 487 168 533 q 163 415 163 440 q 164 372 163 400 q 169 310 165 344 q 178 241 172 276 q 195 177 185 206 q 221 130 206 149 q 257 111 236 111 m 190 411 q 206 466 190 440 q 256 492 221 492 q 310 469 292 492 q 329 411 329 446 q 307 360 329 382 q 256 338 285 338 q 208 360 225 338 q 190 411 190 383 z "},"1":{"ha":475,"x_min":19,"x_max":449,"o":"m 19 683 l 21 685 q 41 701 32 694 q 61 717 50 708 q 135 772 97 746 q 210 825 174 797 q 251 835 221 835 q 297 828 275 835 q 322 806 319 821 q 322 461 324 628 q 322 138 321 294 q 366 139 347 139 q 406 139 385 139 l 442 139 l 442 136 q 447 72 449 104 q 442 8 446 40 l 440 4 l 436 4 q 245 1 347 1 q 54 0 143 0 l 51 0 l 50 1 q 41 26 44 8 q 37 65 38 44 q 38 105 36 86 q 44 132 40 124 l 46 136 l 49 136 q 111 136 76 135 q 174 138 146 138 q 176 319 176 229 q 178 501 175 410 q 179 558 179 529 q 179 614 179 586 q 143 593 161 603 q 107 572 125 583 l 106 571 l 103 571 q 76 589 90 576 q 51 617 63 601 q 31 649 39 632 q 19 681 22 667 l 19 683 z "},"2":{"ha":551,"x_min":31,"x_max":511,"o":"m 40 49 q 115 215 76 138 q 204 375 154 293 q 235 427 215 394 q 276 496 256 460 q 312 566 296 532 q 329 621 328 600 q 310 680 333 656 q 254 706 288 704 q 224 701 238 707 q 201 683 211 694 q 183 659 190 672 q 171 632 175 646 l 168 628 q 140 630 158 625 q 101 644 121 635 q 65 663 82 653 q 44 682 49 674 l 43 685 l 43 686 q 119 804 61 761 q 253 850 178 847 q 347 835 303 851 q 422 789 390 819 q 468 716 453 758 q 476 621 483 674 q 456 539 471 578 q 422 463 442 500 q 381 392 403 426 q 335 321 358 357 q 281 233 307 278 q 239 138 254 188 l 493 138 q 508 108 504 129 q 510 65 511 88 q 506 25 510 43 q 494 3 501 7 q 291 0 390 0 q 89 0 192 0 q 64 1 76 1 q 43 5 51 1 q 33 18 35 8 q 40 49 31 28 z "},"3":{"ha":524,"x_min":32,"x_max":503,"o":"m 32 147 q 62 178 38 167 q 111 190 86 190 q 133 188 122 190 q 151 178 144 185 l 151 176 l 153 175 q 183 121 158 139 q 244 106 208 103 q 307 134 283 108 q 335 197 331 160 q 336 279 339 238 q 317 360 333 321 q 285 402 306 386 q 238 427 264 418 q 185 439 213 436 q 131 443 157 442 l 129 443 q 113 460 118 447 q 111 485 108 474 l 113 486 q 181 579 147 532 q 251 672 215 626 q 259 685 256 679 q 268 699 263 692 q 162 699 214 699 q 56 699 110 700 l 53 699 l 51 703 q 43 731 46 714 q 40 765 40 747 q 43 800 40 783 q 51 828 46 817 l 56 832 q 147 833 100 835 q 238 832 193 832 q 299 831 268 832 q 360 832 329 831 q 394 832 375 832 q 429 835 414 832 l 431 835 l 432 833 q 469 808 456 826 q 479 764 483 789 l 479 761 q 408 655 443 708 q 336 549 374 601 q 329 536 331 540 q 343 532 338 533 q 431 472 396 513 q 483 378 465 431 q 502 270 501 326 q 486 164 503 214 q 451 95 474 128 q 397 38 428 63 q 330 -3 367 13 q 254 -22 293 -19 q 157 -13 207 -25 q 75 36 107 -1 q 46 88 58 56 q 32 146 33 121 l 32 147 z "},"4":{"ha":583,"x_min":26,"x_max":556,"o":"m 29 433 q 56 523 42 472 q 88 630 71 574 q 121 742 104 686 q 153 849 138 799 l 156 851 q 185 856 171 856 q 238 844 213 856 q 275 814 263 833 l 275 811 q 245 692 257 740 q 225 610 233 644 q 210 550 217 576 q 194 494 203 524 q 260 493 225 492 q 326 493 296 494 q 329 660 326 574 q 335 828 332 747 l 335 831 q 361 844 342 840 q 403 849 381 849 q 445 845 426 849 q 469 835 464 842 l 471 833 l 471 831 q 474 662 474 750 q 471 493 474 574 q 502 492 486 492 q 533 490 518 492 l 535 490 l 535 489 q 548 466 543 483 q 554 429 553 449 q 552 390 556 410 q 540 358 549 371 l 539 356 l 538 356 q 505 353 522 354 q 471 353 488 353 q 471 254 471 299 q 471 168 471 210 q 471 87 471 126 q 471 4 471 47 l 471 1 l 469 0 q 443 -14 458 -10 q 410 -18 428 -18 q 370 -13 390 -18 q 336 1 350 -8 l 335 3 l 335 6 q 333 101 332 56 q 335 207 335 146 q 334 282 333 244 q 335 357 335 319 l 297 357 q 256 356 276 357 q 215 356 235 356 q 153 355 185 356 q 93 356 122 354 q 72 365 83 356 q 49 385 60 374 q 33 410 39 397 q 29 433 26 424 z "},"5":{"ha":507,"x_min":17,"x_max":489,"o":"m 17 153 l 17 156 l 18 157 q 54 178 35 172 q 94 185 74 185 q 143 179 121 185 l 147 178 l 147 174 q 176 134 151 147 q 225 121 201 121 q 274 139 253 121 q 308 183 294 157 q 328 240 322 210 q 335 296 335 271 q 306 387 333 351 q 221 431 278 422 q 163 431 196 433 q 106 422 131 429 q 69 432 88 418 q 43 461 50 446 l 42 463 q 42 644 39 553 q 44 828 46 736 l 44 829 l 46 831 q 118 833 75 832 q 209 833 161 833 q 308 834 257 833 q 406 835 360 835 l 407 835 l 408 833 q 422 805 418 825 q 426 761 426 785 q 423 716 426 738 q 415 683 419 694 q 347 684 376 683 q 292 685 318 685 q 242 685 267 685 q 188 685 217 685 q 185 632 186 654 q 188 578 185 610 q 192 563 188 567 q 208 561 196 558 q 268 557 239 561 q 361 523 319 549 q 432 460 403 497 q 475 374 461 422 q 485 275 489 326 q 460 168 481 221 q 406 74 440 115 q 325 6 372 32 q 219 -19 278 -19 q 144 -8 181 -19 q 80 24 108 3 q 34 78 51 46 q 17 153 17 111 z "},"6":{"ha":521,"x_min":24,"x_max":490,"o":"m 28 436 q 42 566 32 503 q 79 690 51 629 q 117 752 94 722 q 167 804 139 782 q 228 840 194 826 q 299 851 261 853 q 389 825 343 850 q 461 761 435 800 q 462 731 469 749 q 439 696 454 713 q 406 669 424 679 q 376 665 388 660 q 340 690 364 681 q 297 699 317 700 q 238 671 264 696 q 197 618 213 646 q 172 526 174 571 q 168 446 169 482 q 221 475 188 467 q 281 483 254 483 q 372 462 333 482 q 438 408 411 442 q 477 330 464 374 q 490 238 490 286 q 475 146 490 192 q 431 63 460 100 q 362 3 403 26 q 271 -19 321 -19 q 194 -5 228 -19 q 134 35 160 10 q 90 93 108 60 q 58 165 71 126 q 31 299 38 228 q 28 436 24 369 m 182 208 q 214 149 192 175 q 275 122 236 122 q 312 134 297 122 q 335 163 326 146 q 348 201 344 181 q 350 239 351 221 q 332 306 347 276 q 276 343 317 335 q 224 339 246 350 q 191 308 203 328 q 177 260 179 288 q 182 208 175 233 z "},"7":{"ha":525,"x_min":8,"x_max":506,"o":"m 24 833 l 447 833 q 470 822 458 832 q 491 800 482 813 q 503 775 500 788 q 497 754 506 763 q 408 602 446 696 q 343 402 369 508 q 303 191 317 296 q 288 4 289 86 l 288 1 l 286 0 q 218 -19 261 -19 q 172 -14 194 -19 q 132 1 149 -8 l 128 3 l 129 7 q 169 294 142 151 q 243 575 196 436 q 264 629 254 607 q 289 683 274 651 l 26 685 q 13 715 18 693 q 8 761 8 738 q 12 806 8 785 q 24 833 15 826 z "},"8":{"ha":546,"x_min":26,"x_max":521,"o":"m 26 238 q 56 356 26 300 q 140 444 85 413 q 122 460 131 451 q 106 476 114 468 q 67 543 81 506 q 53 619 54 581 q 63 695 51 657 q 96 765 74 733 q 171 829 126 810 q 268 847 215 849 q 358 829 315 844 q 431 778 400 814 q 467 714 454 750 q 480 640 479 678 q 470 567 481 603 q 439 501 460 531 q 382 449 415 469 q 444 415 418 438 q 488 363 471 392 q 513 301 504 333 q 521 238 521 269 q 501 137 521 183 q 448 57 482 90 q 368 5 414 24 q 268 -14 322 -14 q 167 4 211 -14 q 91 56 122 22 q 43 135 60 89 q 26 238 26 182 m 168 238 q 175 196 168 217 q 195 159 182 175 q 227 133 208 143 q 268 124 246 124 q 311 133 290 124 q 347 158 332 143 q 372 194 363 174 q 382 238 382 215 q 353 326 382 290 q 268 363 325 363 q 223 351 242 363 q 192 323 204 340 q 174 283 179 306 q 168 238 168 261 m 194 610 q 214 549 196 578 q 268 518 232 519 q 325 549 308 518 q 339 615 342 579 q 320 676 338 647 q 268 706 303 706 q 233 697 247 706 q 211 673 219 688 q 199 642 203 658 q 194 610 194 625 z "},"9":{"ha":522,"x_min":24,"x_max":492,"o":"m 131 168 l 133 168 l 135 167 q 167 142 150 151 q 207 133 185 132 q 269 160 244 135 q 310 222 294 186 q 334 297 326 258 q 343 365 342 336 q 290 339 318 346 q 231 333 263 332 q 140 358 179 333 q 75 419 101 382 q 36 503 49 457 q 24 596 24 550 q 40 688 24 642 q 85 769 56 733 q 154 828 114 806 q 244 850 194 850 q 322 836 288 850 q 384 798 357 822 q 430 740 411 774 q 461 668 449 707 q 486 531 481 604 q 488 390 492 457 q 468 253 483 324 q 420 124 453 182 q 335 26 388 65 q 204 -18 283 -14 q 110 1 157 -21 q 36 61 64 22 l 36 63 l 35 63 q 38 99 31 81 q 60 134 46 118 q 94 160 75 150 q 131 168 113 169 m 164 596 q 169 558 164 579 q 183 516 174 536 q 205 481 192 496 q 236 461 218 465 q 296 468 274 453 q 328 509 318 483 q 339 567 339 535 q 332 625 339 599 q 303 681 322 658 q 244 704 283 704 q 208 694 224 704 q 183 668 193 683 q 167 633 172 653 q 164 596 163 614 z "},"―":{"ha":347,"x_min":0,"x_max":0,"o":""},"\u0000":{"ha":0,"x_min":0,"x_max":0,"o":""},"\r":{"ha":347,"x_min":0,"x_max":0,"o":""}," ":{"ha":164,"x_min":0,"x_max":0,"o":""},"A":{"ha":501,"x_min":18,"x_max":483,"o":"m 172 831 q 197 840 181 838 q 233 843 214 843 q 278 839 256 843 q 319 826 301 835 q 353 656 333 760 q 397 435 374 551 q 442 204 419 319 q 483 -1 465 89 q 450 -9 471 -7 q 408 -11 429 -11 q 365 -8 385 -11 q 343 0 346 -6 q 328 65 333 39 q 313 131 324 92 q 247 132 286 132 q 179 131 207 132 q 163 58 168 86 q 153 3 158 31 q 127 -8 146 -4 q 86 -11 108 -11 q 49 -8 67 -11 q 18 1 31 -6 q 61 231 42 125 q 98 436 81 338 q 133 631 115 535 q 172 831 151 726 m 294 247 q 285 319 290 279 q 274 403 281 360 q 260 489 268 446 q 246 568 253 532 q 221 407 231 488 q 200 247 211 326 l 294 247 z "},"B":{"ha":501,"x_min":60,"x_max":461,"o":"m 61 833 q 190 854 118 854 q 278 844 235 854 q 356 811 322 833 q 411 753 390 789 q 432 667 432 718 q 405 556 432 600 q 338 494 378 513 q 429 404 397 471 q 461 250 461 338 q 450 160 461 204 q 416 82 439 117 q 358 23 393 47 q 274 -8 322 -1 q 229 -13 253 -11 q 182 -15 206 -15 q 124 -12 154 -15 q 67 -1 94 -10 q 66 81 67 22 q 64 217 65 139 q 62 383 63 294 q 61 556 61 471 q 60 714 61 640 q 61 833 60 788 m 193 408 q 193 329 193 364 q 194 263 193 294 q 194 201 194 232 q 194 135 194 171 q 251 147 228 135 q 288 176 274 158 q 309 217 303 194 q 315 263 315 240 q 306 336 315 307 q 281 381 297 365 q 242 403 265 397 q 193 408 219 410 m 190 543 q 263 569 232 543 q 293 649 293 596 q 283 681 293 668 q 258 702 274 694 q 224 710 243 710 q 188 707 206 711 q 188 669 188 692 q 188 624 188 647 q 190 578 189 600 q 190 543 190 557 z "},"C":{"ha":507,"x_min":31,"x_max":475,"o":"m 31 410 q 41 550 32 474 q 76 693 50 626 q 149 805 103 760 q 272 850 196 850 q 388 822 344 850 q 451 747 431 793 q 474 641 472 700 q 464 522 475 582 q 408 513 439 513 q 340 531 369 513 q 345 582 346 556 q 336 630 344 608 q 312 665 328 651 q 271 679 296 679 q 233 664 249 681 q 206 621 217 647 q 190 562 196 594 q 181 497 183 529 q 179 438 179 465 q 179 396 179 411 q 188 313 181 356 q 213 235 196 271 q 261 178 231 200 q 340 156 292 156 q 392 162 367 156 q 439 179 417 168 q 447 140 444 163 q 449 94 450 118 q 444 48 449 71 q 431 8 439 25 q 313 -19 372 -19 q 202 6 254 -19 q 114 81 150 31 q 72 158 89 115 q 47 244 56 200 q 34 332 38 289 q 31 410 31 375 z "},"D":{"ha":550,"x_min":58,"x_max":515,"o":"m 61 836 q 160 844 115 844 q 326 812 258 844 q 435 722 393 779 q 497 588 478 665 q 515 422 515 511 q 504 295 515 363 q 466 167 493 228 q 394 62 439 107 q 282 0 350 17 q 169 -14 225 -14 q 111 -10 138 -14 q 61 -1 85 -7 q 60 224 61 118 q 58 430 58 329 q 59 630 58 531 q 61 836 60 729 m 211 172 q 263 183 240 171 q 301 217 285 196 q 329 264 318 238 q 348 318 340 290 q 358 373 356 346 q 361 422 361 400 q 354 502 361 458 q 329 585 347 546 q 281 650 311 624 q 206 676 251 676 q 208 625 207 667 q 209 527 208 583 q 210 408 210 471 q 210 293 210 346 q 210 206 210 240 q 211 172 210 172 z "},"E":{"ha":475,"x_min":58,"x_max":436,"o":"m 63 833 q 145 833 107 833 q 223 833 183 833 q 307 834 263 833 q 407 835 351 835 q 415 801 413 825 q 418 751 418 778 q 415 701 418 725 q 408 667 413 678 q 336 667 372 667 q 271 667 306 667 q 207 668 236 668 q 207 490 204 578 q 272 490 228 489 q 390 490 317 492 q 397 458 394 478 q 399 418 399 439 q 397 378 399 397 q 393 347 396 360 q 310 347 353 346 q 207 347 268 349 q 208 288 207 314 q 208 240 208 263 q 208 194 208 217 q 207 149 207 172 q 263 150 238 150 q 313 150 289 150 q 364 150 338 150 q 421 150 390 150 q 431 117 428 139 q 435 73 435 96 q 433 29 436 50 q 424 0 431 8 q 240 -1 333 0 q 58 0 147 -1 q 58 104 58 35 q 58 260 58 174 q 59 439 58 346 q 60 613 60 532 q 62 753 61 693 q 63 833 63 813 z "},"F":{"ha":431,"x_min":61,"x_max":390,"o":"m 61 835 q 160 836 106 836 q 265 835 215 836 q 348 834 314 835 q 383 833 382 833 q 388 801 386 821 q 390 760 390 782 q 389 715 390 738 q 381 671 388 692 q 352 671 379 671 q 292 671 325 671 q 233 670 260 671 q 206 669 206 669 q 204 628 204 646 q 204 596 204 611 q 204 563 204 581 q 204 522 204 546 q 247 522 229 522 q 281 522 264 522 q 319 522 299 522 q 369 521 340 521 q 377 488 375 508 q 378 445 379 467 q 374 406 378 424 q 365 382 371 388 l 206 382 q 206 281 206 328 q 206 191 206 235 q 205 102 206 147 q 204 3 204 57 q 171 -3 192 -1 q 128 -6 150 -6 q 61 1 85 -6 q 61 117 61 51 q 61 258 61 183 q 61 411 61 332 q 61 566 61 490 q 61 710 61 642 q 61 835 61 779 z "},"G":{"ha":565,"x_min":31,"x_max":513,"o":"m 90 692 q 178 812 126 771 q 294 850 229 853 q 358 839 328 847 q 404 817 389 831 q 504 524 513 728 q 474 517 492 519 q 438 514 457 514 q 374 524 399 514 q 372 592 376 561 q 356 647 367 624 q 331 682 346 669 q 297 692 315 694 q 226 625 254 685 q 199 529 210 589 q 185 405 188 469 q 192 281 183 340 q 224 185 201 221 q 321 122 257 131 q 376 131 351 118 q 376 300 381 206 l 301 300 q 293 368 293 336 q 301 426 293 400 l 508 426 q 508 322 508 369 q 507 226 507 274 q 507 126 507 178 q 507 10 507 75 q 410 -12 458 -6 q 319 -19 361 -19 q 202 10 256 -19 q 110 92 149 39 q 49 227 68 150 q 31 387 31 304 q 47 549 31 469 q 90 692 63 629 z "},"H":{"ha":533,"x_min":60,"x_max":482,"o":"m 63 835 q 86 846 69 842 q 124 850 103 850 q 169 845 147 850 q 207 831 192 840 q 208 764 207 810 q 208 667 208 718 q 208 568 208 615 q 208 496 208 521 l 264 497 l 322 497 q 322 526 322 500 q 322 589 322 551 q 322 669 322 626 q 322 749 322 713 q 322 810 322 786 q 322 835 322 835 q 354 845 333 842 q 399 849 375 849 q 438 846 418 849 q 474 836 458 843 q 476 602 475 710 q 477 395 476 494 q 478 200 478 296 q 482 1 479 104 q 453 -16 475 -10 q 406 -22 432 -22 q 365 -17 385 -22 q 331 -1 344 -12 q 331 79 332 33 q 330 174 331 125 q 328 272 329 224 q 326 361 326 321 q 253 360 288 361 q 211 360 218 358 q 210 272 211 314 q 210 185 210 229 q 212 96 211 142 q 214 -1 213 50 q 185 -14 204 -10 q 144 -18 167 -18 q 98 -13 121 -18 q 63 3 75 -8 q 62 140 63 56 q 60 333 61 225 q 60 568 60 440 q 63 835 61 696 z "},"I":{"ha":282,"x_min":58,"x_max":225,"o":"m 63 829 q 96 840 74 836 q 143 843 118 843 q 191 840 168 843 q 225 829 214 836 q 225 778 225 826 q 224 656 225 731 q 224 490 224 582 q 224 307 224 397 q 224 136 224 217 q 224 4 224 56 q 186 -10 208 -7 q 140 -14 164 -14 q 90 -10 113 -14 q 60 -1 67 -6 q 58 180 58 78 q 59 393 58 282 q 60 617 60 504 q 63 829 61 729 z "},"J":{"ha":458,"x_min":21,"x_max":411,"o":"m 26 282 q 93 293 67 293 q 129 290 113 293 q 163 279 146 286 q 165 242 164 264 q 171 201 167 221 q 184 168 175 182 q 210 154 193 154 q 240 167 231 154 q 252 199 249 181 q 255 239 256 218 q 254 276 254 260 q 258 553 257 411 q 257 821 260 694 q 336 832 293 832 q 376 829 357 832 q 411 819 396 826 q 409 667 410 738 q 408 531 408 596 q 406 403 407 465 q 406 278 406 342 q 401 170 406 222 q 376 78 396 118 q 318 13 357 38 q 211 -12 279 -12 q 117 13 156 -12 q 57 79 79 38 q 28 174 35 121 q 26 282 21 226 z "},"K":{"ha":564,"x_min":63,"x_max":544,"o":"m 63 826 q 89 840 69 835 q 132 844 108 844 q 172 840 153 844 q 203 828 192 836 q 205 693 204 769 q 203 542 206 617 q 224 540 218 540 q 238 540 229 540 q 307 692 269 611 q 372 840 344 774 q 403 844 385 844 q 440 838 421 843 q 474 824 458 833 q 499 800 490 814 l 343 463 q 398 353 372 406 q 448 250 424 301 q 496 147 472 199 q 544 36 519 94 q 523 10 539 21 q 488 -8 507 -1 q 451 -15 469 -14 q 419 -11 432 -15 q 371 91 397 36 q 318 201 344 146 q 267 309 292 257 q 224 403 243 361 l 203 403 q 201 308 201 361 q 201 201 201 256 q 202 97 201 147 q 203 6 203 46 q 173 -8 192 -4 q 135 -12 154 -12 q 94 -8 114 -12 q 63 4 74 -4 q 63 224 63 128 q 63 410 63 319 q 63 599 63 500 q 63 826 63 697 z "},"L":{"ha":436,"x_min":58,"x_max":414,"o":"m 58 831 q 93 844 74 840 q 133 849 113 849 q 180 844 157 849 q 221 829 203 839 q 219 774 219 815 q 218 676 218 733 q 219 551 218 619 q 219 415 219 483 q 220 284 219 347 q 221 172 221 221 q 315 173 278 174 q 397 172 353 172 q 410 140 406 163 q 414 92 414 118 q 411 41 414 65 q 401 4 408 17 q 244 1 326 1 q 63 1 161 0 q 64 106 64 39 q 63 253 64 172 q 62 422 63 333 q 60 589 61 510 q 59 733 60 668 q 58 831 58 797 z "},"M":{"ha":575,"x_min":58,"x_max":511,"o":"m 188 813 q 208 763 196 792 q 234 706 221 735 q 260 649 247 676 q 282 603 272 622 q 294 599 288 600 q 306 603 300 599 q 326 657 317 632 q 346 707 336 682 q 367 760 356 732 q 392 821 378 788 q 444 828 413 828 q 476 826 460 828 q 506 818 493 824 q 508 647 507 750 q 510 431 510 544 q 511 203 511 318 q 511 -4 511 89 q 485 -11 503 -7 q 443 -15 467 -15 q 408 -12 426 -15 q 374 0 390 -8 q 372 247 374 118 q 371 513 371 376 q 355 493 364 507 q 336 464 346 479 q 317 433 326 449 q 300 410 307 418 l 278 410 q 260 434 271 418 q 239 467 250 450 q 218 497 228 483 q 201 517 208 511 q 201 428 200 488 q 203 295 203 368 q 203 144 204 222 q 199 0 203 65 q 166 -10 183 -7 q 131 -12 149 -12 q 65 -3 92 -12 q 63 135 64 60 q 61 291 61 211 q 60 449 61 371 q 60 598 60 528 q 60 724 60 668 q 58 814 60 781 q 90 825 75 821 q 119 829 104 829 q 188 813 149 829 z "},"N":{"ha":501,"x_min":58,"x_max":446,"o":"m 58 836 q 74 842 63 840 q 100 843 86 843 q 126 842 114 843 q 140 836 138 840 q 229 741 190 790 q 304 642 268 692 q 303 675 304 644 q 303 740 303 706 q 303 804 303 775 q 303 833 303 833 q 331 844 311 840 q 374 849 350 849 q 414 845 394 849 q 446 835 433 842 q 446 722 446 797 q 446 557 446 647 q 445 372 446 467 q 444 197 444 276 q 443 65 443 118 q 443 6 443 11 q 416 -5 435 -1 q 378 -8 397 -8 q 338 -6 357 -8 q 311 4 319 -3 q 313 46 313 14 q 313 121 313 78 q 312 213 313 164 q 311 305 311 263 q 311 378 311 347 q 311 417 311 410 q 257 492 283 458 q 203 557 231 526 q 203 422 203 497 q 203 270 203 346 q 204 124 204 194 q 203 1 204 53 q 172 -7 192 -4 q 132 -10 153 -10 q 91 -7 110 -10 q 63 3 72 -4 q 62 90 63 24 q 60 244 61 156 q 59 433 60 333 q 58 617 58 532 q 58 764 58 703 q 58 836 58 825 z "},"O":{"ha":506,"x_min":22,"x_max":488,"o":"m 22 408 q 26 499 22 450 q 41 597 31 547 q 69 692 51 646 q 112 774 86 739 q 173 831 138 810 q 254 853 208 853 q 336 832 301 853 q 397 776 371 811 q 441 697 424 742 q 469 601 458 651 q 483 501 479 551 q 488 408 488 451 q 484 338 488 381 q 471 249 481 296 q 444 154 461 201 q 401 69 428 107 q 338 7 375 31 q 251 -15 301 -17 q 166 8 203 -15 q 104 69 129 32 q 63 152 79 106 q 38 245 47 199 q 26 335 29 292 q 22 408 22 378 m 161 408 q 165 335 161 376 q 179 259 169 294 q 207 199 189 224 q 251 175 225 175 q 296 194 278 175 q 325 245 314 213 q 341 320 336 278 q 347 408 346 363 q 343 483 347 440 q 328 565 339 526 q 300 630 318 603 q 256 658 282 657 q 210 638 229 660 q 181 581 192 617 q 165 500 169 546 q 161 408 160 454 z "},"P":{"ha":454,"x_min":58,"x_max":432,"o":"m 63 815 q 132 841 93 832 q 211 850 171 850 q 373 787 315 850 q 432 619 431 724 q 409 508 432 556 q 351 428 386 460 q 278 381 317 397 q 210 365 239 365 q 209 265 210 311 q 208 177 208 219 q 208 92 208 135 q 210 0 208 49 q 179 -11 199 -7 q 138 -15 160 -15 q 92 -11 114 -15 q 58 3 71 -7 q 60 162 60 63 q 60 375 60 261 q 61 605 61 489 q 63 815 61 721 m 215 500 q 272 544 256 515 q 288 613 289 572 q 283 643 288 625 q 269 676 278 661 q 246 702 260 692 q 214 710 232 713 q 213 676 213 708 q 213 606 213 644 q 213 535 213 567 q 215 500 214 503 z "},"Q":{"ha":533,"x_min":18,"x_max":508,"o":"m 260 835 q 345 812 308 835 q 410 751 382 789 q 457 665 438 713 q 488 567 476 617 q 503 472 499 518 q 508 389 508 425 q 501 299 508 354 q 476 186 494 243 q 426 79 458 129 q 344 6 394 29 q 350 -9 344 4 q 363 -38 356 -22 q 376 -68 371 -54 q 382 -82 382 -82 q 365 -97 378 -89 q 335 -113 351 -106 q 301 -126 318 -121 q 269 -131 283 -131 q 247 -125 254 -131 q 233 -90 239 -106 q 220 -61 226 -75 q 208 -33 214 -47 q 194 3 203 -18 q 116 57 149 21 q 63 144 83 93 q 31 256 42 194 q 19 389 21 318 q 28 531 18 454 q 67 676 39 608 q 141 790 94 744 q 260 835 188 835 m 165 389 q 170 309 165 350 q 187 235 175 268 q 217 180 199 201 q 260 158 235 158 q 304 187 286 158 q 335 254 322 215 q 353 331 347 293 q 360 389 358 369 q 357 459 361 414 q 342 548 353 504 q 311 624 331 592 q 260 656 292 656 q 210 636 229 656 q 181 581 192 617 q 168 497 171 546 q 165 389 165 447 z "},"R":{"ha":551,"x_min":57,"x_max":536,"o":"m 58 825 q 188 851 122 851 q 281 838 236 851 q 363 799 326 825 q 422 735 399 774 q 449 646 444 696 q 444 510 454 581 q 393 386 433 440 q 536 8 458 193 q 503 -2 525 1 q 457 -6 482 -6 q 407 -3 431 -6 q 374 7 383 0 q 322 156 350 82 q 267 318 293 231 q 242 309 260 317 q 197 297 225 301 q 201 126 200 196 q 204 4 203 57 q 167 -4 189 -1 q 122 -7 144 -7 q 90 -5 106 -7 q 64 3 75 -3 q 60 176 61 76 q 58 387 58 276 q 58 610 57 497 q 58 825 58 724 m 193 429 q 256 453 232 433 q 293 502 281 474 q 307 565 306 531 q 301 632 308 599 q 288 668 297 650 q 263 699 278 686 q 231 717 249 711 q 192 719 213 724 q 190 660 190 699 q 191 578 190 622 q 192 494 192 535 q 193 429 193 454 z "},"S":{"ha":443,"x_min":25,"x_max":428,"o":"m 217 844 q 319 822 279 844 q 380 764 358 800 q 406 682 401 728 q 403 589 411 636 q 388 585 400 586 q 357 583 375 583 q 318 583 339 583 q 278 585 297 583 q 270 658 281 622 q 229 700 260 694 q 200 693 213 703 q 180 666 188 683 q 170 624 172 649 q 169 575 168 600 q 197 509 172 542 q 256 453 221 476 q 322 402 290 429 q 376 344 353 375 q 414 277 400 313 q 428 201 428 242 q 416 138 428 168 q 385 81 404 107 q 344 35 367 54 q 299 8 321 17 q 260 -3 289 4 q 182 -11 232 -11 q 121 -8 154 -11 q 47 6 88 -4 q 44 62 43 39 q 47 101 44 85 q 54 130 50 118 q 63 154 58 142 q 164 138 119 138 q 242 156 214 138 q 271 206 271 174 q 263 235 271 218 q 243 268 256 251 q 217 300 231 285 q 190 326 203 315 q 126 383 156 357 q 76 438 97 410 q 43 501 56 467 q 28 579 31 535 q 31 663 25 617 q 58 749 38 708 q 117 817 79 790 q 217 844 156 844 z "},"T":{"ha":510,"x_min":24,"x_max":489,"o":"m 36 828 q 95 828 58 828 q 176 828 132 828 q 269 828 221 828 q 358 828 317 828 q 432 829 400 829 q 476 829 464 829 q 484 803 481 822 q 488 762 488 785 q 486 717 489 739 q 475 682 483 694 q 448 681 461 682 q 419 680 435 681 q 383 678 404 679 q 332 678 363 678 q 333 485 332 575 q 335 313 333 394 q 337 156 336 231 q 338 7 338 81 q 309 -7 328 -3 q 268 -11 290 -11 q 220 -6 243 -11 q 186 8 197 -1 q 188 174 188 85 q 190 353 189 263 q 191 528 190 443 q 192 682 192 614 q 113 681 154 682 q 33 681 71 681 q 26 710 29 692 q 24 749 24 728 q 26 791 24 769 q 36 828 29 813 z "},"U":{"ha":558,"x_min":42,"x_max":519,"o":"m 74 831 q 138 839 103 839 q 221 822 182 839 q 203 683 213 757 q 190 536 194 610 q 185 394 185 463 q 196 272 186 326 q 225 173 207 214 q 276 132 243 132 q 333 174 314 132 q 361 278 353 217 q 369 410 368 340 q 365 553 369 481 q 353 695 361 625 q 335 826 346 765 q 379 838 356 835 q 425 840 403 840 q 461 839 446 840 q 479 836 476 838 q 502 695 493 778 q 515 525 511 613 q 517 356 519 438 q 506 217 515 274 q 481 123 497 167 q 439 47 465 79 q 374 -6 413 14 q 282 -25 336 -25 q 186 -5 226 -25 q 119 51 146 15 q 76 133 92 86 q 51 231 60 179 q 42 378 42 299 q 47 539 42 458 q 60 695 53 619 q 74 831 68 771 z "},"V":{"ha":496,"x_min":17,"x_max":479,"o":"m 17 817 q 41 826 26 824 q 74 828 56 828 q 124 824 99 828 q 164 814 149 819 q 175 735 168 789 q 190 617 182 682 q 207 482 199 551 q 223 356 215 413 q 237 261 231 299 q 246 222 243 224 q 272 379 261 300 q 292 535 283 458 q 310 682 301 611 q 328 815 318 753 q 393 828 353 828 q 438 824 415 828 q 479 811 461 819 q 442 628 461 736 q 403 405 422 519 q 366 184 385 290 q 332 6 347 78 q 297 -5 326 -1 q 236 -8 268 -8 q 183 -6 207 -8 q 151 3 158 -4 q 133 92 144 28 q 107 239 121 156 q 78 415 93 322 q 51 589 64 507 q 29 733 39 671 q 17 817 19 796 z "},"W":{"ha":744,"x_min":17,"x_max":724,"o":"m 160 829 q 165 765 161 806 q 175 674 169 724 q 188 568 181 624 q 201 458 194 513 q 213 356 207 404 q 222 271 219 307 q 228 303 224 276 q 241 367 233 329 q 257 447 249 404 q 273 525 265 489 q 287 585 281 561 q 294 610 293 608 q 317 616 294 611 q 371 621 339 621 q 397 619 383 621 q 424 615 410 618 q 446 504 438 551 q 461 418 454 457 q 476 345 468 379 q 493 272 483 311 q 518 426 508 346 q 535 580 528 506 q 550 717 543 654 q 565 821 557 781 q 646 835 603 835 q 690 830 669 835 q 724 818 711 825 q 704 701 715 768 q 680 560 693 635 q 653 408 667 486 q 624 257 639 331 q 596 118 610 183 q 568 6 582 53 q 538 -3 563 1 q 485 -8 514 -8 q 444 -5 464 -8 q 410 7 424 -1 q 403 35 408 10 q 393 98 399 61 q 381 178 388 135 q 369 261 375 222 q 360 329 364 300 q 356 365 357 358 q 339 265 347 315 q 323 166 331 214 q 308 77 315 118 q 296 7 301 36 q 258 -5 283 -1 q 207 -8 233 -8 q 160 -5 181 -8 q 133 7 139 -1 q 123 54 131 13 q 106 161 115 96 q 85 310 96 226 q 62 483 74 394 q 38 660 50 572 q 17 822 26 747 q 87 833 46 831 q 160 829 128 835 z "},"X":{"ha":556,"x_min":26,"x_max":528,"o":"m 146 442 l 26 835 q 60 852 36 846 q 111 858 83 858 q 157 853 135 858 q 190 839 179 849 q 208 744 200 788 q 224 660 215 701 q 244 574 233 618 q 271 476 256 531 l 364 838 q 397 850 375 846 q 442 854 418 854 q 492 849 468 854 q 526 833 515 844 q 519 804 528 832 q 496 736 510 776 q 466 647 482 696 q 435 556 450 599 q 408 479 419 513 q 393 436 397 446 l 522 3 q 488 -14 515 -8 q 431 -19 460 -19 q 390 -16 408 -19 q 363 -4 371 -12 q 340 74 350 36 q 319 153 329 113 q 299 239 310 194 q 272 338 288 283 l 190 -4 q 160 -17 182 -12 q 115 -21 139 -21 q 63 -16 88 -21 q 28 0 38 -11 q 34 33 26 3 q 53 108 42 63 q 80 208 65 154 q 108 310 94 261 q 133 394 122 358 q 146 442 143 431 z "},"Y":{"ha":547,"x_min":17,"x_max":532,"o":"m 17 825 q 49 838 28 833 q 93 843 69 843 q 136 839 115 843 q 171 826 157 835 q 193 751 182 792 q 216 669 204 710 q 239 591 228 628 q 260 529 250 554 q 270 525 263 526 q 285 529 278 524 q 308 599 296 561 q 334 676 321 636 q 360 757 347 717 q 385 832 374 797 q 414 842 396 839 q 451 846 432 846 q 498 842 475 846 q 532 829 521 838 q 479 692 504 756 q 431 568 454 628 q 388 451 408 508 q 347 333 367 394 q 347 278 347 314 q 348 199 347 243 q 351 104 349 154 q 358 6 353 54 q 327 -3 357 3 q 261 -10 297 -10 q 224 -7 242 -10 q 193 3 206 -4 q 197 163 196 78 q 201 326 199 249 q 160 440 183 376 q 111 569 136 503 q 62 703 86 636 q 17 825 38 769 z "},"Z":{"ha":485,"x_min":25,"x_max":460,"o":"m 39 832 l 426 832 q 451 816 442 829 q 460 788 460 803 q 388 631 426 714 q 313 465 349 549 q 251 300 278 381 q 217 150 225 219 q 278 152 242 151 q 350 153 315 153 q 410 151 385 153 q 438 146 436 149 q 446 116 443 135 q 449 77 449 97 q 447 36 449 57 q 440 0 444 15 q 383 0 426 0 q 282 1 340 0 q 159 3 224 1 q 36 6 94 4 q 76 223 51 122 q 128 408 100 324 q 186 557 157 492 q 239 667 215 622 l 40 667 q 29 701 33 679 q 25 748 25 724 q 28 795 25 772 q 39 832 31 818 z "},"a":{"ha":500,"x_min":17,"x_max":482,"o":"m 171 671 q 203 678 182 675 q 249 682 225 682 q 285 679 267 682 q 318 668 303 676 q 399 345 356 513 q 482 1 442 178 q 448 -6 469 -4 q 404 -8 426 -8 q 363 -6 381 -8 q 342 3 344 -4 q 323 72 331 42 q 304 133 315 103 q 276 135 289 135 q 250 136 264 136 q 219 136 236 136 q 179 135 203 136 q 162 62 168 96 q 151 4 156 28 q 129 -4 147 1 q 86 -10 111 -10 q 52 -6 69 -10 q 17 8 35 -3 q 45 138 32 81 q 70 246 58 196 q 93 342 82 296 q 116 438 104 389 q 141 544 128 488 q 171 671 154 601 m 293 250 q 272 359 285 307 q 244 479 260 411 q 231 415 236 442 q 219 365 225 389 q 210 313 214 340 q 199 249 206 286 q 244 249 225 249 q 277 249 263 249 q 293 250 292 250 z "},"b":{"ha":469,"x_min":58,"x_max":457,"o":"m 60 672 q 109 683 79 679 q 172 686 139 686 q 276 674 222 686 q 365 633 329 663 q 404 576 394 611 q 407 506 414 542 q 380 438 400 469 q 328 390 360 407 q 416 313 382 367 q 454 192 450 258 q 433 98 457 143 q 361 21 410 53 q 288 -7 333 1 q 194 -15 243 -15 q 64 0 125 -15 q 60 331 61 158 q 60 672 58 503 m 186 113 q 228 115 206 111 q 269 128 250 118 q 301 156 289 138 q 314 200 314 174 q 285 284 314 250 q 185 318 257 318 q 185 276 185 301 q 185 223 185 251 q 185 166 185 194 q 186 113 186 138 m 182 440 q 235 443 210 435 q 274 467 260 451 q 290 503 289 483 q 269 540 290 524 q 230 560 254 553 q 179 564 206 567 q 180 500 179 532 q 182 440 181 468 z "},"c":{"ha":422,"x_min":19,"x_max":401,"o":"m 235 693 q 330 670 294 693 q 382 609 365 647 q 400 522 399 571 q 392 425 401 474 q 369 419 381 421 q 347 418 358 418 q 290 432 313 418 q 294 473 294 453 q 287 510 293 493 q 267 538 281 526 q 233 549 254 549 q 194 532 211 549 q 167 488 178 515 q 153 424 157 460 q 150 350 149 388 q 158 275 153 315 q 178 201 164 235 q 220 144 193 167 q 292 122 247 122 q 334 128 313 122 q 372 142 356 133 q 387 75 381 115 q 388 3 393 35 q 283 -21 340 -21 q 181 0 231 -21 q 101 61 132 21 q 69 122 83 88 q 44 196 54 157 q 28 276 33 235 q 21 356 22 317 q 31 481 19 419 q 69 589 43 542 q 136 665 94 636 q 235 693 178 693 z "},"d":{"ha":486,"x_min":57,"x_max":463,"o":"m 60 685 q 151 688 110 688 q 233 682 193 689 q 345 631 301 671 q 414 540 389 590 q 449 440 439 490 q 460 357 458 389 q 458 263 463 314 q 433 163 453 211 q 373 73 413 114 q 265 11 333 32 q 147 -7 207 -7 q 60 4 97 -7 q 59 194 60 111 q 58 355 58 278 q 58 510 57 432 q 60 685 58 588 m 193 157 q 265 182 238 161 q 308 231 293 203 q 329 291 324 258 q 333 353 335 324 q 328 406 333 376 q 308 464 324 436 q 265 514 293 492 q 189 543 236 536 q 191 501 190 533 q 192 426 192 469 q 192 335 192 383 q 192 248 192 288 q 192 183 192 208 q 193 157 192 157 z "},"e":{"ha":421,"x_min":58,"x_max":390,"o":"m 61 667 q 122 667 85 667 q 201 667 158 667 q 288 669 244 668 q 367 669 331 669 q 375 642 372 660 q 378 605 378 625 q 378 565 379 585 q 372 533 376 546 q 326 534 351 533 q 276 535 301 535 q 228 535 251 535 q 189 533 206 535 q 187 478 188 503 q 189 422 186 454 q 221 419 194 419 q 278 418 247 418 q 336 418 310 418 q 368 417 363 418 q 376 346 378 385 q 369 281 374 307 q 271 280 311 279 q 189 278 231 281 q 188 191 188 225 q 189 136 189 157 q 237 136 215 136 q 281 136 258 136 q 326 135 303 136 q 378 135 349 135 q 388 106 385 125 q 390 67 390 88 q 386 28 389 47 q 378 0 383 10 q 297 0 339 0 q 213 0 254 0 q 132 0 171 0 q 60 0 93 0 q 59 157 60 69 q 58 335 58 244 q 59 512 58 425 q 61 667 60 599 z "},"f":{"ha":413,"x_min":61,"x_max":385,"o":"m 65 668 q 139 667 104 668 q 209 667 174 667 q 284 667 244 667 q 372 668 324 668 q 381 642 378 660 q 384 604 383 624 q 383 565 385 585 q 378 533 382 546 q 351 534 372 533 q 301 535 329 535 q 244 535 274 535 q 189 533 214 535 q 187 478 188 503 q 189 421 186 454 q 217 418 194 418 q 264 418 239 418 q 311 418 289 418 q 338 417 333 418 q 347 346 349 385 q 340 282 344 307 q 299 281 317 282 q 266 280 282 281 q 232 278 250 279 q 189 278 214 278 q 189 240 189 261 q 190 204 189 219 l 190 0 q 125 -4 158 -4 q 67 -1 92 -4 q 64 167 65 78 q 62 344 63 256 q 62 517 61 433 q 65 668 63 600 z "},"g":{"ha":503,"x_min":19,"x_max":460,"o":"m 21 307 q 32 424 22 358 q 67 547 42 489 q 139 645 93 606 q 257 685 185 685 q 355 658 315 685 q 417 590 394 632 q 449 497 440 549 q 457 392 458 444 q 393 381 431 381 q 335 390 358 381 q 335 431 336 407 q 326 478 333 456 q 302 517 318 501 q 258 533 286 533 q 201 506 222 533 q 170 440 181 478 q 157 365 160 403 q 154 304 154 326 q 160 241 154 272 q 180 184 165 210 q 220 140 194 158 q 286 115 246 121 q 338 124 313 113 q 339 158 339 147 q 339 175 339 168 q 338 190 339 182 q 338 215 338 197 l 267 215 q 259 288 258 257 q 267 340 260 318 l 460 340 q 459 254 460 289 q 458 185 458 219 q 458 110 458 151 q 458 6 458 69 q 383 -12 429 -4 q 297 -24 338 -21 q 170 2 224 -28 q 83 81 117 32 q 35 190 50 129 q 21 307 19 250 z "},"h":{"ha":533,"x_min":64,"x_max":476,"o":"m 67 667 q 93 676 78 674 q 125 678 108 678 q 171 674 149 678 q 203 663 193 669 q 204 607 204 642 q 204 535 204 572 q 204 461 204 497 q 204 400 204 425 l 263 401 l 324 401 q 323 424 324 404 q 322 474 322 444 q 322 536 322 503 q 322 598 322 569 q 323 646 322 626 q 324 665 324 665 q 393 678 351 678 q 431 675 413 678 q 464 668 449 672 q 467 462 467 547 q 469 304 468 376 q 472 162 471 232 q 476 1 474 92 q 448 -15 469 -10 q 403 -19 426 -19 q 363 -15 382 -19 q 332 1 343 -10 q 331 132 332 69 q 328 276 331 194 q 251 275 288 276 q 208 274 215 274 q 208 199 208 231 q 209 139 208 168 q 211 77 210 110 q 214 -1 213 44 q 184 -15 204 -10 q 140 -21 164 -21 q 101 -16 121 -21 q 65 0 81 -11 q 65 117 65 44 q 64 277 64 189 q 65 465 64 365 q 67 667 65 565 z "},"i":{"ha":275,"x_min":60,"x_max":218,"o":"m 64 668 q 97 678 75 675 q 144 681 119 681 q 186 678 167 681 q 217 669 206 675 q 218 583 218 633 q 218 474 218 533 q 217 352 218 415 q 217 227 217 289 q 217 108 217 165 q 218 4 217 50 q 181 -7 201 -4 q 140 -10 160 -10 q 92 -6 113 -10 q 64 0 71 -3 q 61 163 63 75 q 60 341 60 251 q 61 515 60 431 q 64 668 63 600 z "},"j":{"ha":439,"x_min":11,"x_max":386,"o":"m 19 275 q 51 285 33 282 q 86 289 68 289 q 122 285 106 289 q 150 274 139 281 q 149 236 149 260 q 156 190 150 213 q 171 152 161 168 q 197 136 181 136 q 224 151 215 136 q 237 186 233 165 q 241 230 240 207 q 242 269 242 253 q 245 383 244 336 q 246 473 246 431 q 245 561 246 515 q 243 669 244 607 q 317 681 279 681 q 386 668 357 681 q 386 555 386 604 q 386 460 386 506 q 386 370 386 415 q 385 271 386 325 q 378 168 383 219 q 355 76 374 117 q 299 10 336 36 q 200 -15 263 -15 q 108 11 146 -15 q 47 79 69 38 q 18 172 25 121 q 19 275 11 224 z "},"k":{"ha":533,"x_min":64,"x_max":517,"o":"m 69 664 q 95 677 76 672 q 138 682 114 682 q 178 678 158 682 q 208 665 197 674 q 210 613 210 636 q 210 564 210 589 q 209 511 210 539 q 207 446 208 483 q 224 444 224 444 q 232 443 224 444 q 263 506 249 478 q 291 561 276 535 q 319 615 306 588 q 350 678 333 643 q 381 682 363 682 q 417 678 399 682 q 450 665 435 674 q 474 643 465 656 q 441 566 456 599 q 412 503 426 533 q 383 442 397 474 q 351 365 368 410 q 393 282 374 319 q 432 207 413 244 q 472 130 451 169 q 517 42 493 90 q 477 3 507 17 q 419 -11 447 -11 q 394 -7 406 -11 q 315 141 357 65 q 229 306 274 217 l 207 306 q 206 227 206 264 q 206 155 206 190 q 206 85 206 119 q 207 10 207 50 q 178 -6 196 -1 q 140 -10 160 -10 q 99 -5 118 -10 q 68 7 79 0 q 65 191 65 115 q 64 336 64 267 q 65 481 64 406 q 69 664 67 557 z "},"l":{"ha":443,"x_min":63,"x_max":425,"o":"m 65 668 q 98 679 78 675 q 140 683 118 683 q 210 667 181 683 q 208 549 208 615 q 208 413 208 483 q 209 272 208 342 q 210 143 210 201 q 261 145 228 144 q 328 146 294 146 q 388 145 363 146 q 415 142 414 144 q 423 113 421 135 q 425 68 425 92 q 422 24 425 44 q 413 0 418 4 q 358 1 392 1 q 286 1 325 1 q 208 1 247 1 q 138 1 169 1 q 86 1 107 1 q 65 1 65 1 q 63 48 64 3 q 63 161 63 93 q 63 310 63 229 q 63 465 63 392 q 65 594 64 539 q 65 668 65 650 z "},"m":{"ha":578,"x_min":60,"x_max":517,"o":"m 63 671 q 86 678 68 675 q 125 681 104 681 q 165 678 146 681 q 192 669 183 675 q 213 620 200 649 q 238 563 225 592 q 264 506 251 533 q 286 460 276 479 q 298 456 292 457 q 308 460 304 456 q 330 511 321 488 q 347 559 339 535 q 365 610 356 583 q 388 669 375 636 q 415 679 394 676 q 458 682 436 682 q 488 680 474 682 q 508 675 501 678 q 512 514 510 607 q 515 326 514 421 q 516 146 515 232 q 515 3 517 60 q 485 -7 506 -1 q 439 -12 464 -12 q 378 1 406 -12 q 377 99 378 60 q 376 176 376 139 q 375 258 375 214 q 375 368 375 301 q 358 349 368 363 q 339 321 349 336 q 319 290 329 306 q 303 267 310 275 l 282 267 q 265 291 275 275 q 243 324 254 307 q 222 354 232 340 q 204 374 211 368 q 207 224 203 314 q 201 3 211 133 q 169 -7 186 -4 q 133 -10 151 -10 q 61 1 88 -10 q 60 170 60 79 q 60 351 60 261 q 62 525 61 442 q 63 671 63 608 z "},"n":{"ha":481,"x_min":58,"x_max":428,"o":"m 58 665 q 74 669 63 668 q 101 671 86 671 q 128 669 115 671 q 144 667 140 668 q 197 620 176 643 q 234 575 218 597 q 263 531 250 553 q 293 486 276 510 q 294 517 293 489 q 295 579 294 546 q 297 640 296 613 q 297 667 297 667 q 360 678 324 678 q 395 675 379 678 q 422 665 411 672 q 424 607 424 658 q 426 482 425 556 q 427 324 426 408 q 428 169 428 240 q 427 51 428 99 q 426 3 426 3 q 403 -6 419 -3 q 367 -8 386 -8 q 330 -6 347 -8 q 301 1 313 -3 q 301 48 301 15 q 301 121 301 81 q 301 202 301 161 q 300 272 300 243 q 251 335 276 307 q 197 379 225 364 q 197 265 197 313 q 197 177 197 218 q 197 96 197 136 q 196 4 197 56 q 171 -6 189 -3 q 133 -8 153 -8 q 90 -5 110 -8 q 63 6 69 -1 q 62 81 63 26 q 60 206 61 135 q 60 354 60 276 q 59 499 60 432 q 58 612 58 565 q 58 665 58 658 z "},"o":{"ha":508,"x_min":21,"x_max":488,"o":"m 21 325 q 33 438 21 375 q 72 557 44 501 q 144 651 99 613 q 256 689 189 689 q 357 654 314 689 q 429 567 400 619 q 473 453 458 514 q 488 338 488 392 q 477 226 488 279 q 447 128 467 172 q 402 53 428 85 q 344 3 376 21 q 303 -16 325 -8 q 254 -24 281 -24 q 147 4 208 -24 q 101 47 124 15 q 60 121 78 78 q 32 217 43 164 q 21 325 21 269 m 161 324 q 167 267 161 297 q 183 211 172 238 q 211 163 194 185 q 253 132 228 142 q 289 140 272 124 q 319 185 306 156 q 340 253 332 214 q 350 329 349 292 q 344 390 350 356 q 326 456 338 425 q 297 508 314 486 q 257 529 279 529 q 221 512 239 529 q 190 465 203 494 q 169 399 176 436 q 161 324 161 361 z "},"p":{"ha":446,"x_min":58,"x_max":417,"o":"m 60 668 q 129 692 90 683 q 208 701 168 701 q 299 688 258 701 q 349 658 326 678 q 386 614 371 639 q 409 560 401 589 q 417 504 417 532 q 395 396 417 440 q 341 324 374 351 q 271 285 308 297 q 204 272 233 272 q 203 187 204 218 q 203 130 203 156 q 203 76 203 104 q 204 -1 203 47 q 176 -12 197 -8 q 131 -17 156 -17 q 89 -13 108 -17 q 58 -1 69 -10 q 59 289 60 126 q 60 668 58 451 m 206 417 q 256 431 238 417 q 272 497 275 446 q 254 547 271 528 q 204 561 238 565 q 203 538 203 560 q 203 490 203 517 q 205 442 204 464 q 206 417 206 419 z "},"q":{"ha":526,"x_min":19,"x_max":510,"o":"m 272 686 q 385 641 339 681 q 460 545 432 601 q 499 427 488 489 q 507 315 510 365 q 496 230 506 278 q 466 135 486 182 q 416 51 446 89 q 344 -6 386 13 q 351 -18 344 -7 q 364 -42 357 -29 q 382 -78 371 -58 q 338 -110 368 -97 q 279 -122 307 -122 q 247 -115 261 -122 q 233 -86 239 -99 q 222 -62 228 -74 q 210 -37 215 -50 q 196 -7 204 -25 q 111 42 144 10 q 58 119 78 75 q 30 216 38 163 q 21 329 22 269 q 35 448 19 383 q 83 567 51 513 q 162 656 114 621 q 272 686 210 690 m 161 322 q 169 254 161 290 q 191 188 178 218 q 222 140 204 158 q 261 124 240 122 q 300 149 283 126 q 329 202 317 172 q 349 261 342 232 q 358 307 357 290 q 359 367 361 329 q 347 441 357 404 q 315 506 336 478 q 260 535 294 533 q 191 474 222 528 q 161 322 160 421 z "},"r":{"ha":515,"x_min":58,"x_max":499,"o":"m 60 650 q 136 674 88 665 q 235 679 185 682 q 320 658 282 676 q 385 610 358 640 q 425 541 411 581 q 439 456 439 501 q 425 357 439 407 q 382 268 411 307 q 413 194 400 224 q 439 136 426 164 q 465 78 451 108 q 499 1 479 47 q 467 -9 489 -6 q 421 -12 444 -12 q 372 -10 394 -12 q 342 0 350 -7 q 324 46 332 28 q 308 84 317 64 q 289 131 300 104 q 260 203 278 158 q 236 194 253 201 q 193 183 219 188 q 196 110 194 135 q 198 70 197 86 q 200 41 199 54 q 201 3 201 28 q 170 -7 189 -4 q 132 -10 151 -10 q 65 1 92 -10 q 59 299 60 143 q 60 650 58 454 m 189 310 q 272 352 250 317 q 292 442 294 388 q 285 484 292 463 q 265 522 278 506 q 232 545 251 538 q 188 547 213 553 q 186 497 186 528 q 187 433 186 467 q 188 366 188 399 q 189 310 189 333 z "},"s":{"ha":404,"x_min":21,"x_max":381,"o":"m 194 692 q 284 674 249 692 q 338 626 319 656 q 361 558 357 596 q 358 481 365 519 q 344 478 356 479 q 317 476 333 476 q 283 476 301 475 q 247 476 264 476 q 242 531 250 508 q 207 558 233 554 q 167 542 176 563 q 161 479 158 522 q 187 422 164 451 q 240 374 210 393 q 341 279 301 336 q 381 154 381 222 q 371 103 381 128 q 345 58 361 78 q 310 22 329 38 q 271 0 290 7 q 236 -9 263 -3 q 165 -15 210 -15 q 46 -1 114 -15 q 42 47 42 26 q 46 83 43 68 q 52 110 49 99 q 58 131 56 121 q 108 119 85 122 q 150 115 131 115 q 210 130 189 115 q 231 169 231 144 q 210 215 231 189 q 167 258 189 240 q 110 308 136 283 q 67 360 85 333 q 38 416 49 386 q 24 483 26 446 q 27 551 21 514 q 52 619 33 588 q 106 671 71 650 q 194 692 140 692 z "},"t":{"ha":453,"x_min":14,"x_max":443,"o":"m 28 665 q 118 665 60 665 q 238 665 176 665 q 352 666 300 665 q 425 667 404 667 q 439 634 435 654 q 442 593 443 614 q 437 552 442 572 q 424 519 432 532 q 399 519 408 519 q 378 517 389 518 q 349 516 367 517 q 301 515 332 515 q 302 347 301 413 q 303 228 303 281 q 305 126 304 176 q 307 1 306 75 q 278 -12 297 -8 q 238 -17 260 -17 q 190 -12 213 -17 q 156 3 167 -7 q 156 144 156 79 q 158 269 157 208 q 160 390 160 329 q 161 519 161 451 q 93 519 124 519 q 25 518 63 518 q 17 547 21 529 q 14 586 14 565 q 17 628 14 607 q 28 665 21 650 z "},"u":{"ha":533,"x_min":43,"x_max":493,"o":"m 76 668 q 104 673 90 671 q 133 675 118 675 q 213 660 174 675 q 200 552 206 596 q 190 470 194 508 q 184 393 186 432 q 182 300 182 354 q 184 258 182 288 q 194 198 186 229 q 217 142 201 167 q 263 115 233 118 q 302 130 286 114 q 328 172 318 146 q 342 231 338 199 q 349 297 347 264 q 344 462 351 364 q 322 660 338 560 q 365 669 342 667 q 409 672 389 672 q 444 671 429 672 q 463 668 460 669 q 476 557 469 618 q 486 440 482 496 q 492 342 490 383 q 493 289 493 300 q 491 236 493 268 q 483 169 489 204 q 463 100 476 135 q 424 38 449 65 q 361 -8 399 10 q 268 -25 324 -25 q 173 -7 211 -25 q 110 40 135 11 q 73 103 86 68 q 53 174 60 139 q 47 241 47 210 q 44 293 46 272 q 44 384 43 342 q 50 470 46 426 q 60 562 54 514 q 76 668 67 610 z "},"v":{"ha":500,"x_min":18,"x_max":481,"o":"m 18 667 q 49 677 29 674 q 90 681 69 681 q 135 676 114 681 q 165 665 157 672 q 187 528 176 599 q 207 393 197 458 q 226 272 217 328 q 244 178 236 215 q 283 390 260 261 q 329 665 306 519 q 359 676 342 672 q 396 679 376 679 q 440 674 418 679 q 481 663 463 669 q 443 501 463 588 q 405 328 424 415 q 367 156 386 240 q 333 1 349 72 q 245 0 283 0 q 153 0 207 0 q 134 78 146 25 q 108 197 122 131 q 80 338 94 264 q 53 478 65 413 q 31 595 40 544 q 18 667 21 646 z "},"w":{"ha":747,"x_min":21,"x_max":728,"o":"m 164 674 q 199 442 179 554 q 232 222 218 331 q 240 256 233 231 q 257 316 247 282 q 278 387 267 350 q 299 454 289 424 q 317 458 299 456 q 363 461 335 461 q 394 460 378 461 q 428 454 411 458 q 444 396 435 422 q 462 342 453 369 q 481 287 471 315 q 501 222 492 258 q 522 347 514 289 q 538 458 531 404 q 553 562 546 511 q 569 665 560 613 q 608 676 589 672 q 647 679 628 679 q 694 674 672 679 q 728 661 715 668 q 693 495 711 581 q 656 324 675 410 q 617 156 636 239 q 578 -1 597 74 q 549 -10 572 -6 q 496 -14 525 -14 q 454 -10 475 -14 q 419 1 433 -7 q 413 22 418 4 q 402 67 408 40 q 389 125 396 94 q 376 184 382 156 q 365 234 369 213 q 360 263 361 256 q 344 178 351 214 q 329 113 336 142 q 317 57 322 83 q 304 1 311 31 q 267 -10 292 -7 q 215 -14 242 -14 q 169 -10 190 -14 q 143 1 149 -7 q 87 274 118 110 q 21 667 56 439 q 91 677 50 675 q 164 674 132 679 z "},"x":{"ha":508,"x_min":21,"x_max":483,"o":"m 128 367 l 26 667 q 65 683 40 678 q 115 689 89 689 q 155 686 136 689 q 186 679 174 683 q 219 516 206 586 q 251 381 233 446 l 319 682 q 347 690 329 688 q 388 693 365 693 q 441 688 415 693 q 482 667 467 682 q 477 644 483 665 q 460 593 471 624 q 437 526 450 563 q 412 457 424 490 q 391 398 400 424 q 379 363 382 372 l 483 0 q 444 -21 476 -12 q 379 -29 411 -29 q 344 -25 360 -29 q 324 -12 328 -21 q 291 136 308 57 q 251 283 274 215 l 185 -14 q 118 -25 158 -25 q 67 -19 92 -25 q 22 0 42 -14 q 27 27 21 3 q 44 89 33 51 q 69 170 56 126 q 94 254 82 214 q 116 325 107 294 q 128 367 125 356 z "},"y":{"ha":497,"x_min":19,"x_max":472,"o":"m 19 668 q 51 681 31 676 q 96 686 72 686 q 139 682 118 686 q 174 669 160 678 q 206 540 193 597 q 235 425 218 482 q 246 421 239 422 q 260 425 253 419 q 292 544 278 488 q 328 671 307 600 q 354 681 336 678 q 393 685 372 685 q 439 681 417 685 q 472 665 461 676 q 424 540 443 590 q 390 447 406 489 q 361 363 375 404 q 328 267 347 322 q 328 156 328 226 q 331 0 328 86 q 297 -9 324 -6 q 242 -12 271 -12 q 198 -10 218 -12 q 168 0 178 -7 q 169 68 169 38 q 169 128 169 99 q 169 190 169 158 q 171 260 169 221 q 135 360 153 311 q 100 458 118 408 q 63 560 82 508 q 19 668 43 613 z "},"z":{"ha":500,"x_min":38,"x_max":471,"o":"m 51 667 l 439 667 q 463 651 454 664 q 471 622 471 638 q 404 524 442 583 q 332 397 367 464 q 271 265 297 331 q 238 149 244 199 l 442 149 q 450 119 447 138 q 453 79 453 100 q 452 38 454 58 q 446 1 450 18 q 336 1 386 1 q 239 0 286 0 q 143 1 192 0 q 38 1 94 1 q 67 147 47 74 q 114 288 88 219 q 171 416 140 356 q 231 524 201 476 q 188 524 207 524 q 149 524 169 524 q 107 524 129 524 q 53 524 85 524 q 43 555 47 536 q 38 594 39 574 q 40 633 38 614 q 51 667 43 653 z "},",":{"ha":263,"x_min":38,"x_max":226,"o":"m 38 79 q 68 151 39 128 q 138 175 97 175 q 170 170 154 175 q 199 154 186 165 q 219 124 211 143 q 226 76 226 106 q 225 44 226 64 q 219 4 224 25 q 207 -37 214 -17 q 189 -75 200 -58 q 158 -101 175 -94 q 125 -101 142 -107 q 101 -87 113 -97 q 93 -56 90 -76 q 97 -44 93 -53 q 106 -27 101 -36 q 114 -10 110 -18 q 119 1 118 -1 q 79 12 94 3 q 54 33 64 21 q 41 58 44 44 q 38 79 38 71 z "},".":{"ha":256,"x_min":38,"x_max":219,"o":"m 124 171 q 195 143 171 171 q 219 74 219 115 q 190 13 219 39 q 124 -14 161 -14 q 61 13 85 -14 q 38 74 38 40 q 58 140 38 110 q 124 171 79 171 z "},"-":{"ha":543,"x_min":57,"x_max":500,"o":"m 74 417 q 277 417 181 417 q 485 417 374 418 q 496 389 492 408 q 500 349 500 369 q 497 308 500 328 q 489 278 494 289 q 376 276 428 276 q 276 276 325 276 q 177 277 226 276 q 72 278 128 278 q 60 308 64 289 q 57 349 57 328 q 61 389 57 369 q 74 417 65 408 z "},"+":{"ha":556,"x_min":22,"x_max":533,"o":"m 39 422 q 119 422 83 422 q 207 422 156 421 l 207 610 q 235 631 214 624 q 281 638 257 638 q 325 631 304 638 q 354 610 346 624 l 354 422 q 393 421 376 421 q 427 421 410 421 q 465 422 444 421 q 517 422 486 422 q 530 392 526 414 q 531 347 533 371 q 524 304 529 324 q 513 279 519 285 q 354 279 432 281 q 354 184 356 235 q 354 86 353 133 q 321 69 342 75 q 276 63 300 63 q 207 81 235 63 q 206 137 206 113 q 206 183 206 161 q 206 228 206 206 q 207 279 207 251 q 160 279 179 279 q 122 279 140 279 q 85 279 104 279 q 42 279 67 279 q 28 310 33 292 q 23 349 24 329 q 26 389 22 369 q 39 422 29 408 z "},"*":{"ha":508,"x_min":26,"x_max":472,"o":"m 69 744 l 71 744 q 88 738 71 744 q 126 721 104 731 q 171 701 149 711 q 204 686 193 692 q 197 756 201 721 q 192 825 193 790 l 192 826 l 193 828 q 249 854 210 854 q 307 835 283 854 l 310 832 l 310 829 q 301 758 304 793 q 293 688 299 724 q 422 742 356 719 l 425 742 q 451 726 440 739 q 466 698 461 714 q 472 665 471 682 q 467 635 472 647 l 465 632 l 463 632 q 392 619 428 628 q 322 603 357 610 q 372 549 343 579 q 414 496 400 519 l 415 496 l 415 494 q 409 464 418 478 q 387 440 400 450 q 357 425 374 431 q 326 421 340 419 l 325 422 l 324 422 q 319 428 322 422 q 312 442 315 435 q 305 457 308 450 q 300 465 301 464 q 276 507 289 486 q 251 549 264 528 q 216 485 235 521 q 179 428 197 449 l 178 426 l 175 426 q 143 427 160 424 q 112 439 126 431 q 88 460 97 447 q 81 492 79 474 q 85 498 81 493 q 96 509 90 503 q 107 521 101 515 q 114 528 113 526 q 147 563 131 544 q 178 600 163 581 q 106 614 146 607 q 40 632 65 621 l 39 632 l 38 633 q 28 665 31 647 q 30 697 26 682 q 43 726 33 713 q 69 744 53 739 z "},":":{"ha":256,"x_min":38,"x_max":219,"o":"m 38 572 q 58 639 38 608 q 124 669 79 669 q 195 642 171 669 q 219 572 219 614 q 190 511 219 538 q 124 485 161 485 q 61 512 85 485 q 38 572 38 539 m 124 175 q 195 147 171 175 q 219 78 219 119 q 190 17 219 43 q 124 -10 161 -10 q 61 17 85 -10 q 38 78 38 44 q 58 144 38 114 q 124 175 79 175 z "},";":{"ha":263,"x_min":38,"x_max":226,"o":"m 38 76 q 68 149 39 125 q 138 172 97 172 q 198 152 171 172 q 226 75 225 132 q 225 42 226 61 q 219 1 224 22 q 207 -40 214 -19 q 189 -78 200 -61 q 125 -104 161 -115 q 101 -90 113 -100 q 93 -58 90 -79 q 97 -47 93 -56 q 106 -30 101 -39 q 114 -12 110 -21 q 119 -1 118 -4 q 79 9 94 0 q 54 30 64 18 q 41 55 44 42 q 38 76 38 68 m 126 482 q 65 510 88 482 q 42 569 42 538 q 62 636 42 606 q 126 667 82 667 q 199 639 175 667 q 224 569 224 611 q 194 508 224 535 q 126 482 165 482 z "},"!":{"ha":292,"x_min":49,"x_max":242,"o":"m 242 833 q 239 692 240 767 q 236 542 238 618 q 233 391 235 465 q 231 247 232 317 q 191 231 215 236 q 140 226 167 226 q 69 240 97 226 q 63 369 65 292 q 57 531 60 447 q 52 693 54 614 q 49 825 50 772 q 90 841 63 836 q 150 846 118 846 q 202 843 178 846 q 242 833 226 840 m 139 171 q 212 143 188 171 q 236 74 236 115 q 207 13 236 39 q 139 -14 178 -14 q 78 13 101 -14 q 54 74 54 40 q 74 140 54 110 q 139 171 94 171 z "},"¡":{"ha":378,"x_min":86,"x_max":279,"o":"m 86 1 q 90 133 88 54 q 94 296 92 213 q 100 457 97 379 q 107 586 103 535 q 176 600 135 600 q 228 594 203 600 q 268 578 253 589 q 274 288 271 439 q 279 0 276 136 q 240 -16 265 -11 q 185 -21 214 -21 q 126 -15 154 -21 q 86 1 99 -10 m 176 840 q 244 814 215 840 q 274 753 274 788 q 249 683 274 711 q 176 656 225 656 q 112 686 132 656 q 92 753 92 717 q 115 813 92 785 q 176 840 139 840 z "},"?":{"ha":483,"x_min":22,"x_max":463,"o":"m 233 847 q 351 821 297 849 q 433 744 404 793 q 458 637 463 694 q 431 522 454 579 q 375 413 408 465 q 314 318 342 360 q 288 263 290 281 q 288 235 286 244 q 268 228 283 231 q 233 225 253 225 q 188 230 210 225 q 157 246 167 235 q 156 293 154 257 q 183 372 158 329 q 223 434 197 394 q 270 517 249 474 q 303 601 292 560 q 297 667 314 642 q 233 703 275 700 q 203 697 217 704 q 178 679 189 690 q 161 654 168 668 q 149 626 154 640 q 117 626 138 622 q 76 638 97 629 q 40 657 56 646 q 22 681 24 668 q 100 802 44 760 q 233 847 156 844 m 129 74 q 149 140 129 110 q 214 171 169 171 q 287 143 263 171 q 311 74 311 115 q 282 13 311 39 q 214 -14 253 -14 q 152 13 175 -14 q 129 74 129 40 z "},"¿":{"ha":521,"x_min":38,"x_max":478,"o":"m 186 517 q 212 573 210 554 q 213 600 214 592 q 232 607 217 604 q 267 610 247 610 q 312 605 290 610 q 343 589 333 600 q 344 542 346 578 q 317 464 342 506 q 277 402 303 442 q 230 319 251 363 q 197 234 208 275 q 203 168 186 193 q 267 132 224 135 q 297 138 283 131 q 321 156 311 144 q 338 181 331 167 q 350 208 346 194 q 382 209 361 213 q 424 197 403 206 q 460 178 444 189 q 478 154 476 167 q 399 33 456 75 q 267 -11 343 -10 q 149 14 203 -14 q 67 90 94 42 q 42 198 38 140 q 69 313 46 256 q 125 422 92 369 q 186 517 158 475 m 286 849 q 348 822 325 849 q 371 761 371 794 q 351 695 371 725 q 286 665 331 665 q 213 692 238 665 q 189 761 189 719 q 218 822 189 796 q 286 849 247 849 z "},"%":{"ha":525,"x_min":36,"x_max":478,"o":"m 38 668 q 44 719 39 688 q 61 779 49 750 q 96 830 74 808 q 154 853 118 851 q 217 833 193 854 q 256 783 242 813 q 274 721 269 753 q 279 668 279 689 q 274 617 279 647 q 256 560 269 588 q 217 513 242 532 q 154 493 193 493 q 93 513 117 493 q 57 561 69 533 q 40 619 44 589 q 38 668 36 649 m 236 157 q 242 208 238 176 q 260 268 247 239 q 294 319 272 297 q 353 342 317 340 q 416 322 392 343 q 454 272 440 301 q 473 210 468 242 q 478 157 478 178 q 473 106 478 136 q 454 49 468 76 q 416 1 440 21 q 353 -18 392 -18 q 292 2 315 -18 q 256 50 268 22 q 239 108 243 78 q 236 157 235 138 m 369 597 q 400 591 388 597 q 421 574 413 585 q 433 551 429 564 q 439 526 438 538 q 419 508 439 526 q 370 463 400 490 q 306 403 340 435 q 239 342 271 371 q 184 292 207 313 q 156 267 161 271 q 101 288 115 265 q 86 339 88 310 q 116 366 96 347 q 163 410 136 385 q 221 463 190 435 q 280 518 251 492 q 332 565 308 544 q 369 597 356 586 m 154 579 q 182 602 174 579 q 190 667 190 625 q 180 728 189 707 q 154 750 171 750 q 134 728 142 750 q 125 667 126 707 q 131 602 124 625 q 154 579 138 579 m 353 68 q 381 91 372 68 q 389 156 389 114 q 378 217 388 196 q 353 239 369 239 q 333 217 340 239 q 324 156 325 196 q 329 91 322 114 q 353 68 336 68 z "},"^":{"ha":600,"x_min":39,"x_max":565,"o":"m 213 533 q 248 548 222 543 q 303 553 274 553 q 358 548 332 553 q 394 533 385 543 q 472 403 432 468 q 561 263 513 338 q 556 237 565 250 q 531 214 547 224 q 494 198 514 204 q 458 192 475 192 q 436 196 444 192 q 409 227 425 203 q 376 284 393 251 q 339 352 358 317 q 301 415 319 388 q 233 307 265 365 q 168 203 200 249 q 140 196 158 196 q 106 202 124 196 q 74 218 89 208 q 50 240 60 228 q 39 267 40 253 q 88 336 67 304 q 128 399 108 368 q 168 463 149 431 q 213 533 188 496 z "},"˜":{"ha":497,"x_min":44,"x_max":453,"o":"m 44 825 q 97 900 60 874 q 185 926 135 926 q 228 921 207 926 q 269 903 250 915 q 306 885 283 893 q 349 879 329 876 q 376 897 368 882 q 413 897 396 903 q 453 875 429 890 q 413 803 443 832 q 339 774 383 774 q 292 780 315 774 q 250 797 269 786 q 203 816 226 808 q 156 817 181 824 q 134 807 147 814 q 114 786 121 800 q 67 794 89 781 q 44 825 44 807 z "},"/":{"ha":542,"x_min":58,"x_max":485,"o":"m 58 15 q 118 210 89 117 q 179 400 147 303 q 247 606 211 497 q 328 844 283 714 q 345 850 335 849 q 368 851 356 851 q 403 849 385 851 q 439 843 422 847 q 468 834 456 839 q 485 824 481 829 q 423 624 456 728 q 357 412 390 519 q 290 198 324 304 q 222 -8 256 92 q 167 -22 200 -22 q 101 -11 133 -22 q 58 15 69 0 z "},"\\":{"ha":521,"x_min":44,"x_max":471,"o":"m 44 818 q 88 844 56 833 q 153 856 119 856 q 208 842 186 856 q 276 635 242 742 q 343 422 310 529 q 409 210 376 314 q 471 10 442 106 q 453 -1 467 4 q 421 -10 439 -6 q 383 -16 403 -14 q 344 -18 363 -18 q 301 -11 313 -18 q 223 228 257 121 q 160 433 189 336 q 103 624 131 531 q 44 818 75 717 z "},"<":{"ha":674,"x_min":47,"x_max":599,"o":"m 67 442 q 185 493 128 469 q 297 540 242 517 q 407 588 353 564 q 518 636 461 611 q 551 624 533 642 q 581 583 568 607 q 596 538 593 560 q 585 510 599 515 q 476 465 526 486 q 378 424 425 443 q 283 386 331 404 q 185 349 236 368 q 277 313 232 331 q 370 276 322 294 q 469 235 418 257 q 578 186 519 214 q 584 151 586 172 q 572 109 582 129 q 546 74 561 89 q 514 57 531 58 q 397 109 451 85 q 288 157 342 133 q 181 206 235 181 q 65 258 126 231 q 52 294 57 268 q 47 349 47 319 q 52 405 47 378 q 67 442 57 432 z "},">":{"ha":668,"x_min":64,"x_max":615,"o":"m 144 636 q 256 588 201 611 q 365 540 310 564 q 476 493 419 517 q 596 442 533 469 q 610 405 606 432 q 615 349 615 378 q 610 294 615 319 q 596 258 606 268 q 481 206 536 231 q 374 157 426 181 q 266 109 321 133 q 149 57 211 85 q 117 74 132 58 q 91 109 101 89 q 78 151 81 129 q 85 186 75 172 q 194 235 143 214 q 292 276 244 257 q 385 313 340 294 q 478 349 431 331 q 379 386 426 368 q 285 424 332 404 q 187 465 238 443 q 78 510 136 486 q 67 538 64 515 q 81 583 69 560 q 110 624 93 607 q 144 636 128 642 z "},"=":{"ha":586,"x_min":65,"x_max":508,"o":"m 82 543 q 285 544 189 543 q 493 543 382 544 q 504 515 500 535 q 508 475 508 496 q 506 435 508 454 q 497 404 503 415 q 385 403 436 403 q 284 403 333 403 q 185 403 235 403 q 81 404 136 404 q 69 435 72 415 q 65 475 65 454 q 69 515 65 496 q 82 543 74 535 m 82 293 q 285 294 189 293 q 493 293 382 294 q 504 265 500 285 q 508 225 508 246 q 506 185 508 204 q 497 154 503 165 q 385 153 436 153 q 284 153 333 153 q 185 153 235 153 q 81 154 136 154 q 69 185 72 165 q 65 225 65 204 q 69 265 65 246 q 82 293 74 285 z "},"#":{"ha":724,"x_min":43,"x_max":681,"o":"m 60 374 l 185 374 q 194 415 189 394 q 204 457 199 435 l 100 457 q 88 483 92 468 q 85 515 85 499 q 89 545 85 531 q 101 568 93 560 l 231 568 q 260 696 244 629 q 294 838 276 763 q 313 847 301 844 q 339 849 325 849 q 382 842 361 849 q 413 826 403 836 q 385 699 399 764 q 356 568 371 635 q 393 569 375 568 q 431 569 411 569 q 461 696 446 629 q 494 838 476 763 q 513 847 501 844 q 539 849 525 849 q 582 842 561 849 q 613 826 603 836 q 585 699 599 764 q 556 568 571 635 l 667 568 q 677 545 674 560 q 681 515 681 531 q 678 483 681 499 q 669 457 675 468 q 603 456 638 456 q 532 456 569 456 q 523 415 528 435 q 514 374 518 394 l 625 374 q 635 351 632 365 q 639 320 639 336 q 636 289 639 304 q 628 263 633 274 q 561 261 596 261 q 489 261 526 261 q 458 127 474 193 q 428 -4 443 61 q 375 -24 404 -24 q 334 -14 353 -24 q 304 8 315 -4 q 331 138 318 76 q 358 261 344 200 l 289 261 q 258 127 274 193 q 228 -4 243 61 q 175 -24 204 -24 q 134 -14 153 -24 q 104 8 115 -4 q 131 138 118 76 q 158 263 144 200 l 58 263 q 47 289 50 274 q 43 320 43 304 q 47 351 43 336 q 60 374 51 365 m 314 374 q 349 374 332 374 q 385 375 367 374 q 394 415 389 394 q 403 456 399 435 l 332 456 q 323 415 328 436 q 314 374 318 394 z "},"@":{"ha":769,"x_min":40,"x_max":726,"o":"m 40 410 q 61 564 40 485 q 126 709 82 643 q 236 817 169 775 q 394 860 303 860 q 529 824 468 860 q 634 733 590 789 q 702 609 678 678 q 726 475 726 540 q 724 391 726 432 q 710 316 722 350 q 669 256 697 282 q 590 217 642 229 q 551 216 574 213 q 506 229 528 219 q 468 254 485 239 q 446 290 451 269 q 442 313 443 303 q 438 335 440 324 q 395 337 418 336 q 350 338 372 338 q 342 290 347 318 q 335 243 338 263 q 297 236 324 236 q 256 241 276 236 q 232 257 236 246 q 249 328 238 279 q 272 433 260 376 q 297 544 285 489 q 318 636 310 600 q 349 657 326 650 q 396 664 371 664 q 444 657 421 664 q 479 636 468 650 q 507 511 490 578 q 533 392 524 444 q 538 369 536 382 q 545 344 540 356 q 559 327 550 333 q 583 325 568 321 q 608 348 600 329 q 617 390 615 367 q 617 437 619 414 q 614 471 615 460 q 591 567 608 519 q 546 651 574 614 q 480 710 518 688 q 394 733 442 733 q 285 703 329 733 q 215 627 242 674 q 176 523 188 581 q 165 410 165 465 q 182 288 165 344 q 229 188 199 231 q 302 120 260 144 q 394 96 344 96 q 468 105 439 96 q 515 126 497 114 q 543 153 533 139 q 557 179 553 168 q 579 183 565 183 q 608 178 593 183 q 636 165 624 174 q 657 146 649 157 q 665 124 665 135 q 646 79 664 106 q 594 28 628 53 q 510 -13 560 4 q 394 -31 460 -31 q 250 10 315 -31 q 138 113 185 50 q 66 255 92 176 q 40 410 40 333 m 364 418 q 396 417 379 418 q 428 417 413 417 q 423 447 425 433 q 418 476 421 461 q 413 508 415 490 q 406 549 410 525 q 388 549 394 560 q 376 485 382 521 q 364 418 369 449 z "},"&":{"ha":807,"x_min":21,"x_max":771,"o":"m 54 310 q 101 375 74 343 q 168 436 128 407 q 141 486 154 463 q 117 535 128 510 q 101 588 107 560 q 94 651 94 617 q 103 731 94 693 q 132 799 111 769 q 188 844 153 828 q 275 861 222 861 q 352 842 321 861 q 403 794 383 824 q 433 726 424 764 q 442 651 442 689 q 410 531 440 582 q 338 426 381 479 q 389 349 363 385 q 446 281 415 313 q 457 299 449 288 q 518 408 489 351 q 569 522 547 464 q 614 535 585 535 q 672 523 642 535 q 718 492 703 511 q 646 336 686 413 q 554 189 606 260 q 655 132 603 158 q 765 85 707 106 q 768 51 771 72 q 756 10 765 31 q 735 -24 747 -10 q 707 -39 722 -39 q 585 13 644 -22 q 472 90 525 49 q 367 6 415 33 q 257 -25 319 -22 q 133 3 186 -28 q 51 85 81 35 q 22 194 22 135 q 54 310 21 254 m 257 108 q 295 115 276 108 q 328 133 314 122 q 352 154 343 143 q 361 172 361 165 q 243 310 297 232 q 208 279 228 297 q 178 240 188 261 q 168 190 167 214 q 181 147 169 165 q 213 119 193 129 q 257 108 232 108 m 239 651 q 242 627 239 643 q 249 594 244 611 q 258 563 253 578 q 269 542 264 547 q 285 566 278 550 q 297 599 292 582 q 305 630 301 615 q 308 651 308 644 q 308 672 308 656 q 304 704 307 688 q 294 735 301 721 q 275 750 288 749 q 253 740 261 751 q 243 711 246 728 q 240 678 240 694 q 239 651 239 661 z "},"(":{"ha":407,"x_min":53,"x_max":390,"o":"m 54 436 q 74 588 56 514 q 128 722 92 661 q 220 826 164 783 q 353 883 276 869 q 375 865 368 886 q 365 836 381 846 q 294 765 325 808 q 244 669 264 722 q 213 557 224 617 q 203 435 203 497 q 213 310 203 372 q 246 192 224 247 q 301 90 268 136 q 376 11 333 43 q 386 -19 390 0 q 365 -36 382 -39 q 347 -35 356 -36 q 328 -35 338 -35 q 211 10 263 -32 q 124 117 160 51 q 71 267 89 183 q 54 436 53 350 z "},")":{"ha":397,"x_min":21,"x_max":358,"o":"m 35 11 q 112 90 79 43 q 167 192 144 136 q 199 310 189 247 q 210 435 210 372 q 199 557 210 497 q 169 669 189 617 q 118 765 149 722 q 47 836 88 808 q 38 849 40 840 q 38 865 35 857 q 60 883 42 886 q 192 826 136 869 q 284 722 247 783 q 338 588 321 661 q 357 436 356 514 q 340 267 358 350 q 287 117 322 183 q 201 10 251 51 q 85 -35 150 -32 q 65 -35 75 -35 q 46 -36 56 -36 q 25 -19 29 -39 q 35 11 21 0 z "},"[":{"ha":392,"x_min":58,"x_max":328,"o":"m 76 875 q 137 875 111 875 q 187 875 163 875 q 238 876 211 875 q 303 876 265 876 q 322 849 317 867 q 328 811 328 831 q 321 774 328 792 q 303 747 314 757 l 194 747 q 194 586 194 672 q 193 413 193 500 q 193 242 193 326 q 193 88 193 158 q 224 87 211 88 q 247 86 236 86 q 272 86 258 86 q 303 86 285 86 q 319 63 314 81 q 324 24 324 44 q 319 -15 324 3 q 303 -37 314 -32 q 255 -37 285 -37 q 192 -38 225 -37 q 124 -39 158 -39 q 61 -39 89 -39 q 60 196 60 83 q 60 418 60 308 q 60 635 60 528 q 58 854 60 743 q 62 870 58 867 q 76 875 65 874 z "},"]":{"ha":461,"x_min":69,"x_max":339,"o":"m 94 876 q 159 876 132 876 q 210 875 186 875 q 260 875 235 875 q 321 875 286 875 q 335 870 332 874 q 339 854 339 867 q 338 635 338 743 q 338 418 338 528 q 338 196 338 308 q 336 -39 338 83 q 274 -39 308 -39 q 206 -38 239 -39 q 142 -37 172 -37 q 94 -37 113 -37 q 79 -15 85 -32 q 74 24 74 3 q 78 63 74 44 q 94 86 83 81 q 126 86 113 86 q 150 86 139 86 q 174 87 161 86 q 204 88 186 88 q 204 242 204 158 q 204 413 204 326 q 203 586 204 500 q 203 747 203 672 l 94 747 q 76 774 83 757 q 69 811 69 792 q 75 849 69 831 q 94 876 81 867 z "},"{":{"ha":454,"x_min":29,"x_max":406,"o":"m 69 479 q 110 503 93 479 q 126 549 126 526 q 126 578 125 564 q 129 607 128 592 q 138 697 131 650 q 163 781 144 743 q 215 844 182 819 q 301 869 247 869 q 385 856 342 869 q 394 833 392 850 q 394 799 396 817 q 389 767 393 781 q 378 751 385 753 q 323 746 346 758 q 285 710 300 733 q 264 660 271 688 q 254 608 257 632 q 245 562 253 586 q 226 515 238 538 q 198 472 214 492 q 161 440 182 453 q 161 422 158 432 q 197 397 182 414 q 223 358 213 379 q 240 315 233 338 q 247 274 246 293 q 256 207 250 243 q 276 142 261 171 q 317 95 290 113 q 386 85 343 78 q 401 60 397 76 q 404 25 406 43 q 398 -7 403 7 q 385 -24 393 -21 q 293 -37 335 -37 q 233 -28 257 -37 q 190 1 208 -18 q 158 53 169 22 q 138 121 146 85 q 127 196 131 157 q 121 271 124 235 q 117 303 119 283 q 110 341 115 322 q 96 374 106 360 q 69 390 86 388 q 42 403 51 390 q 31 433 32 417 q 39 463 29 449 q 69 479 49 478 z "},"}":{"ha":451,"x_min":43,"x_max":419,"o":"m 63 85 q 133 95 107 78 q 172 142 158 113 q 192 207 186 171 q 200 274 197 243 q 209 315 203 293 q 226 358 215 338 q 251 397 236 379 q 286 422 267 414 q 288 431 289 426 q 288 440 288 436 q 251 472 267 453 q 223 515 235 492 q 204 562 211 538 q 194 608 197 586 q 184 660 192 632 q 162 710 176 688 q 124 746 147 733 q 69 751 101 758 q 60 767 64 753 q 54 799 56 781 q 55 833 53 817 q 64 856 57 850 q 147 869 107 869 q 234 844 201 869 q 285 781 267 819 q 310 697 303 743 q 319 607 318 650 q 321 578 319 592 q 322 549 322 564 q 339 503 322 526 q 379 479 356 479 q 410 463 400 478 q 418 433 419 449 q 406 403 417 417 q 379 390 396 390 q 353 374 363 388 q 338 341 343 360 q 331 303 333 322 q 326 271 328 283 q 320 196 324 235 q 309 121 317 157 q 290 53 301 85 q 258 1 278 22 q 154 -37 222 -37 q 64 -24 114 -37 q 51 -7 56 -21 q 44 25 46 7 q 47 60 43 43 q 63 85 51 76 z "},"|":{"ha":267,"x_min":72,"x_max":190,"o":"m 72 881 q 97 893 81 889 q 132 897 113 897 q 190 883 169 897 q 190 656 190 783 q 190 393 190 528 q 189 128 189 258 q 190 -104 189 -1 q 163 -121 178 -117 q 132 -125 147 -125 q 94 -120 111 -125 q 72 -110 78 -115 l 72 881 z "},"€":{"ha":574,"x_min":13,"x_max":542,"o":"m 26 381 q 58 382 42 382 q 94 382 75 382 l 94 414 l 94 426 l 35 426 q 31 469 28 446 q 42 503 33 493 l 100 501 q 119 622 106 561 q 159 733 132 683 q 229 815 186 783 q 336 846 272 846 q 443 822 401 846 q 507 759 485 799 q 535 668 529 719 q 535 563 542 617 q 515 553 529 556 q 483 550 500 550 q 438 556 460 550 q 408 572 415 561 q 392 644 408 613 q 335 676 375 675 q 297 661 313 676 q 270 620 281 646 q 254 563 260 594 q 246 501 249 532 q 309 501 278 501 q 372 503 340 501 q 376 486 375 497 q 374 463 376 475 q 369 441 372 451 q 364 426 367 431 l 243 426 l 243 400 q 244 390 243 394 q 244 381 244 386 q 357 381 306 378 q 360 364 360 375 q 359 341 360 353 q 356 319 358 329 q 350 304 354 308 l 257 304 q 275 248 264 274 q 303 203 286 222 q 345 174 321 185 q 404 163 369 163 q 454 169 429 163 q 501 186 479 175 q 509 149 507 171 q 510 102 511 126 q 506 55 510 78 q 493 15 501 32 q 375 -12 435 -12 q 258 15 307 -12 q 177 88 210 43 q 126 190 144 133 q 100 306 108 247 q 58 306 78 306 q 19 304 38 306 q 15 348 13 324 q 26 381 18 372 z "},"$":{"ha":425,"x_min":32,"x_max":386,"o":"m 150 768 q 151 835 150 797 q 150 929 151 872 q 172 940 157 936 q 204 943 186 943 q 242 940 224 943 q 268 931 260 938 q 268 843 269 883 q 267 767 267 803 q 325 736 303 757 q 358 688 347 715 q 372 628 369 660 q 368 564 374 596 q 354 561 365 563 q 327 559 343 560 q 293 559 311 558 q 258 560 275 560 q 252 619 261 592 q 217 647 243 647 q 177 626 186 646 q 171 563 168 606 q 194 506 174 535 q 244 457 214 476 q 346 363 307 419 q 386 238 385 306 q 376 186 386 211 q 351 141 367 161 q 315 106 335 121 q 276 83 296 90 q 272 83 274 83 q 268 81 271 82 q 267 -12 268 22 q 268 -82 267 -47 q 243 -92 261 -89 q 206 -96 225 -96 q 172 -93 188 -96 q 150 -83 157 -90 q 151 -17 150 -56 q 150 69 151 21 q 56 82 110 72 q 56 167 49 139 q 69 214 64 194 q 119 202 96 206 q 161 199 142 199 q 224 213 201 199 q 246 253 246 228 q 225 298 246 272 q 182 342 204 324 q 125 392 151 367 q 79 443 99 417 q 48 499 60 469 q 33 567 36 529 q 35 624 32 593 q 52 684 39 656 q 89 735 65 713 q 150 768 113 758 z "},"ß":{"ha":642,"x_min":65,"x_max":606,"o":"m 67 832 q 181 833 119 832 q 299 833 243 833 q 394 833 354 833 q 440 833 433 833 q 449 755 447 799 q 438 668 450 711 l 433 668 q 427 669 431 668 q 418 669 424 669 q 386 638 394 665 q 381 568 378 611 q 401 510 383 535 q 443 463 418 485 q 497 418 468 440 q 549 367 525 396 q 590 299 574 338 q 606 206 606 260 q 589 101 606 143 q 542 34 572 60 q 472 -3 513 8 q 386 -14 432 -14 q 319 -9 354 -14 q 250 4 285 -4 q 247 58 246 38 q 251 94 247 79 q 258 119 254 108 q 265 140 263 129 q 346 126 308 126 q 429 151 400 126 q 458 210 458 176 q 443 262 458 238 q 406 310 428 286 q 356 359 383 333 q 305 415 329 385 q 263 484 281 446 q 242 572 246 522 q 241 618 240 593 q 246 668 242 643 q 215 668 226 668 q 203 667 203 668 q 202 576 201 640 q 203 422 203 511 q 204 224 204 332 q 201 1 204 117 q 169 -6 189 -3 q 128 -8 149 -8 q 92 -6 108 -8 q 67 0 76 -4 q 65 191 65 83 q 66 413 65 299 q 67 636 67 526 q 67 832 67 746 z "},"´":{"ha":292,"x_min":31,"x_max":263,"o":"m 31 808 q 58 855 47 835 q 78 893 69 875 q 97 930 88 911 q 119 974 106 949 q 164 967 140 975 q 208 946 188 958 q 244 919 229 933 q 263 892 260 904 q 194 794 218 832 q 153 736 169 757 q 115 747 131 742 q 85 759 99 751 q 58 778 71 767 q 31 808 46 790 z "},"á":{"ha":500,"x_min":17,"x_max":482,"o":"m 171 671 q 203 678 182 675 q 249 682 225 682 q 285 679 267 682 q 318 668 303 676 q 399 345 356 513 q 482 1 442 178 q 448 -6 469 -4 q 404 -8 426 -8 q 363 -6 381 -8 q 342 3 344 -4 q 323 72 331 42 q 304 133 315 103 q 276 135 289 135 q 250 136 264 136 q 219 136 236 136 q 179 135 203 136 q 162 62 168 96 q 151 4 156 28 q 129 -4 147 1 q 86 -10 111 -10 q 52 -6 69 -10 q 17 8 35 -3 q 45 138 32 81 q 70 246 58 196 q 93 342 82 296 q 116 438 104 389 q 141 544 128 488 q 171 671 154 601 m 293 250 q 272 359 285 307 q 244 479 260 411 q 231 415 236 442 q 219 365 225 389 q 210 313 214 340 q 199 249 206 286 q 244 249 225 249 q 277 249 263 249 q 293 250 292 250 m 189 808 q 217 855 206 835 q 237 893 228 875 q 255 930 246 911 q 278 974 264 949 q 322 967 299 975 q 367 946 346 958 q 403 919 388 933 q 421 892 418 904 q 352 794 376 832 q 311 736 328 757 q 273 747 289 742 q 243 759 257 751 q 217 778 229 767 q 189 808 204 790 z "},"Á":{"ha":501,"x_min":18,"x_max":483,"o":"m 172 831 q 197 840 181 838 q 233 843 214 843 q 278 839 256 843 q 319 826 301 835 q 353 656 333 760 q 397 435 374 551 q 442 204 419 319 q 483 -1 465 89 q 450 -9 471 -7 q 408 -11 429 -11 q 365 -8 385 -11 q 343 0 346 -6 q 328 65 333 39 q 313 131 324 92 q 247 132 286 132 q 179 131 207 132 q 163 58 168 86 q 153 3 158 31 q 127 -8 146 -4 q 86 -11 108 -11 q 49 -8 67 -11 q 18 1 31 -6 q 61 231 42 125 q 98 436 81 338 q 133 631 115 535 q 172 831 151 726 m 294 247 q 285 319 290 279 q 274 403 281 360 q 260 489 268 446 q 246 568 253 532 q 221 407 231 488 q 200 247 211 326 l 294 247 m 192 975 q 219 1022 208 1001 q 240 1060 231 1042 q 258 1097 249 1078 q 281 1140 267 1115 q 325 1133 301 1142 q 369 1113 349 1125 q 406 1085 390 1100 q 424 1058 421 1071 q 355 961 379 999 q 314 903 331 924 q 276 913 292 908 q 246 926 260 918 q 219 945 232 933 q 192 975 207 957 z "},"`":{"ha":292,"x_min":31,"x_max":263,"o":"m 174 974 q 197 930 188 949 q 215 893 206 911 q 235 855 224 875 q 263 808 246 835 q 248 783 263 797 q 214 756 233 768 q 174 737 194 743 q 140 736 153 731 q 99 794 124 757 q 31 892 75 832 q 48 924 32 907 q 86 955 64 942 q 133 974 108 968 q 174 974 157 981 z "},"~":{"ha":735,"x_min":29,"x_max":690,"o":"m 211 485 q 319 475 265 492 q 411 418 372 458 q 459 381 429 400 q 518 358 489 361 q 565 376 546 356 q 592 443 585 396 q 624 453 600 453 q 666 444 646 453 q 688 422 686 436 q 676 340 690 378 q 640 275 663 303 q 591 230 618 247 q 542 208 564 213 q 439 219 490 197 q 350 272 388 240 q 290 317 319 299 q 221 332 260 335 q 196 327 211 331 q 167 315 181 324 q 143 290 153 306 q 133 249 133 274 q 114 238 126 242 q 86 233 101 233 q 53 238 68 233 q 32 253 38 243 q 41 328 29 290 q 76 399 53 367 q 133 456 99 432 q 211 485 168 479 z "},"ˆ":{"ha":521,"x_min":31,"x_max":493,"o":"m 167 926 q 201 926 176 926 q 255 926 226 926 q 309 926 283 926 q 346 925 335 925 q 419 853 382 892 q 493 781 457 815 q 465 774 486 776 q 419 772 444 772 q 376 774 397 772 q 342 781 356 776 q 322 800 331 792 q 304 817 313 808 q 285 838 296 826 q 258 865 274 849 q 211 816 229 838 q 178 781 193 794 q 147 774 167 776 q 103 771 126 771 q 60 774 81 771 q 31 781 40 776 q 56 808 39 790 q 91 847 72 826 q 130 890 110 868 q 167 926 150 911 z "},"¨":{"ha":396,"x_min":17,"x_max":375,"o":"m 296 921 q 355 899 335 921 q 375 842 375 876 q 351 792 375 814 q 296 771 328 771 q 245 793 264 771 q 226 842 226 815 q 243 896 226 871 q 296 921 260 921 m 86 921 q 144 899 125 921 q 164 842 164 876 q 141 792 164 814 q 86 771 118 771 q 35 793 54 771 q 17 842 17 815 q 33 896 17 871 q 86 921 50 921 z "},"•":{"ha":354,"x_min":49,"x_max":304,"o":"m 172 468 q 238 457 213 469 q 277 426 263 444 q 297 389 292 408 q 303 357 303 369 q 300 324 304 343 q 282 286 296 304 q 244 254 268 268 q 179 239 219 240 q 113 250 138 238 q 73 281 88 263 q 53 318 58 299 q 49 350 49 338 q 53 383 49 364 q 70 422 57 403 q 108 453 83 440 q 172 468 132 467 z "},"_":{"ha":621,"x_min":38,"x_max":550,"o":"m 54 1 q 169 1 108 1 q 292 1 229 1 q 417 1 356 1 q 535 1 479 1 q 546 -21 542 -7 q 550 -50 550 -35 q 547 -81 550 -65 q 539 -106 544 -96 q 291 -107 417 -108 q 53 -106 165 -106 q 41 -81 44 -96 q 38 -50 38 -65 q 42 -21 38 -35 q 54 1 46 -7 z "},"ﬆ":{"ha":771,"x_min":43,"x_max":742,"o":"m 125 638 q 178 660 149 653 q 239 669 207 667 q 303 672 271 672 q 361 671 335 671 q 469 671 411 671 q 581 671 528 671 q 674 670 633 671 q 729 669 715 669 q 737 644 733 663 q 741 602 740 625 q 739 557 742 579 q 728 522 736 535 q 704 522 714 522 q 683 520 694 521 q 653 519 671 519 q 606 518 636 518 q 608 349 607 415 q 610 228 610 282 q 611 124 611 175 q 611 -1 611 72 q 585 -15 603 -11 q 546 -19 567 -19 q 495 -14 519 -19 q 460 1 471 -8 q 464 144 463 78 q 466 272 465 210 q 467 397 467 335 q 467 528 467 460 q 393 531 433 529 q 316 531 353 532 q 249 526 279 531 q 207 511 219 522 q 189 491 196 503 q 183 461 182 479 q 206 415 186 433 q 257 376 226 396 q 359 282 319 339 q 399 157 399 225 q 389 106 399 131 q 363 60 379 81 q 328 25 347 40 q 289 3 308 10 q 256 -6 281 0 q 186 -12 231 -12 q 68 1 136 -12 q 69 86 61 58 q 82 133 76 114 q 131 122 108 125 q 174 118 154 118 q 236 133 214 118 q 258 172 258 147 q 238 217 258 192 q 194 261 217 243 q 138 308 164 286 q 93 351 113 329 q 61 401 74 374 q 46 465 49 428 q 62 556 43 507 q 125 638 81 606 z "},"'":{"ha":276,"x_min":56,"x_max":221,"o":"m 56 833 q 91 849 68 844 q 139 854 114 854 q 185 849 163 854 q 221 833 208 844 q 210 712 215 768 q 203 621 204 656 q 140 604 176 604 q 103 609 121 604 q 69 621 85 614 q 67 660 68 635 q 63 715 65 685 q 59 777 61 746 q 56 833 57 808 z "},"\"":{"ha":467,"x_min":44,"x_max":418,"o":"m 418 833 q 407 712 413 768 q 400 621 401 656 q 338 604 374 604 q 300 609 318 604 q 267 621 282 614 q 264 660 265 635 q 260 715 263 685 q 256 777 258 746 q 253 833 254 808 q 288 849 265 844 q 336 854 311 854 q 383 849 360 854 q 418 833 406 844 m 44 833 q 80 849 57 844 q 128 854 103 854 q 174 849 151 854 q 210 833 197 844 q 199 712 204 768 q 192 621 193 656 q 129 604 165 604 q 92 609 110 604 q 58 621 74 614 q 56 660 57 635 q 52 715 54 685 q 48 777 50 746 q 44 833 46 808 z "},"–":{"ha":524,"x_min":43,"x_max":472,"o":"m 60 417 q 162 417 114 417 q 256 417 210 417 q 352 417 303 417 q 457 417 401 417 q 468 389 464 408 q 472 349 472 369 q 469 308 472 328 q 461 278 467 289 q 351 276 400 276 q 255 276 301 276 q 161 277 208 276 q 58 278 114 278 q 47 308 50 289 q 43 349 43 328 q 47 389 43 369 q 60 417 51 408 z "},"—":{"ha":739,"x_min":50,"x_max":688,"o":"m 67 417 q 201 417 121 417 q 367 417 281 417 q 535 417 454 417 q 672 417 617 417 q 683 389 679 408 q 688 349 688 369 q 685 308 688 328 q 676 278 682 289 q 533 276 615 276 q 366 276 451 276 q 201 277 281 276 q 65 278 121 278 q 53 308 57 289 q 50 349 50 328 q 54 389 50 369 q 67 417 58 408 z "},"−":{"ha":585,"x_min":57,"x_max":519,"o":"m 74 417 q 287 417 182 417 q 504 417 392 418 q 515 389 511 408 q 519 349 519 369 q 517 308 519 328 q 508 278 514 289 q 392 276 447 276 q 285 276 338 276 q 180 277 232 276 q 72 278 128 278 q 60 308 64 289 q 57 349 57 328 q 61 389 57 369 q 74 417 65 408 z "},"‹":{"ha":561,"x_min":60,"x_max":471,"o":"m 79 442 q 151 493 121 471 q 214 538 182 515 q 285 589 246 561 q 381 656 324 617 q 416 647 397 661 q 448 612 435 633 q 466 569 461 590 q 458 538 471 547 q 383 483 415 507 q 322 437 351 458 q 264 394 293 415 q 197 349 235 374 q 265 297 235 321 q 326 251 296 274 q 386 206 356 228 q 451 158 417 183 q 456 124 461 144 q 439 85 451 104 q 409 53 426 67 q 375 39 392 40 q 289 99 325 72 q 220 151 253 126 q 154 202 188 176 q 78 258 121 228 q 65 294 69 268 q 60 349 60 319 q 65 405 60 378 q 79 442 69 432 z "},"›":{"ha":550,"x_min":74,"x_max":483,"o":"m 163 656 q 258 589 219 617 q 329 538 297 561 q 392 493 361 515 q 464 442 422 471 q 478 405 474 432 q 483 349 483 378 q 479 294 483 319 q 465 258 475 268 q 389 202 422 228 q 323 151 356 176 q 254 99 290 126 q 168 39 218 72 q 135 53 151 40 q 106 85 118 67 q 88 124 93 104 q 92 158 83 144 q 158 206 128 183 q 217 251 188 228 q 278 297 247 274 q 346 349 308 321 q 279 394 308 374 q 221 437 250 415 q 160 483 192 458 q 86 538 128 507 q 78 569 74 547 q 97 612 83 590 q 128 647 110 633 q 163 656 147 661 z "},"»":{"ha":860,"x_min":74,"x_max":803,"o":"m 482 656 q 578 589 539 617 q 649 538 617 561 q 711 493 681 515 q 783 442 742 471 q 798 405 793 432 q 803 349 803 378 q 799 294 803 319 q 785 258 794 268 q 708 202 742 228 q 642 151 675 176 q 574 99 610 126 q 488 39 538 72 q 454 53 471 40 q 425 85 438 67 q 408 124 413 104 q 411 158 403 144 q 477 206 447 183 q 537 251 507 228 q 597 297 567 274 q 665 349 628 321 q 599 394 628 374 q 540 437 569 415 q 479 483 511 458 q 406 538 447 507 q 398 569 393 547 q 416 612 403 590 q 448 647 429 633 q 482 656 467 661 m 163 656 q 258 589 219 617 q 329 538 297 561 q 392 493 361 515 q 464 442 422 471 q 478 405 474 432 q 483 349 483 378 q 479 294 483 319 q 465 258 475 268 q 389 202 422 228 q 323 151 356 176 q 254 99 290 126 q 168 39 218 72 q 135 53 151 40 q 106 85 118 67 q 88 124 93 104 q 92 158 83 144 q 158 206 128 183 q 217 251 188 228 q 278 297 247 274 q 346 349 308 321 q 279 394 308 374 q 221 437 250 415 q 160 483 192 458 q 86 538 128 507 q 78 569 74 547 q 97 612 83 590 q 128 647 110 633 q 163 656 147 661 z "},"«":{"ha":844,"x_min":60,"x_max":790,"o":"m 399 442 q 471 493 440 471 q 533 538 501 515 q 604 589 565 561 q 700 656 643 617 q 735 647 717 661 q 767 612 754 633 q 785 569 781 590 q 778 538 790 547 q 703 483 735 507 q 642 437 671 458 q 583 394 613 415 q 517 349 554 374 q 585 297 554 321 q 645 251 615 274 q 706 206 675 228 q 771 158 736 183 q 776 124 781 144 q 758 85 771 104 q 728 53 746 67 q 694 39 711 40 q 608 99 644 72 q 540 151 572 126 q 474 202 507 176 q 397 258 440 228 q 384 294 389 268 q 379 349 379 319 q 384 405 379 378 q 399 442 389 432 m 79 442 q 151 493 121 471 q 214 538 182 515 q 285 589 246 561 q 381 656 324 617 q 416 647 397 661 q 448 612 435 633 q 466 569 461 590 q 458 538 471 547 q 383 483 415 507 q 322 437 351 458 q 264 394 293 415 q 197 349 235 374 q 265 297 235 321 q 326 251 296 274 q 386 206 356 228 q 451 158 417 183 q 456 124 461 144 q 439 85 451 104 q 409 53 426 67 q 375 39 392 40 q 289 99 325 72 q 220 151 253 126 q 154 202 188 176 q 78 258 121 228 q 65 294 69 268 q 60 349 60 319 q 65 405 60 378 q 79 442 69 432 z "},"‘":{"ha":236,"x_min":26,"x_max":213,"o":"m 26 636 q 51 737 40 690 q 78 846 63 783 q 114 854 93 854 q 169 843 142 854 q 213 815 197 832 q 186 699 200 757 q 164 600 172 642 q 124 590 150 590 q 65 603 94 590 q 26 636 36 617 z "},"“":{"ha":421,"x_min":26,"x_max":393,"o":"m 207 636 q 232 737 221 690 q 258 846 243 783 q 294 854 274 854 q 350 843 322 854 q 393 815 378 832 q 367 699 381 757 q 344 600 353 642 q 304 590 331 590 q 246 603 275 590 q 207 636 217 617 m 26 636 q 51 737 40 690 q 78 846 63 783 q 114 854 93 854 q 169 843 142 854 q 213 815 197 832 q 186 699 200 757 q 164 600 172 642 q 124 590 150 590 q 65 603 94 590 q 26 636 36 617 z "},"’":{"ha":247,"x_min":26,"x_max":213,"o":"m 26 815 q 65 843 36 832 q 122 854 94 854 q 160 846 146 854 q 188 735 175 783 q 213 636 200 686 q 201 619 211 628 q 176 603 190 610 q 146 593 163 597 q 114 589 129 589 q 75 600 88 589 q 52 699 65 642 q 26 815 39 757 z "},"”":{"ha":419,"x_min":26,"x_max":393,"o":"m 160 846 q 186 737 175 783 q 213 636 197 690 q 174 603 203 617 q 115 590 144 590 q 75 600 89 590 q 52 699 65 642 q 26 815 39 757 q 65 843 36 832 q 121 854 93 854 q 160 846 146 854 m 340 846 q 367 737 356 783 q 393 636 378 690 q 356 605 388 618 q 293 592 324 592 q 256 600 271 592 q 233 699 246 642 q 207 815 219 757 q 245 843 217 832 q 301 854 274 854 q 340 846 326 854 z "},"Ñ":{"ha":501,"x_min":46,"x_max":456,"o":"m 58 836 q 74 842 63 840 q 100 843 86 843 q 126 842 114 843 q 140 836 138 840 q 229 741 190 790 q 304 642 268 692 q 303 675 304 644 q 303 740 303 706 q 303 804 303 775 q 303 833 303 833 q 331 844 311 840 q 374 849 350 849 q 414 845 394 849 q 446 835 433 842 q 446 722 446 797 q 446 557 446 647 q 445 372 446 467 q 444 197 444 276 q 443 65 443 118 q 443 6 443 11 q 416 -5 435 -1 q 378 -8 397 -8 q 338 -6 357 -8 q 311 4 319 -3 q 313 46 313 14 q 313 121 313 78 q 312 213 313 164 q 311 305 311 263 q 311 378 311 347 q 311 417 311 410 q 257 492 283 458 q 203 557 231 526 q 203 422 203 497 q 203 270 203 346 q 204 124 204 194 q 203 1 204 53 q 172 -7 192 -4 q 132 -10 153 -10 q 91 -7 110 -10 q 63 3 72 -4 q 62 90 63 24 q 60 244 61 156 q 59 433 60 333 q 58 617 58 532 q 58 764 58 703 q 58 836 58 825 m 47 992 q 100 1067 63 1040 q 188 1093 138 1093 q 231 1088 210 1093 q 272 1069 253 1082 q 309 1051 286 1060 q 351 1046 332 1043 q 379 1064 371 1049 q 415 1063 399 1069 q 456 1042 432 1057 q 416 969 446 999 q 342 940 386 940 q 295 947 318 940 q 253 964 272 953 q 206 983 229 975 q 158 983 183 990 q 137 974 150 981 q 117 953 124 967 q 69 960 92 947 q 47 992 47 974 z "},"±":{"ha":596,"x_min":39,"x_max":550,"o":"m 56 586 q 136 585 100 586 q 224 586 172 585 l 224 774 q 252 794 231 788 q 297 801 274 801 q 342 794 321 801 q 371 774 363 788 l 371 586 q 407 586 390 586 q 442 586 424 586 q 481 586 460 586 q 533 586 503 586 q 547 556 543 578 q 548 511 550 535 q 541 468 546 488 q 529 443 536 449 q 371 443 449 444 q 371 348 372 399 q 371 250 369 297 q 338 233 358 239 q 293 226 317 226 q 224 244 251 226 q 222 301 222 276 q 222 347 222 325 q 223 392 222 369 q 224 443 224 415 q 176 443 196 443 q 140 443 157 443 q 103 443 122 443 q 58 443 85 443 q 45 474 50 456 q 40 513 40 493 q 42 553 39 533 q 56 586 46 572 m 96 181 q 299 181 203 181 q 507 181 396 182 q 518 153 514 172 q 522 113 522 133 q 519 72 522 92 q 511 42 517 53 q 399 40 450 40 q 298 40 347 40 q 199 41 249 40 q 94 42 150 42 q 83 72 86 53 q 79 113 79 92 q 83 153 79 133 q 96 181 88 172 z "},"×":{"ha":589,"x_min":72,"x_max":513,"o":"m 182 567 q 235 514 211 538 q 273 476 254 494 q 297 450 292 457 q 323 476 311 464 q 348 500 335 488 q 376 528 361 513 q 413 565 392 543 q 442 553 425 565 q 476 522 460 540 q 502 488 492 504 q 511 463 513 471 q 454 406 482 433 q 399 350 426 378 q 426 322 414 335 q 449 298 438 310 q 472 274 460 286 q 500 246 483 261 q 490 211 500 229 q 466 178 481 193 q 434 151 451 163 q 400 138 417 140 q 365 171 378 158 q 343 193 353 183 q 324 214 333 203 q 294 246 314 225 q 261 213 275 226 q 235 186 247 199 q 209 160 222 174 q 178 129 196 147 q 147 142 164 132 q 114 165 129 151 q 88 195 99 179 q 74 228 76 211 q 131 283 106 258 q 193 346 157 308 q 138 401 167 372 q 76 463 110 431 q 82 497 72 478 q 108 533 92 517 q 145 560 125 550 q 182 567 165 571 z "},"÷":{"ha":539,"x_min":38,"x_max":501,"o":"m 176 589 q 197 656 176 625 q 263 686 218 686 q 334 658 310 686 q 358 589 358 631 q 329 528 358 554 q 263 501 300 501 q 200 528 224 501 q 176 589 176 556 m 263 192 q 334 164 310 192 q 358 94 358 136 q 329 33 358 60 q 263 7 300 7 q 200 34 224 7 q 176 94 176 61 q 197 161 176 131 q 263 192 218 192 m 56 417 q 269 417 164 417 q 486 417 374 418 q 497 389 493 408 q 501 349 501 369 q 499 308 501 328 q 490 278 496 289 q 374 276 429 276 q 267 276 319 276 q 162 277 214 276 q 54 278 110 278 q 42 308 46 289 q 39 349 39 328 q 43 389 39 369 q 56 417 47 408 z "},"ñ":{"ha":481,"x_min":36,"x_max":446,"o":"m 58 665 q 74 669 63 668 q 101 671 86 671 q 128 669 115 671 q 144 667 140 668 q 197 620 176 643 q 234 575 218 597 q 263 531 250 553 q 293 486 276 510 q 294 517 293 489 q 295 579 294 546 q 297 640 296 613 q 297 667 297 667 q 360 678 324 678 q 395 675 379 678 q 422 665 411 672 q 424 607 424 658 q 426 482 425 556 q 427 324 426 408 q 428 169 428 240 q 427 51 428 99 q 426 3 426 3 q 403 -6 419 -3 q 367 -8 386 -8 q 330 -6 347 -8 q 301 1 313 -3 q 301 48 301 15 q 301 121 301 81 q 301 202 301 161 q 300 272 300 243 q 251 335 276 307 q 197 379 225 364 q 197 265 197 313 q 197 177 197 218 q 197 96 197 136 q 196 4 197 56 q 171 -6 189 -3 q 133 -8 153 -8 q 90 -5 110 -8 q 63 6 69 -1 q 62 81 63 26 q 60 206 61 135 q 60 354 60 276 q 59 499 60 432 q 58 612 58 565 q 58 665 58 658 m 36 825 q 89 900 51 874 q 176 926 126 926 q 220 921 199 926 q 261 903 242 915 q 298 885 275 893 q 340 879 321 876 q 368 897 360 882 q 404 897 388 903 q 444 875 421 890 q 405 803 435 832 q 331 774 375 774 q 284 780 307 774 q 242 797 261 786 q 195 816 218 808 q 147 817 172 824 q 126 807 139 814 q 106 786 113 800 q 58 794 81 781 q 36 825 36 807 z "},"Æ":{"ha":799,"x_min":18,"x_max":739,"o":"m 18 1 q 110 254 69 142 q 185 465 150 367 q 251 651 219 563 q 314 833 282 740 q 515 833 419 833 q 710 835 610 833 q 718 801 715 825 q 721 751 721 778 q 718 701 721 725 q 711 667 715 678 q 636 667 672 667 q 569 667 604 667 q 510 665 535 667 q 510 490 507 576 q 577 491 531 489 q 693 490 624 493 q 699 458 697 478 q 701 418 701 439 q 700 378 701 397 q 696 347 699 360 q 638 348 661 347 q 594 349 614 349 q 554 349 574 349 q 510 347 535 349 q 510 288 510 314 q 511 240 511 263 q 510 194 511 217 q 510 149 510 172 q 565 150 539 150 q 615 150 590 150 q 667 150 640 150 q 724 150 693 150 q 734 117 731 139 q 738 73 738 96 q 736 29 739 50 q 726 0 733 8 l 351 0 q 350 51 349 21 q 351 131 351 82 q 288 132 325 132 q 224 131 251 132 q 201 67 213 99 q 181 3 190 36 q 149 -8 174 -4 q 97 -11 125 -11 q 52 -8 74 -11 q 18 1 31 -6 m 260 247 l 353 247 q 353 297 353 272 q 353 356 353 321 q 356 441 354 390 q 358 568 357 492 q 332 478 344 518 q 307 401 319 438 q 283 327 294 364 q 260 247 271 290 z "},"æ":{"ha":697,"x_min":26,"x_max":633,"o":"m 26 1 q 99 204 67 114 q 159 372 132 294 q 211 522 186 450 q 263 667 236 593 l 610 667 q 617 640 614 658 q 619 600 619 621 q 617 560 619 579 q 611 533 615 542 q 547 533 578 533 q 492 533 521 533 q 442 532 463 533 q 440 473 440 497 q 442 414 440 449 q 499 415 460 414 q 596 414 538 417 q 601 385 600 404 q 603 346 603 367 q 603 306 604 325 q 599 278 601 288 q 549 278 569 278 q 513 278 529 278 q 480 278 496 278 q 442 278 464 278 q 442 233 442 251 q 443 198 443 214 q 442 167 443 182 q 442 133 442 153 q 530 134 490 135 q 621 135 569 133 q 630 107 626 126 q 633 66 633 88 q 631 26 633 44 q 624 0 629 7 q 518 0 565 0 q 421 -1 471 0 q 367 0 396 0 q 314 0 338 0 q 314 132 317 49 q 266 133 293 133 q 215 132 239 133 q 192 67 204 106 q 169 1 181 29 q 142 -6 164 -3 q 96 -8 121 -8 q 56 -6 75 -8 q 26 1 36 -4 m 244 225 l 314 225 q 314 322 314 265 q 313 454 314 379 q 276 330 293 385 q 244 225 258 275 z "},"ﬁ":{"ha":607,"x_min":61,"x_max":546,"o":"m 65 668 q 180 667 125 667 q 291 667 235 667 q 409 667 347 667 q 544 669 471 668 q 544 515 544 601 q 544 338 544 428 q 544 160 544 247 q 546 4 544 74 q 510 -7 529 -4 q 474 -10 492 -10 q 432 -6 450 -10 q 407 0 414 -3 q 404 125 406 58 q 403 261 403 192 q 403 400 403 331 q 404 533 403 469 q 356 534 385 533 q 296 535 326 535 q 237 534 265 535 q 189 533 208 533 q 187 478 188 503 q 189 421 186 454 q 217 417 194 418 q 265 417 239 417 q 314 417 292 417 q 340 415 336 417 q 349 344 351 383 q 343 279 347 306 q 302 279 319 279 q 268 279 285 279 q 233 278 251 279 q 189 278 214 278 q 189 240 189 261 q 190 204 189 219 l 190 0 q 125 -4 158 -4 q 67 -1 92 -4 q 64 167 65 78 q 62 344 63 256 q 62 517 61 433 q 65 668 63 600 z "},"ﬂ":{"ha":782,"x_min":63,"x_max":757,"o":"m 65 668 q 178 667 125 667 q 285 667 231 667 q 398 667 339 667 q 531 669 457 668 q 528 388 528 518 q 528 138 528 257 q 581 140 546 139 q 653 140 617 140 q 718 140 690 140 q 747 136 746 139 q 755 108 753 129 q 757 65 757 88 q 753 23 757 42 q 744 0 750 4 q 678 0 724 0 q 580 0 632 0 q 478 0 528 0 q 399 0 428 0 q 396 125 397 58 q 394 261 394 192 q 394 400 394 331 q 396 533 394 469 q 349 534 376 533 q 292 535 321 535 q 235 534 263 535 q 189 533 208 533 q 187 478 188 503 q 189 421 186 454 q 217 417 194 418 q 265 417 239 417 q 314 417 292 417 q 340 415 336 417 q 349 344 351 383 q 343 279 347 306 q 302 279 319 279 q 268 279 285 279 q 233 278 251 279 q 189 278 214 278 q 189 240 189 261 q 190 204 189 219 l 190 0 q 125 -4 158 -4 q 67 -1 92 -4 q 63 331 64 157 q 65 668 63 504 z "},"¸":{"ha":190,"x_min":11,"x_max":179,"o":"m 72 43 q 92 47 83 46 q 107 49 100 49 q 139 41 125 49 q 174 17 153 33 q 170 -79 179 -33 q 143 -169 161 -125 q 137 -182 139 -181 q 124 -186 135 -183 q 90 -185 108 -189 q 55 -172 71 -182 q 26 -149 39 -162 q 11 -118 14 -135 q 59 -45 44 -83 q 72 43 74 -7 z "},"Ç":{"ha":507,"x_min":31,"x_max":475,"o":"m 31 410 q 41 550 32 474 q 76 693 50 626 q 149 805 103 760 q 272 850 196 850 q 388 822 344 850 q 451 747 431 793 q 474 641 472 700 q 464 522 475 582 q 408 513 439 513 q 340 531 369 513 q 345 582 346 556 q 336 630 344 608 q 312 665 328 651 q 271 679 296 679 q 233 664 249 681 q 206 621 217 647 q 190 562 196 594 q 181 497 183 529 q 179 438 179 465 q 179 396 179 411 q 188 313 181 356 q 213 235 196 271 q 261 178 231 200 q 340 156 292 156 q 392 162 367 156 q 439 179 417 168 q 447 140 444 163 q 449 94 450 118 q 444 48 449 71 q 431 8 439 25 q 313 -19 372 -19 q 202 6 254 -19 q 114 81 150 31 q 72 158 89 115 q 47 244 56 200 q 34 332 38 289 q 31 410 31 375 m 233 43 q 253 47 244 46 q 268 49 261 49 q 300 41 286 49 q 335 17 314 33 q 331 -79 340 -33 q 304 -169 322 -125 q 298 -182 300 -181 q 285 -186 296 -183 q 251 -185 269 -189 q 216 -172 232 -182 q 188 -149 200 -162 q 172 -118 175 -135 q 220 -45 206 -83 q 233 43 235 -7 z "},"ç":{"ha":422,"x_min":19,"x_max":401,"o":"m 235 693 q 330 670 294 693 q 382 609 365 647 q 400 522 399 571 q 392 425 401 474 q 369 419 381 421 q 347 418 358 418 q 290 432 313 418 q 294 473 294 453 q 287 510 293 493 q 267 538 281 526 q 233 549 254 549 q 194 532 211 549 q 167 488 178 515 q 153 424 157 460 q 150 350 149 388 q 158 275 153 315 q 178 201 164 235 q 220 144 193 167 q 292 122 247 122 q 334 128 313 122 q 372 142 356 133 q 387 75 381 115 q 388 3 393 35 q 283 -21 340 -21 q 181 0 231 -21 q 101 61 132 21 q 69 122 83 88 q 44 196 54 157 q 28 276 33 235 q 21 356 22 317 q 31 481 19 419 q 69 589 43 542 q 136 665 94 636 q 235 693 178 693 m 190 43 q 210 47 201 46 q 225 49 218 49 q 257 41 243 49 q 292 17 271 33 q 288 -79 297 -33 q 261 -169 279 -125 q 255 -182 257 -181 q 242 -186 253 -183 q 208 -185 226 -189 q 173 -172 189 -182 q 144 -149 157 -162 q 129 -118 132 -135 q 177 -45 163 -83 q 190 43 192 -7 z "},"À":{"ha":501,"x_min":18,"x_max":483,"o":"m 172 831 q 197 840 181 838 q 233 843 214 843 q 278 839 256 843 q 319 826 301 835 q 353 656 333 760 q 397 435 374 551 q 442 204 419 319 q 483 -1 465 89 q 450 -9 471 -7 q 408 -11 429 -11 q 365 -8 385 -11 q 343 0 346 -6 q 328 65 333 39 q 313 131 324 92 q 247 132 286 132 q 179 131 207 132 q 163 58 168 86 q 153 3 158 31 q 127 -8 146 -4 q 86 -11 108 -11 q 49 -8 67 -11 q 18 1 31 -6 q 61 231 42 125 q 98 436 81 338 q 133 631 115 535 q 172 831 151 726 m 294 247 q 285 319 290 279 q 274 403 281 360 q 260 489 268 446 q 246 568 253 532 q 221 407 231 488 q 200 247 211 326 l 294 247 m 222 1140 q 245 1097 236 1115 q 263 1060 254 1078 q 283 1022 272 1042 q 311 975 294 1001 q 297 949 311 964 q 263 922 282 935 q 222 903 243 910 q 189 903 201 897 q 148 961 172 924 q 79 1058 124 999 q 97 1091 81 1074 q 135 1122 113 1108 q 181 1141 157 1135 q 222 1140 206 1147 z "},"Â":{"ha":501,"x_min":18,"x_max":483,"o":"m 172 831 q 197 840 181 838 q 233 843 214 843 q 278 839 256 843 q 319 826 301 835 q 353 656 333 760 q 397 435 374 551 q 442 204 419 319 q 483 -1 465 89 q 450 -9 471 -7 q 408 -11 429 -11 q 365 -8 385 -11 q 343 0 346 -6 q 328 65 333 39 q 313 131 324 92 q 247 132 286 132 q 179 131 207 132 q 163 58 168 86 q 153 3 158 31 q 127 -8 146 -4 q 86 -11 108 -11 q 49 -8 67 -11 q 18 1 31 -6 q 61 231 42 125 q 98 436 81 338 q 133 631 115 535 q 172 831 151 726 m 294 247 q 285 319 290 279 q 274 403 281 360 q 260 489 268 446 q 246 568 253 532 q 221 407 231 488 q 200 247 211 326 l 294 247 m 156 1093 q 190 1093 165 1093 q 244 1093 215 1093 q 298 1092 272 1093 q 335 1092 324 1092 q 408 1020 371 1058 q 482 947 446 982 q 454 941 475 943 q 408 939 433 939 q 365 941 386 939 q 331 947 344 943 q 310 967 319 958 q 293 984 301 975 q 274 1004 285 993 q 247 1032 263 1015 q 200 983 218 1004 q 167 947 182 961 q 135 940 156 943 q 92 938 115 938 q 49 940 69 938 q 19 947 29 943 q 44 975 28 957 q 80 1014 61 993 q 119 1056 99 1035 q 156 1093 139 1078 z "},"Ã":{"ha":501,"x_min":18,"x_max":483,"o":"m 172 831 q 197 840 181 838 q 233 843 214 843 q 278 839 256 843 q 319 826 301 835 q 353 656 333 760 q 397 435 374 551 q 442 204 419 319 q 483 -1 465 89 q 450 -9 471 -7 q 408 -11 429 -11 q 365 -8 385 -11 q 343 0 346 -6 q 328 65 333 39 q 313 131 324 92 q 247 132 286 132 q 179 131 207 132 q 163 58 168 86 q 153 3 158 31 q 127 -8 146 -4 q 86 -11 108 -11 q 49 -8 67 -11 q 18 1 31 -6 q 61 231 42 125 q 98 436 81 338 q 133 631 115 535 q 172 831 151 726 m 294 247 q 285 319 290 279 q 274 403 281 360 q 260 489 268 446 q 246 568 253 532 q 221 407 231 488 q 200 247 211 326 l 294 247 m 47 992 q 100 1067 63 1040 q 188 1093 138 1093 q 231 1088 210 1093 q 272 1069 253 1082 q 309 1051 286 1060 q 351 1046 332 1043 q 379 1064 371 1049 q 415 1063 399 1069 q 456 1042 432 1057 q 416 969 446 999 q 342 940 386 940 q 295 947 318 940 q 253 964 272 953 q 206 983 229 975 q 158 983 183 990 q 137 974 150 981 q 117 953 124 967 q 69 960 92 947 q 47 992 47 974 z "},"Ä":{"ha":501,"x_min":18,"x_max":483,"o":"m 172 831 q 197 840 181 838 q 233 843 214 843 q 278 839 256 843 q 319 826 301 835 q 353 656 333 760 q 397 435 374 551 q 442 204 419 319 q 483 -1 465 89 q 450 -9 471 -7 q 408 -11 429 -11 q 365 -8 385 -11 q 343 0 346 -6 q 328 65 333 39 q 313 131 324 92 q 247 132 286 132 q 179 131 207 132 q 163 58 168 86 q 153 3 158 31 q 127 -8 146 -4 q 86 -11 108 -11 q 49 -8 67 -11 q 18 1 31 -6 q 61 231 42 125 q 98 436 81 338 q 133 631 115 535 q 172 831 151 726 m 294 247 q 285 319 290 279 q 274 403 281 360 q 260 489 268 446 q 246 568 253 532 q 221 407 231 488 q 200 247 211 326 l 294 247 m 351 1088 q 410 1065 390 1088 q 431 1008 431 1043 q 407 959 431 981 q 351 938 383 938 q 301 960 319 938 q 282 1008 282 982 q 299 1063 282 1038 q 351 1088 315 1088 m 142 1088 q 200 1065 181 1088 q 219 1008 219 1043 q 197 959 219 981 q 142 938 174 938 q 91 960 110 938 q 72 1008 72 982 q 89 1063 72 1038 q 142 1088 106 1088 z "},"È":{"ha":475,"x_min":58,"x_max":436,"o":"m 63 833 q 145 833 107 833 q 223 833 183 833 q 307 834 263 833 q 407 835 351 835 q 415 801 413 825 q 418 751 418 778 q 415 701 418 725 q 408 667 413 678 q 336 667 372 667 q 271 667 306 667 q 207 668 236 668 q 207 490 204 578 q 272 490 228 489 q 390 490 317 492 q 397 458 394 478 q 399 418 399 439 q 397 378 399 397 q 393 347 396 360 q 310 347 353 346 q 207 347 268 349 q 208 288 207 314 q 208 240 208 263 q 208 194 208 217 q 207 149 207 172 q 263 150 238 150 q 313 150 289 150 q 364 150 338 150 q 421 150 390 150 q 431 117 428 139 q 435 73 435 96 q 433 29 436 50 q 424 0 431 8 q 240 -1 333 0 q 58 0 147 -1 q 58 104 58 35 q 58 260 58 174 q 59 439 58 346 q 60 613 60 532 q 62 753 61 693 q 63 833 63 813 m 251 1140 q 274 1097 265 1115 q 292 1060 283 1078 q 313 1022 301 1042 q 340 975 324 1001 q 326 949 340 964 q 292 922 311 935 q 251 903 272 910 q 218 903 231 897 q 177 961 201 924 q 108 1058 153 999 q 126 1091 110 1074 q 164 1122 142 1108 q 210 1141 186 1135 q 251 1140 235 1147 z "},"É":{"ha":475,"x_min":58,"x_max":436,"o":"m 63 833 q 145 833 107 833 q 223 833 183 833 q 307 834 263 833 q 407 835 351 835 q 415 801 413 825 q 418 751 418 778 q 415 701 418 725 q 408 667 413 678 q 336 667 372 667 q 271 667 306 667 q 207 668 236 668 q 207 490 204 578 q 272 490 228 489 q 390 490 317 492 q 397 458 394 478 q 399 418 399 439 q 397 378 399 397 q 393 347 396 360 q 310 347 353 346 q 207 347 268 349 q 208 288 207 314 q 208 240 208 263 q 208 194 208 217 q 207 149 207 172 q 263 150 238 150 q 313 150 289 150 q 364 150 338 150 q 421 150 390 150 q 431 117 428 139 q 435 73 435 96 q 433 29 436 50 q 424 0 431 8 q 240 -1 333 0 q 58 0 147 -1 q 58 104 58 35 q 58 260 58 174 q 59 439 58 346 q 60 613 60 532 q 62 753 61 693 q 63 833 63 813 m 136 975 q 164 1022 153 1001 q 184 1060 175 1042 q 202 1097 193 1078 q 225 1140 211 1115 q 269 1133 246 1142 q 314 1113 293 1125 q 350 1085 335 1100 q 368 1058 365 1071 q 299 961 324 999 q 258 903 275 924 q 220 913 236 908 q 190 926 204 918 q 164 945 176 933 q 136 975 151 957 z "},"Ê":{"ha":475,"x_min":6,"x_max":469,"o":"m 63 833 q 145 833 107 833 q 223 833 183 833 q 307 834 263 833 q 407 835 351 835 q 415 801 413 825 q 418 751 418 778 q 415 701 418 725 q 408 667 413 678 q 336 667 372 667 q 271 667 306 667 q 207 668 236 668 q 207 490 204 578 q 272 490 228 489 q 390 490 317 492 q 397 458 394 478 q 399 418 399 439 q 397 378 399 397 q 393 347 396 360 q 310 347 353 346 q 207 347 268 349 q 208 288 207 314 q 208 240 208 263 q 208 194 208 217 q 207 149 207 172 q 263 150 238 150 q 313 150 289 150 q 364 150 338 150 q 421 150 390 150 q 431 117 428 139 q 435 73 435 96 q 433 29 436 50 q 424 0 431 8 q 240 -1 333 0 q 58 0 147 -1 q 58 104 58 35 q 58 260 58 174 q 59 439 58 346 q 60 613 60 532 q 62 753 61 693 q 63 833 63 813 m 143 1093 q 178 1093 153 1093 q 231 1093 203 1093 q 285 1092 260 1093 q 322 1092 311 1092 q 396 1020 358 1058 q 469 947 433 982 q 442 941 463 943 q 396 939 421 939 q 353 941 374 939 q 318 947 332 943 q 298 967 307 958 q 281 984 289 975 q 261 1004 272 993 q 235 1032 250 1015 q 188 983 206 1004 q 154 947 169 961 q 123 940 143 943 q 79 938 103 938 q 37 940 57 938 q 7 947 17 943 q 32 975 15 957 q 67 1014 49 993 q 106 1056 86 1035 q 143 1093 126 1078 z "},"Ë":{"ha":475,"x_min":58,"x_max":436,"o":"m 63 833 q 145 833 107 833 q 223 833 183 833 q 307 834 263 833 q 407 835 351 835 q 415 801 413 825 q 418 751 418 778 q 415 701 418 725 q 408 667 413 678 q 336 667 372 667 q 271 667 306 667 q 207 668 236 668 q 207 490 204 578 q 272 490 228 489 q 390 490 317 492 q 397 458 394 478 q 399 418 399 439 q 397 378 399 397 q 393 347 396 360 q 310 347 353 346 q 207 347 268 349 q 208 288 207 314 q 208 240 208 263 q 208 194 208 217 q 207 149 207 172 q 263 150 238 150 q 313 150 289 150 q 364 150 338 150 q 421 150 390 150 q 431 117 428 139 q 435 73 435 96 q 433 29 436 50 q 424 0 431 8 q 240 -1 333 0 q 58 0 147 -1 q 58 104 58 35 q 58 260 58 174 q 59 439 58 346 q 60 613 60 532 q 62 753 61 693 q 63 833 63 813 m 339 1088 q 398 1065 378 1088 q 418 1008 418 1043 q 394 959 418 981 q 339 938 371 938 q 288 960 307 938 q 269 1008 269 982 q 286 1063 269 1038 q 339 1088 303 1088 m 129 1088 q 188 1065 168 1088 q 207 1008 207 1043 q 184 959 207 981 q 129 938 161 938 q 78 960 97 938 q 60 1008 60 982 q 76 1063 60 1038 q 129 1088 93 1088 z "},"Ì":{"ha":285,"x_min":-29,"x_max":229,"o":"m 65 829 q 99 840 76 836 q 146 843 121 843 q 194 840 171 843 q 228 829 217 836 q 228 778 228 826 q 227 656 228 731 q 226 490 226 582 q 226 307 226 397 q 226 136 226 217 q 226 4 226 56 q 189 -10 211 -7 q 143 -14 167 -14 q 92 -10 115 -14 q 63 -1 69 -6 q 61 180 61 78 q 62 393 61 282 q 63 617 63 504 q 65 829 64 729 m 115 1140 q 138 1097 129 1115 q 156 1060 147 1078 q 176 1022 165 1042 q 204 975 188 1001 q 190 949 204 964 q 156 922 175 935 q 115 903 136 910 q 82 903 94 897 q 41 961 65 924 q -28 1058 17 999 q -10 1091 -26 1074 q 28 1122 6 1108 q 74 1141 50 1135 q 115 1140 99 1147 z "},"Í":{"ha":285,"x_min":61,"x_max":304,"o":"m 65 829 q 99 840 76 836 q 146 843 121 843 q 194 840 171 843 q 228 829 217 836 q 228 778 228 826 q 227 656 228 731 q 226 490 226 582 q 226 307 226 397 q 226 136 226 217 q 226 4 226 56 q 189 -10 211 -7 q 143 -14 167 -14 q 92 -10 115 -14 q 63 -1 69 -6 q 61 180 61 78 q 62 393 61 282 q 63 617 63 504 q 65 829 64 729 m 72 975 q 100 1022 89 1001 q 120 1060 111 1042 q 138 1097 129 1078 q 161 1140 147 1115 q 206 1133 182 1142 q 250 1113 229 1125 q 286 1085 271 1100 q 304 1058 301 1071 q 235 961 260 999 q 194 903 211 924 q 156 913 172 908 q 126 926 140 918 q 100 945 113 933 q 72 975 88 957 z "},"Î":{"ha":285,"x_min":-89,"x_max":375,"o":"m 65 829 q 99 840 76 836 q 146 843 121 843 q 194 840 171 843 q 228 829 217 836 q 228 778 228 826 q 227 656 228 731 q 226 490 226 582 q 226 307 226 397 q 226 136 226 217 q 226 4 226 56 q 189 -10 211 -7 q 143 -14 167 -14 q 92 -10 115 -14 q 63 -1 69 -6 q 61 180 61 78 q 62 393 61 282 q 63 617 63 504 q 65 829 64 729 m 47 1093 q 82 1093 57 1093 q 135 1093 107 1093 q 190 1092 164 1093 q 226 1092 215 1092 q 300 1020 263 1058 q 374 947 338 982 q 346 941 367 943 q 300 939 325 939 q 257 941 278 939 q 222 947 236 943 q 202 967 211 958 q 185 984 193 975 q 165 1004 176 993 q 139 1032 154 1015 q 92 983 110 1004 q 58 947 74 961 q 27 940 47 943 q -17 938 7 938 q -59 940 -39 938 q -89 947 -79 943 q -64 975 -81 957 q -28 1014 -47 993 q 10 1056 -10 1035 q 47 1093 31 1078 z "},"Ï":{"ha":285,"x_min":-36,"x_max":324,"o":"m 65 829 q 99 840 76 836 q 146 843 121 843 q 194 840 171 843 q 228 829 217 836 q 228 778 228 826 q 227 656 228 731 q 226 490 226 582 q 226 307 226 397 q 226 136 226 217 q 226 4 226 56 q 189 -10 211 -7 q 143 -14 167 -14 q 92 -10 115 -14 q 63 -1 69 -6 q 61 180 61 78 q 62 393 61 282 q 63 617 63 504 q 65 829 64 729 m 243 1088 q 302 1065 282 1088 q 322 1008 322 1043 q 299 959 322 981 q 243 938 275 938 q 192 960 211 938 q 174 1008 174 982 q 190 1063 174 1038 q 243 1088 207 1088 m 33 1088 q 92 1065 72 1088 q 111 1008 111 1043 q 88 959 111 981 q 33 938 65 938 q -17 960 1 938 q -36 1008 -36 982 q -19 1063 -36 1038 q 33 1088 -3 1088 z "},"Ò":{"ha":506,"x_min":22,"x_max":488,"o":"m 22 408 q 26 499 22 450 q 41 597 31 547 q 69 692 51 646 q 112 774 86 739 q 173 831 138 810 q 254 853 208 853 q 336 832 301 853 q 397 776 371 811 q 441 697 424 742 q 469 601 458 651 q 483 501 479 551 q 488 408 488 451 q 484 338 488 381 q 471 249 481 296 q 444 154 461 201 q 401 69 428 107 q 338 7 375 31 q 251 -15 301 -17 q 166 8 203 -15 q 104 69 129 32 q 63 152 79 106 q 38 245 47 199 q 26 335 29 292 q 22 408 22 378 m 161 408 q 165 335 161 376 q 179 259 169 294 q 207 199 189 224 q 251 175 225 175 q 296 194 278 175 q 325 245 314 213 q 341 320 336 278 q 347 408 346 363 q 343 483 347 440 q 328 565 339 526 q 300 630 318 603 q 256 658 282 657 q 210 638 229 660 q 181 581 192 617 q 165 500 169 546 q 161 408 160 454 m 260 1140 q 283 1097 274 1115 q 301 1060 292 1078 q 321 1022 310 1042 q 349 975 332 1001 q 334 949 349 964 q 300 922 319 935 q 260 903 281 910 q 226 903 239 897 q 185 961 210 924 q 117 1058 161 999 q 134 1091 118 1074 q 172 1122 150 1108 q 219 1141 194 1135 q 260 1140 243 1147 z "},"Ó":{"ha":506,"x_min":22,"x_max":488,"o":"m 22 408 q 26 499 22 450 q 41 597 31 547 q 69 692 51 646 q 112 774 86 739 q 173 831 138 810 q 254 853 208 853 q 336 832 301 853 q 397 776 371 811 q 441 697 424 742 q 469 601 458 651 q 483 501 479 551 q 488 408 488 451 q 484 338 488 381 q 471 249 481 296 q 444 154 461 201 q 401 69 428 107 q 338 7 375 31 q 251 -15 301 -17 q 166 8 203 -15 q 104 69 129 32 q 63 152 79 106 q 38 245 47 199 q 26 335 29 292 q 22 408 22 378 m 161 408 q 165 335 161 376 q 179 259 169 294 q 207 199 189 224 q 251 175 225 175 q 296 194 278 175 q 325 245 314 213 q 341 320 336 278 q 347 408 346 363 q 343 483 347 440 q 328 565 339 526 q 300 630 318 603 q 256 658 282 657 q 210 638 229 660 q 181 581 192 617 q 165 500 169 546 q 161 408 160 454 m 157 975 q 185 1022 174 1001 q 205 1060 196 1042 q 223 1097 214 1078 q 246 1140 232 1115 q 290 1133 267 1142 q 335 1113 314 1125 q 371 1085 356 1100 q 389 1058 386 1071 q 320 961 344 999 q 279 903 296 924 q 241 913 257 908 q 211 926 225 918 q 185 945 197 933 q 157 975 172 957 z "},"Ô":{"ha":506,"x_min":21,"x_max":488,"o":"m 22 408 q 26 499 22 450 q 41 597 31 547 q 69 692 51 646 q 112 774 86 739 q 173 831 138 810 q 254 853 208 853 q 336 832 301 853 q 397 776 371 811 q 441 697 424 742 q 469 601 458 651 q 483 501 479 551 q 488 408 488 451 q 484 338 488 381 q 471 249 481 296 q 444 154 461 201 q 401 69 428 107 q 338 7 375 31 q 251 -15 301 -17 q 166 8 203 -15 q 104 69 129 32 q 63 152 79 106 q 38 245 47 199 q 26 335 29 292 q 22 408 22 378 m 161 408 q 165 335 161 376 q 179 259 169 294 q 207 199 189 224 q 251 175 225 175 q 296 194 278 175 q 325 245 314 213 q 341 320 336 278 q 347 408 346 363 q 343 483 347 440 q 328 565 339 526 q 300 630 318 603 q 256 658 282 657 q 210 638 229 660 q 181 581 192 617 q 165 500 169 546 q 161 408 160 454 m 158 1093 q 193 1093 168 1093 q 247 1093 218 1093 q 301 1092 275 1093 q 338 1092 326 1092 q 411 1020 374 1058 q 485 947 449 982 q 457 941 478 943 q 411 939 436 939 q 368 941 389 939 q 333 947 347 943 q 313 967 322 958 q 296 984 304 975 q 276 1004 288 993 q 250 1032 265 1015 q 203 983 221 1004 q 169 947 185 961 q 138 940 158 943 q 94 938 118 938 q 52 940 72 938 q 22 947 32 943 q 47 975 31 957 q 83 1014 64 993 q 122 1056 101 1035 q 158 1093 142 1078 z "},"Õ":{"ha":506,"x_min":22,"x_max":488,"o":"m 22 408 q 26 499 22 450 q 41 597 31 547 q 69 692 51 646 q 112 774 86 739 q 173 831 138 810 q 254 853 208 853 q 336 832 301 853 q 397 776 371 811 q 441 697 424 742 q 469 601 458 651 q 483 501 479 551 q 488 408 488 451 q 484 338 488 381 q 471 249 481 296 q 444 154 461 201 q 401 69 428 107 q 338 7 375 31 q 251 -15 301 -17 q 166 8 203 -15 q 104 69 129 32 q 63 152 79 106 q 38 245 47 199 q 26 335 29 292 q 22 408 22 378 m 161 408 q 165 335 161 376 q 179 259 169 294 q 207 199 189 224 q 251 175 225 175 q 296 194 278 175 q 325 245 314 213 q 341 320 336 278 q 347 408 346 363 q 343 483 347 440 q 328 565 339 526 q 300 630 318 603 q 256 658 282 657 q 210 638 229 660 q 181 581 192 617 q 165 500 169 546 q 161 408 160 454 m 49 992 q 101 1067 64 1040 q 189 1093 139 1093 q 233 1088 211 1093 q 274 1069 254 1082 q 310 1051 288 1060 q 353 1046 333 1043 q 381 1064 372 1049 q 417 1063 400 1069 q 457 1042 433 1057 q 417 969 447 999 q 343 940 388 940 q 297 947 319 940 q 254 964 274 953 q 208 983 231 975 q 160 983 185 990 q 138 974 151 981 q 118 953 125 967 q 71 960 93 947 q 49 992 49 974 z "},"Ö":{"ha":506,"x_min":22,"x_max":488,"o":"m 22 408 q 26 499 22 450 q 41 597 31 547 q 69 692 51 646 q 112 774 86 739 q 173 831 138 810 q 254 853 208 853 q 336 832 301 853 q 397 776 371 811 q 441 697 424 742 q 469 601 458 651 q 483 501 479 551 q 488 408 488 451 q 484 338 488 381 q 471 249 481 296 q 444 154 461 201 q 401 69 428 107 q 338 7 375 31 q 251 -15 301 -17 q 166 8 203 -15 q 104 69 129 32 q 63 152 79 106 q 38 245 47 199 q 26 335 29 292 q 22 408 22 378 m 161 408 q 165 335 161 376 q 179 259 169 294 q 207 199 189 224 q 251 175 225 175 q 296 194 278 175 q 325 245 314 213 q 341 320 336 278 q 347 408 346 363 q 343 483 347 440 q 328 565 339 526 q 300 630 318 603 q 256 658 282 657 q 210 638 229 660 q 181 581 192 617 q 165 500 169 546 q 161 408 160 454 m 354 1088 q 413 1065 393 1088 q 433 1008 433 1043 q 410 959 433 981 q 354 938 386 938 q 303 960 322 938 q 285 1008 285 982 q 301 1063 285 1038 q 354 1088 318 1088 m 144 1088 q 203 1065 183 1088 q 222 1008 222 1043 q 199 959 222 981 q 144 938 176 938 q 94 960 113 938 q 75 1008 75 982 q 92 1063 75 1038 q 144 1088 108 1088 z "},"Ù":{"ha":558,"x_min":42,"x_max":519,"o":"m 74 831 q 138 839 103 839 q 221 822 182 839 q 203 683 213 757 q 190 536 194 610 q 185 394 185 463 q 196 272 186 326 q 225 173 207 214 q 276 132 243 132 q 333 174 314 132 q 361 278 353 217 q 369 410 368 340 q 365 553 369 481 q 353 695 361 625 q 335 826 346 765 q 379 838 356 835 q 425 840 403 840 q 461 839 446 840 q 479 836 476 838 q 502 695 493 778 q 515 525 511 613 q 517 356 519 438 q 506 217 515 274 q 481 123 497 167 q 439 47 465 79 q 374 -6 413 14 q 282 -25 336 -25 q 186 -5 226 -25 q 119 51 146 15 q 76 133 92 86 q 51 231 60 179 q 42 378 42 299 q 47 539 42 458 q 60 695 53 619 q 74 831 68 771 m 288 1140 q 310 1097 301 1115 q 328 1060 319 1078 q 349 1022 338 1042 q 376 975 360 1001 q 362 949 376 964 q 328 922 347 935 q 288 903 308 910 q 254 903 267 897 q 213 961 238 924 q 144 1058 189 999 q 162 1091 146 1074 q 200 1122 178 1108 q 247 1141 222 1135 q 288 1140 271 1147 z "},"Ú":{"ha":558,"x_min":42,"x_max":519,"o":"m 74 831 q 138 839 103 839 q 221 822 182 839 q 203 683 213 757 q 190 536 194 610 q 185 394 185 463 q 196 272 186 326 q 225 173 207 214 q 276 132 243 132 q 333 174 314 132 q 361 278 353 217 q 369 410 368 340 q 365 553 369 481 q 353 695 361 625 q 335 826 346 765 q 379 838 356 835 q 425 840 403 840 q 461 839 446 840 q 479 836 476 838 q 502 695 493 778 q 515 525 511 613 q 517 356 519 438 q 506 217 515 274 q 481 123 497 167 q 439 47 465 79 q 374 -6 413 14 q 282 -25 336 -25 q 186 -5 226 -25 q 119 51 146 15 q 76 133 92 86 q 51 231 60 179 q 42 378 42 299 q 47 539 42 458 q 60 695 53 619 q 74 831 68 771 m 183 975 q 211 1022 200 1001 q 231 1060 222 1042 q 249 1097 240 1078 q 272 1140 258 1115 q 317 1133 293 1142 q 361 1113 340 1125 q 397 1085 382 1100 q 415 1058 413 1071 q 347 961 371 999 q 306 903 322 924 q 267 913 283 908 q 238 926 251 918 q 211 945 224 933 q 183 975 199 957 z "},"Û":{"ha":558,"x_min":42,"x_max":519,"o":"m 74 831 q 138 839 103 839 q 221 822 182 839 q 203 683 213 757 q 190 536 194 610 q 185 394 185 463 q 196 272 186 326 q 225 173 207 214 q 276 132 243 132 q 333 174 314 132 q 361 278 353 217 q 369 410 368 340 q 365 553 369 481 q 353 695 361 625 q 335 826 346 765 q 379 838 356 835 q 425 840 403 840 q 461 839 446 840 q 479 836 476 838 q 502 695 493 778 q 515 525 511 613 q 517 356 519 438 q 506 217 515 274 q 481 123 497 167 q 439 47 465 79 q 374 -6 413 14 q 282 -25 336 -25 q 186 -5 226 -25 q 119 51 146 15 q 76 133 92 86 q 51 231 60 179 q 42 378 42 299 q 47 539 42 458 q 60 695 53 619 q 74 831 68 771 m 185 1093 q 219 1093 194 1093 q 273 1093 244 1093 q 327 1092 301 1093 q 364 1092 353 1092 q 438 1020 400 1058 q 511 947 475 982 q 483 941 504 943 q 438 939 463 939 q 394 941 415 939 q 360 947 374 943 q 340 967 349 958 q 322 984 331 975 q 303 1004 314 993 q 276 1032 292 1015 q 229 983 247 1004 q 196 947 211 961 q 165 940 185 943 q 121 938 144 938 q 78 940 99 938 q 49 947 58 943 q 74 975 57 957 q 109 1014 90 993 q 148 1056 128 1035 q 185 1093 168 1078 z "},"Ü":{"ha":558,"x_min":42,"x_max":519,"o":"m 74 831 q 138 839 103 839 q 221 822 182 839 q 203 683 213 757 q 190 536 194 610 q 185 394 185 463 q 196 272 186 326 q 225 173 207 214 q 276 132 243 132 q 333 174 314 132 q 361 278 353 217 q 369 410 368 340 q 365 553 369 481 q 353 695 361 625 q 335 826 346 765 q 379 838 356 835 q 425 840 403 840 q 461 839 446 840 q 479 836 476 838 q 502 695 493 778 q 515 525 511 613 q 517 356 519 438 q 506 217 515 274 q 481 123 497 167 q 439 47 465 79 q 374 -6 413 14 q 282 -25 336 -25 q 186 -5 226 -25 q 119 51 146 15 q 76 133 92 86 q 51 231 60 179 q 42 378 42 299 q 47 539 42 458 q 60 695 53 619 q 74 831 68 771 m 381 1088 q 440 1065 419 1088 q 460 1008 460 1043 q 436 959 460 981 q 381 938 413 938 q 330 960 349 938 q 311 1008 311 982 q 328 1063 311 1038 q 381 1088 344 1088 m 171 1088 q 229 1065 210 1088 q 249 1008 249 1043 q 226 959 249 981 q 171 938 203 938 q 120 960 139 938 q 101 1008 101 982 q 118 1063 101 1038 q 171 1088 135 1088 z "},"Ÿ":{"ha":558,"x_min":17,"x_max":532,"o":"m 17 825 q 49 838 28 833 q 93 843 69 843 q 136 839 115 843 q 171 826 157 835 q 193 751 182 792 q 216 669 204 710 q 239 591 228 628 q 260 529 250 554 q 270 525 263 526 q 285 529 278 524 q 308 599 296 561 q 334 676 321 636 q 360 757 347 717 q 385 832 374 797 q 414 842 396 839 q 451 846 432 846 q 498 842 475 846 q 532 829 521 838 q 479 692 504 756 q 431 568 454 628 q 388 451 408 508 q 347 333 367 394 q 347 278 347 314 q 348 199 347 243 q 351 104 349 154 q 358 6 353 54 q 327 -3 357 3 q 261 -10 297 -10 q 224 -7 242 -10 q 193 3 206 -4 q 197 163 196 78 q 201 326 199 249 q 160 440 183 376 q 111 569 136 503 q 62 703 86 636 q 17 825 38 769 m 381 1088 q 440 1065 419 1088 q 460 1008 460 1043 q 436 959 460 981 q 381 938 413 938 q 330 960 349 938 q 311 1008 311 982 q 328 1063 311 1038 q 381 1088 344 1088 m 171 1088 q 229 1065 210 1088 q 249 1008 249 1043 q 226 959 249 981 q 171 938 203 938 q 120 960 139 938 q 101 1008 101 982 q 118 1063 101 1038 q 171 1088 135 1088 z "},"Ý":{"ha":558,"x_min":17,"x_max":532,"o":"m 17 825 q 49 838 28 833 q 93 843 69 843 q 136 839 115 843 q 171 826 157 835 q 193 751 182 792 q 216 669 204 710 q 239 591 228 628 q 260 529 250 554 q 270 525 263 526 q 285 529 278 524 q 308 599 296 561 q 334 676 321 636 q 360 757 347 717 q 385 832 374 797 q 414 842 396 839 q 451 846 432 846 q 498 842 475 846 q 532 829 521 838 q 479 692 504 756 q 431 568 454 628 q 388 451 408 508 q 347 333 367 394 q 347 278 347 314 q 348 199 347 243 q 351 104 349 154 q 358 6 353 54 q 327 -3 357 3 q 261 -10 297 -10 q 224 -7 242 -10 q 193 3 206 -4 q 197 163 196 78 q 201 326 199 249 q 160 440 183 376 q 111 569 136 503 q 62 703 86 636 q 17 825 38 769 m 192 975 q 219 1022 208 1001 q 240 1060 231 1042 q 258 1097 249 1078 q 281 1140 267 1115 q 325 1133 301 1142 q 369 1113 349 1125 q 406 1085 390 1100 q 424 1058 421 1071 q 355 961 379 999 q 314 903 331 924 q 276 913 292 908 q 246 926 260 918 q 219 945 232 933 q 192 975 207 957 z "},"à":{"ha":500,"x_min":17,"x_max":482,"o":"m 171 671 q 203 678 182 675 q 249 682 225 682 q 285 679 267 682 q 318 668 303 676 q 399 345 356 513 q 482 1 442 178 q 448 -6 469 -4 q 404 -8 426 -8 q 363 -6 381 -8 q 342 3 344 -4 q 323 72 331 42 q 304 133 315 103 q 276 135 289 135 q 250 136 264 136 q 219 136 236 136 q 179 135 203 136 q 162 62 168 96 q 151 4 156 28 q 129 -4 147 1 q 86 -10 111 -10 q 52 -6 69 -10 q 17 8 35 -3 q 45 138 32 81 q 70 246 58 196 q 93 342 82 296 q 116 438 104 389 q 141 544 128 488 q 171 671 154 601 m 293 250 q 272 359 285 307 q 244 479 260 411 q 231 415 236 442 q 219 365 225 389 q 210 313 214 340 q 199 249 206 286 q 244 249 225 249 q 277 249 263 249 q 293 250 292 250 m 222 974 q 245 930 236 949 q 263 893 254 911 q 283 855 272 875 q 311 808 294 835 q 297 783 311 797 q 263 756 282 768 q 222 737 243 743 q 189 736 201 731 q 148 794 172 757 q 79 892 124 832 q 97 924 81 907 q 135 955 113 942 q 181 974 157 968 q 222 974 206 981 z "},"â":{"ha":500,"x_min":17,"x_max":482,"o":"m 171 671 q 203 678 182 675 q 249 682 225 682 q 285 679 267 682 q 318 668 303 676 q 399 345 356 513 q 482 1 442 178 q 448 -6 469 -4 q 404 -8 426 -8 q 363 -6 381 -8 q 342 3 344 -4 q 323 72 331 42 q 304 133 315 103 q 276 135 289 135 q 250 136 264 136 q 219 136 236 136 q 179 135 203 136 q 162 62 168 96 q 151 4 156 28 q 129 -4 147 1 q 86 -10 111 -10 q 52 -6 69 -10 q 17 8 35 -3 q 45 138 32 81 q 70 246 58 196 q 93 342 82 296 q 116 438 104 389 q 141 544 128 488 q 171 671 154 601 m 293 250 q 272 359 285 307 q 244 479 260 411 q 231 415 236 442 q 219 365 225 389 q 210 313 214 340 q 199 249 206 286 q 244 249 225 249 q 277 249 263 249 q 293 250 292 250 m 156 926 q 190 926 165 926 q 244 926 215 926 q 298 926 272 926 q 335 925 324 925 q 408 853 371 892 q 482 781 446 815 q 454 774 475 776 q 408 772 433 772 q 365 774 386 772 q 331 781 344 776 q 310 800 319 792 q 293 817 301 808 q 274 838 285 826 q 247 865 263 849 q 200 816 218 838 q 167 781 182 794 q 135 774 156 776 q 92 771 115 771 q 49 774 69 771 q 19 781 29 776 q 44 808 28 790 q 80 847 61 826 q 119 890 99 868 q 156 926 139 911 z "},"ã":{"ha":500,"x_min":17,"x_max":482,"o":"m 171 671 q 203 678 182 675 q 249 682 225 682 q 285 679 267 682 q 318 668 303 676 q 399 345 356 513 q 482 1 442 178 q 448 -6 469 -4 q 404 -8 426 -8 q 363 -6 381 -8 q 342 3 344 -4 q 323 72 331 42 q 304 133 315 103 q 276 135 289 135 q 250 136 264 136 q 219 136 236 136 q 179 135 203 136 q 162 62 168 96 q 151 4 156 28 q 129 -4 147 1 q 86 -10 111 -10 q 52 -6 69 -10 q 17 8 35 -3 q 45 138 32 81 q 70 246 58 196 q 93 342 82 296 q 116 438 104 389 q 141 544 128 488 q 171 671 154 601 m 293 250 q 272 359 285 307 q 244 479 260 411 q 231 415 236 442 q 219 365 225 389 q 210 313 214 340 q 199 249 206 286 q 244 249 225 249 q 277 249 263 249 q 293 250 292 250 m 46 825 q 99 900 61 874 q 186 926 136 926 q 230 921 208 926 q 271 903 251 915 q 308 885 285 893 q 350 879 331 876 q 378 897 369 882 q 414 897 397 903 q 454 875 431 890 q 415 803 444 832 q 340 774 385 774 q 294 780 317 774 q 251 797 271 786 q 205 816 228 808 q 157 817 182 824 q 135 807 149 814 q 115 786 122 800 q 68 794 90 781 q 46 825 46 807 z "},"ä":{"ha":500,"x_min":17,"x_max":482,"o":"m 171 671 q 203 678 182 675 q 249 682 225 682 q 285 679 267 682 q 318 668 303 676 q 399 345 356 513 q 482 1 442 178 q 448 -6 469 -4 q 404 -8 426 -8 q 363 -6 381 -8 q 342 3 344 -4 q 323 72 331 42 q 304 133 315 103 q 276 135 289 135 q 250 136 264 136 q 219 136 236 136 q 179 135 203 136 q 162 62 168 96 q 151 4 156 28 q 129 -4 147 1 q 86 -10 111 -10 q 52 -6 69 -10 q 17 8 35 -3 q 45 138 32 81 q 70 246 58 196 q 93 342 82 296 q 116 438 104 389 q 141 544 128 488 q 171 671 154 601 m 293 250 q 272 359 285 307 q 244 479 260 411 q 231 415 236 442 q 219 365 225 389 q 210 313 214 340 q 199 249 206 286 q 244 249 225 249 q 277 249 263 249 q 293 250 292 250 m 351 921 q 410 899 390 921 q 431 842 431 876 q 407 792 431 814 q 351 771 383 771 q 301 793 319 771 q 282 842 282 815 q 299 896 282 871 q 351 921 315 921 m 142 921 q 200 899 181 921 q 219 842 219 876 q 197 792 219 814 q 142 771 174 771 q 91 793 110 771 q 72 842 72 815 q 89 896 72 871 q 142 921 106 921 z "},"è":{"ha":421,"x_min":58,"x_max":390,"o":"m 61 667 q 122 667 85 667 q 201 667 158 667 q 288 669 244 668 q 367 669 331 669 q 375 642 372 660 q 378 605 378 625 q 378 565 379 585 q 372 533 376 546 q 326 534 351 533 q 276 535 301 535 q 228 535 251 535 q 189 533 206 535 q 187 478 188 503 q 189 422 186 454 q 221 419 194 419 q 278 418 247 418 q 336 418 310 418 q 368 417 363 418 q 376 346 378 385 q 369 281 374 307 q 271 280 311 279 q 189 278 231 281 q 188 191 188 225 q 189 136 189 157 q 237 136 215 136 q 281 136 258 136 q 326 135 303 136 q 378 135 349 135 q 388 106 385 125 q 390 67 390 88 q 386 28 389 47 q 378 0 383 10 q 297 0 339 0 q 213 0 254 0 q 132 0 171 0 q 60 0 93 0 q 59 157 60 69 q 58 335 58 244 q 59 512 58 425 q 61 667 60 599 m 219 974 q 242 930 233 949 q 260 893 251 911 q 281 855 269 875 q 308 808 292 835 q 294 783 308 797 q 260 756 279 768 q 219 737 240 743 q 186 736 199 731 q 145 794 169 757 q 76 892 121 832 q 94 924 78 907 q 132 955 110 942 q 178 974 154 968 q 219 974 203 981 z "},"é":{"ha":421,"x_min":58,"x_max":390,"o":"m 61 667 q 122 667 85 667 q 201 667 158 667 q 288 669 244 668 q 367 669 331 669 q 375 642 372 660 q 378 605 378 625 q 378 565 379 585 q 372 533 376 546 q 326 534 351 533 q 276 535 301 535 q 228 535 251 535 q 189 533 206 535 q 187 478 188 503 q 189 422 186 454 q 221 419 194 419 q 278 418 247 418 q 336 418 310 418 q 368 417 363 418 q 376 346 378 385 q 369 281 374 307 q 271 280 311 279 q 189 278 231 281 q 188 191 188 225 q 189 136 189 157 q 237 136 215 136 q 281 136 258 136 q 326 135 303 136 q 378 135 349 135 q 388 106 385 125 q 390 67 390 88 q 386 28 389 47 q 378 0 383 10 q 297 0 339 0 q 213 0 254 0 q 132 0 171 0 q 60 0 93 0 q 59 157 60 69 q 58 335 58 244 q 59 512 58 425 q 61 667 60 599 m 115 808 q 143 855 132 835 q 163 893 154 875 q 181 930 172 911 q 204 974 190 949 q 249 967 225 975 q 293 946 272 958 q 329 919 314 933 q 347 892 344 904 q 278 794 303 832 q 238 736 254 757 q 199 747 215 742 q 169 759 183 751 q 143 778 156 767 q 115 808 131 790 z "},"ê":{"ha":421,"x_min":-21,"x_max":443,"o":"m 61 667 q 122 667 85 667 q 201 667 158 667 q 288 669 244 668 q 367 669 331 669 q 375 642 372 660 q 378 605 378 625 q 378 565 379 585 q 372 533 376 546 q 326 534 351 533 q 276 535 301 535 q 228 535 251 535 q 189 533 206 535 q 187 478 188 503 q 189 422 186 454 q 221 419 194 419 q 278 418 247 418 q 336 418 310 418 q 368 417 363 418 q 376 346 378 385 q 369 281 374 307 q 271 280 311 279 q 189 278 231 281 q 188 191 188 225 q 189 136 189 157 q 237 136 215 136 q 281 136 258 136 q 326 135 303 136 q 378 135 349 135 q 388 106 385 125 q 390 67 390 88 q 386 28 389 47 q 378 0 383 10 q 297 0 339 0 q 213 0 254 0 q 132 0 171 0 q 60 0 93 0 q 59 157 60 69 q 58 335 58 244 q 59 512 58 425 q 61 667 60 599 m 115 926 q 150 926 125 926 q 203 926 175 926 q 258 926 232 926 q 294 925 283 925 q 368 853 331 892 q 442 781 406 815 q 414 774 435 776 q 368 772 393 772 q 325 774 346 772 q 290 781 304 776 q 270 800 279 792 q 253 817 261 808 q 233 838 244 826 q 207 865 222 849 q 160 816 178 838 q 126 781 142 794 q 95 774 115 776 q 51 771 75 771 q 9 774 29 771 q -21 781 -11 776 q 4 808 -12 790 q 40 847 21 826 q 78 890 58 868 q 115 926 99 911 z "},"ë":{"ha":421,"x_min":32,"x_max":392,"o":"m 61 667 q 122 667 85 667 q 201 667 158 667 q 288 669 244 668 q 367 669 331 669 q 375 642 372 660 q 378 605 378 625 q 378 565 379 585 q 372 533 376 546 q 326 534 351 533 q 276 535 301 535 q 228 535 251 535 q 189 533 206 535 q 187 478 188 503 q 189 422 186 454 q 221 419 194 419 q 278 418 247 418 q 336 418 310 418 q 368 417 363 418 q 376 346 378 385 q 369 281 374 307 q 271 280 311 279 q 189 278 231 281 q 188 191 188 225 q 189 136 189 157 q 237 136 215 136 q 281 136 258 136 q 326 135 303 136 q 378 135 349 135 q 388 106 385 125 q 390 67 390 88 q 386 28 389 47 q 378 0 383 10 q 297 0 339 0 q 213 0 254 0 q 132 0 171 0 q 60 0 93 0 q 59 157 60 69 q 58 335 58 244 q 59 512 58 425 q 61 667 60 599 m 311 921 q 370 899 350 921 q 390 842 390 876 q 367 792 390 814 q 311 771 343 771 q 260 793 279 771 q 242 842 242 815 q 258 896 242 871 q 311 921 275 921 m 101 921 q 160 899 140 921 q 179 842 179 876 q 156 792 179 814 q 101 771 133 771 q 51 793 69 771 q 32 842 32 815 q 49 896 32 871 q 101 921 65 921 z "},"ì":{"ha":275,"x_min":-31,"x_max":218,"o":"m 64 668 q 97 678 75 675 q 144 681 119 681 q 186 678 167 681 q 217 669 206 675 q 218 583 218 633 q 218 474 218 533 q 217 352 218 415 q 217 227 217 289 q 217 108 217 165 q 218 4 217 50 q 181 -7 201 -4 q 140 -10 160 -10 q 92 -6 113 -10 q 64 0 71 -3 q 61 163 63 75 q 60 341 60 251 q 61 515 60 431 q 64 668 63 600 m 113 974 q 135 930 126 949 q 153 893 144 911 q 174 855 163 875 q 201 808 185 835 q 187 783 201 797 q 153 756 172 768 q 113 737 133 743 q 79 736 92 731 q 38 794 63 757 q -31 892 14 832 q -13 924 -29 907 q 25 955 3 942 q 72 974 47 968 q 113 974 96 981 z "},"í":{"ha":275,"x_min":60,"x_max":311,"o":"m 64 668 q 97 678 75 675 q 144 681 119 681 q 186 678 167 681 q 217 669 206 675 q 218 583 218 633 q 218 474 218 533 q 217 352 218 415 q 217 227 217 289 q 217 108 217 165 q 218 4 217 50 q 181 -7 201 -4 q 140 -10 160 -10 q 92 -6 113 -10 q 64 0 71 -3 q 61 163 63 75 q 60 341 60 251 q 61 515 60 431 q 64 668 63 600 m 78 808 q 106 855 94 835 q 126 893 117 875 q 144 930 135 911 q 167 974 153 949 q 211 967 188 975 q 256 946 235 958 q 292 919 276 933 q 310 892 307 904 q 241 794 265 832 q 200 736 217 757 q 162 747 178 742 q 132 759 146 751 q 106 778 118 767 q 78 808 93 790 z "},"î":{"ha":275,"x_min":-94,"x_max":369,"o":"m 64 668 q 97 678 75 675 q 144 681 119 681 q 186 678 167 681 q 217 669 206 675 q 218 583 218 633 q 218 474 218 533 q 217 352 218 415 q 217 227 217 289 q 217 108 217 165 q 218 4 217 50 q 181 -7 201 -4 q 140 -10 160 -10 q 92 -6 113 -10 q 64 0 71 -3 q 61 163 63 75 q 60 341 60 251 q 61 515 60 431 q 64 668 63 600 m 43 926 q 78 926 53 926 q 131 926 103 926 q 185 926 160 926 q 222 925 211 925 q 296 853 258 892 q 369 781 333 815 q 342 774 363 776 q 296 772 321 772 q 253 774 274 772 q 218 781 232 776 q 198 800 207 792 q 181 817 189 808 q 161 838 172 826 q 135 865 150 849 q 88 816 106 838 q 54 781 69 794 q 23 774 43 776 q -21 771 3 771 q -63 774 -43 771 q -93 781 -83 776 q -68 808 -85 790 q -33 847 -51 826 q 6 890 -14 868 q 43 926 26 911 z "},"ï":{"ha":275,"x_min":-42,"x_max":318,"o":"m 64 668 q 97 678 75 675 q 144 681 119 681 q 186 678 167 681 q 217 669 206 675 q 218 583 218 633 q 218 474 218 533 q 217 352 218 415 q 217 227 217 289 q 217 108 217 165 q 218 4 217 50 q 181 -7 201 -4 q 140 -10 160 -10 q 92 -6 113 -10 q 64 0 71 -3 q 61 163 63 75 q 60 341 60 251 q 61 515 60 431 q 64 668 63 600 m 239 921 q 298 899 278 921 q 318 842 318 876 q 294 792 318 814 q 239 771 271 771 q 188 793 207 771 q 169 842 169 815 q 186 896 169 871 q 239 921 203 921 m 29 921 q 88 899 68 921 q 107 842 107 876 q 84 792 107 814 q 29 771 61 771 q -22 793 -3 771 q -40 842 -40 815 q -24 896 -40 871 q 29 921 -7 921 z "},"ò":{"ha":508,"x_min":21,"x_max":488,"o":"m 21 325 q 33 438 21 375 q 72 557 44 501 q 144 651 99 613 q 256 689 189 689 q 357 654 314 689 q 429 567 400 619 q 473 453 458 514 q 488 338 488 392 q 477 226 488 279 q 447 128 467 172 q 402 53 428 85 q 344 3 376 21 q 303 -16 325 -8 q 254 -24 281 -24 q 147 4 208 -24 q 101 47 124 15 q 60 121 78 78 q 32 217 43 164 q 21 325 21 269 m 161 324 q 167 267 161 297 q 183 211 172 238 q 211 163 194 185 q 253 132 228 142 q 289 140 272 124 q 319 185 306 156 q 340 253 332 214 q 350 329 349 292 q 344 390 350 356 q 326 456 338 425 q 297 508 314 486 q 257 529 279 529 q 221 512 239 529 q 190 465 203 494 q 169 399 176 436 q 161 324 161 361 m 249 974 q 272 930 263 949 q 290 893 281 911 q 310 855 299 875 q 338 808 321 835 q 323 783 338 797 q 289 756 308 768 q 249 737 269 743 q 215 736 228 731 q 174 794 199 757 q 106 892 150 832 q 123 924 107 907 q 161 955 139 942 q 208 974 183 968 q 249 974 232 981 z "},"ó":{"ha":508,"x_min":21,"x_max":488,"o":"m 21 325 q 33 438 21 375 q 72 557 44 501 q 144 651 99 613 q 256 689 189 689 q 357 654 314 689 q 429 567 400 619 q 473 453 458 514 q 488 338 488 392 q 477 226 488 279 q 447 128 467 172 q 402 53 428 85 q 344 3 376 21 q 303 -16 325 -8 q 254 -24 281 -24 q 147 4 208 -24 q 101 47 124 15 q 60 121 78 78 q 32 217 43 164 q 21 325 21 269 m 161 324 q 167 267 161 297 q 183 211 172 238 q 211 163 194 185 q 253 132 228 142 q 289 140 272 124 q 319 185 306 156 q 340 253 332 214 q 350 329 349 292 q 344 390 350 356 q 326 456 338 425 q 297 508 314 486 q 257 529 279 529 q 221 512 239 529 q 190 465 203 494 q 169 399 176 436 q 161 324 161 361 m 165 808 q 193 855 182 835 q 213 893 204 875 q 231 930 222 911 q 254 974 240 949 q 299 967 275 975 q 343 946 322 958 q 379 919 364 933 q 397 892 394 904 q 328 794 353 832 q 288 736 304 757 q 249 747 265 742 q 219 759 233 751 q 193 778 206 767 q 165 808 181 790 z "},"ô":{"ha":508,"x_min":21,"x_max":488,"o":"m 21 325 q 33 438 21 375 q 72 557 44 501 q 144 651 99 613 q 256 689 189 689 q 357 654 314 689 q 429 567 400 619 q 473 453 458 514 q 488 338 488 392 q 477 226 488 279 q 447 128 467 172 q 402 53 428 85 q 344 3 376 21 q 303 -16 325 -8 q 254 -24 281 -24 q 147 4 208 -24 q 101 47 124 15 q 60 121 78 78 q 32 217 43 164 q 21 325 21 269 m 161 324 q 167 267 161 297 q 183 211 172 238 q 211 163 194 185 q 253 132 228 142 q 289 140 272 124 q 319 185 306 156 q 340 253 332 214 q 350 329 349 292 q 344 390 350 356 q 326 456 338 425 q 297 508 314 486 q 257 529 279 529 q 221 512 239 529 q 190 465 203 494 q 169 399 176 436 q 161 324 161 361 m 160 926 q 194 926 169 926 q 248 926 219 926 q 302 926 276 926 q 339 925 328 925 q 413 853 375 892 q 486 781 450 815 q 458 774 479 776 q 413 772 438 772 q 369 774 390 772 q 335 781 349 776 q 315 800 324 792 q 297 817 306 808 q 278 838 289 826 q 251 865 267 849 q 204 816 222 838 q 171 781 186 794 q 140 774 160 776 q 96 771 119 771 q 53 774 74 771 q 24 781 33 776 q 49 808 32 790 q 84 847 65 826 q 123 890 103 868 q 160 926 143 911 z "},"õ":{"ha":508,"x_min":21,"x_max":488,"o":"m 21 325 q 33 438 21 375 q 72 557 44 501 q 144 651 99 613 q 256 689 189 689 q 357 654 314 689 q 429 567 400 619 q 473 453 458 514 q 488 338 488 392 q 477 226 488 279 q 447 128 467 172 q 402 53 428 85 q 344 3 376 21 q 303 -16 325 -8 q 254 -24 281 -24 q 147 4 208 -24 q 101 47 124 15 q 60 121 78 78 q 32 217 43 164 q 21 325 21 269 m 161 324 q 167 267 161 297 q 183 211 172 238 q 211 163 194 185 q 253 132 228 142 q 289 140 272 124 q 319 185 306 156 q 340 253 332 214 q 350 329 349 292 q 344 390 350 356 q 326 456 338 425 q 297 508 314 486 q 257 529 279 529 q 221 512 239 529 q 190 465 203 494 q 169 399 176 436 q 161 324 161 361 m 50 825 q 103 900 65 874 q 190 926 140 926 q 234 921 213 926 q 275 903 256 915 q 312 885 289 893 q 354 879 335 876 q 382 897 374 882 q 418 897 401 903 q 458 875 435 890 q 419 803 449 832 q 344 774 389 774 q 298 780 321 774 q 256 797 275 786 q 209 816 232 808 q 161 817 186 824 q 140 807 153 814 q 119 786 126 800 q 72 794 94 781 q 50 825 50 807 z "},"ö":{"ha":508,"x_min":21,"x_max":488,"o":"m 21 325 q 33 438 21 375 q 72 557 44 501 q 144 651 99 613 q 256 689 189 689 q 357 654 314 689 q 429 567 400 619 q 473 453 458 514 q 488 338 488 392 q 477 226 488 279 q 447 128 467 172 q 402 53 428 85 q 344 3 376 21 q 303 -16 325 -8 q 254 -24 281 -24 q 147 4 208 -24 q 101 47 124 15 q 60 121 78 78 q 32 217 43 164 q 21 325 21 269 m 161 324 q 167 267 161 297 q 183 211 172 238 q 211 163 194 185 q 253 132 228 142 q 289 140 272 124 q 319 185 306 156 q 340 253 332 214 q 350 329 349 292 q 344 390 350 356 q 326 456 338 425 q 297 508 314 486 q 257 529 279 529 q 221 512 239 529 q 190 465 203 494 q 169 399 176 436 q 161 324 161 361 m 356 921 q 415 899 394 921 q 435 842 435 876 q 411 792 435 814 q 356 771 388 771 q 305 793 324 771 q 286 842 286 815 q 303 896 286 871 q 356 921 319 921 m 146 921 q 204 899 185 921 q 224 842 224 876 q 201 792 224 814 q 146 771 178 771 q 95 793 114 771 q 76 842 76 815 q 93 896 76 871 q 146 921 110 921 z "},"ù":{"ha":533,"x_min":43,"x_max":493,"o":"m 76 668 q 104 673 90 671 q 133 675 118 675 q 213 660 174 675 q 200 552 206 596 q 190 470 194 508 q 184 393 186 432 q 182 300 182 354 q 184 258 182 288 q 194 198 186 229 q 217 142 201 167 q 263 115 233 118 q 302 130 286 114 q 328 172 318 146 q 342 231 338 199 q 349 297 347 264 q 344 462 351 364 q 322 660 338 560 q 365 669 342 667 q 409 672 389 672 q 444 671 429 672 q 463 668 460 669 q 476 557 469 618 q 486 440 482 496 q 492 342 490 383 q 493 289 493 300 q 491 236 493 268 q 483 169 489 204 q 463 100 476 135 q 424 38 449 65 q 361 -8 399 10 q 268 -25 324 -25 q 173 -7 211 -25 q 110 40 135 11 q 73 103 86 68 q 53 174 60 139 q 47 241 47 210 q 44 293 46 272 q 44 384 43 342 q 50 470 46 426 q 60 562 54 514 q 76 668 67 610 m 267 974 q 290 930 281 949 q 308 893 299 911 q 328 855 317 875 q 356 808 339 835 q 341 783 356 797 q 307 756 326 768 q 267 737 288 743 q 233 736 246 731 q 192 794 217 757 q 124 892 168 832 q 141 924 125 907 q 179 955 157 942 q 226 974 201 968 q 267 974 250 981 z "},"ú":{"ha":533,"x_min":43,"x_max":493,"o":"m 76 668 q 104 673 90 671 q 133 675 118 675 q 213 660 174 675 q 200 552 206 596 q 190 470 194 508 q 184 393 186 432 q 182 300 182 354 q 184 258 182 288 q 194 198 186 229 q 217 142 201 167 q 263 115 233 118 q 302 130 286 114 q 328 172 318 146 q 342 231 338 199 q 349 297 347 264 q 344 462 351 364 q 322 660 338 560 q 365 669 342 667 q 409 672 389 672 q 444 671 429 672 q 463 668 460 669 q 476 557 469 618 q 486 440 482 496 q 492 342 490 383 q 493 289 493 300 q 491 236 493 268 q 483 169 489 204 q 463 100 476 135 q 424 38 449 65 q 361 -8 399 10 q 268 -25 324 -25 q 173 -7 211 -25 q 110 40 135 11 q 73 103 86 68 q 53 174 60 139 q 47 241 47 210 q 44 293 46 272 q 44 384 43 342 q 50 470 46 426 q 60 562 54 514 q 76 668 67 610 m 179 808 q 207 855 196 835 q 227 893 218 875 q 245 930 236 911 q 268 974 254 949 q 313 967 289 975 q 357 946 336 958 q 393 919 378 933 q 411 892 408 904 q 342 794 367 832 q 301 736 318 757 q 263 747 279 742 q 233 759 247 751 q 207 778 219 767 q 179 808 194 790 z "},"û":{"ha":533,"x_min":35,"x_max":499,"o":"m 76 668 q 104 673 90 671 q 133 675 118 675 q 213 660 174 675 q 200 552 206 596 q 190 470 194 508 q 184 393 186 432 q 182 300 182 354 q 184 258 182 288 q 194 198 186 229 q 217 142 201 167 q 263 115 233 118 q 302 130 286 114 q 328 172 318 146 q 342 231 338 199 q 349 297 347 264 q 344 462 351 364 q 322 660 338 560 q 365 669 342 667 q 409 672 389 672 q 444 671 429 672 q 463 668 460 669 q 476 557 469 618 q 486 440 482 496 q 492 342 490 383 q 493 289 493 300 q 491 236 493 268 q 483 169 489 204 q 463 100 476 135 q 424 38 449 65 q 361 -8 399 10 q 268 -25 324 -25 q 173 -7 211 -25 q 110 40 135 11 q 73 103 86 68 q 53 174 60 139 q 47 241 47 210 q 44 293 46 272 q 44 384 43 342 q 50 470 46 426 q 60 562 54 514 q 76 668 67 610 m 172 926 q 207 926 182 926 q 260 926 232 926 q 315 926 289 926 q 351 925 340 925 q 425 853 388 892 q 499 781 463 815 q 471 774 492 776 q 425 772 450 772 q 382 774 403 772 q 347 781 361 776 q 327 800 336 792 q 310 817 318 808 q 290 838 301 826 q 264 865 279 849 q 217 816 235 838 q 183 781 199 794 q 152 774 172 776 q 108 771 132 771 q 66 774 86 771 q 36 781 46 776 q 61 808 44 790 q 97 847 78 826 q 135 890 115 868 q 172 926 156 911 z "},"ü":{"ha":533,"x_min":43,"x_max":493,"o":"m 76 668 q 104 673 90 671 q 133 675 118 675 q 213 660 174 675 q 200 552 206 596 q 190 470 194 508 q 184 393 186 432 q 182 300 182 354 q 184 258 182 288 q 194 198 186 229 q 217 142 201 167 q 263 115 233 118 q 302 130 286 114 q 328 172 318 146 q 342 231 338 199 q 349 297 347 264 q 344 462 351 364 q 322 660 338 560 q 365 669 342 667 q 409 672 389 672 q 444 671 429 672 q 463 668 460 669 q 476 557 469 618 q 486 440 482 496 q 492 342 490 383 q 493 289 493 300 q 491 236 493 268 q 483 169 489 204 q 463 100 476 135 q 424 38 449 65 q 361 -8 399 10 q 268 -25 324 -25 q 173 -7 211 -25 q 110 40 135 11 q 73 103 86 68 q 53 174 60 139 q 47 241 47 210 q 44 293 46 272 q 44 384 43 342 q 50 470 46 426 q 60 562 54 514 q 76 668 67 610 m 368 921 q 427 899 407 921 q 447 842 447 876 q 424 792 447 814 q 368 771 400 771 q 317 793 336 771 q 299 842 299 815 q 315 896 299 871 q 368 921 332 921 m 158 921 q 217 899 197 921 q 236 842 236 876 q 213 792 236 814 q 158 771 190 771 q 108 793 126 771 q 89 842 89 815 q 106 896 89 871 q 158 921 122 921 z "},"ý":{"ha":497,"x_min":19,"x_max":472,"o":"m 19 668 q 51 681 31 676 q 96 686 72 686 q 139 682 118 686 q 174 669 160 678 q 206 540 193 597 q 235 425 218 482 q 246 421 239 422 q 260 425 253 419 q 292 544 278 488 q 328 671 307 600 q 354 681 336 678 q 393 685 372 685 q 439 681 417 685 q 472 665 461 676 q 424 540 443 590 q 390 447 406 489 q 361 363 375 404 q 328 267 347 322 q 328 156 328 226 q 331 0 328 86 q 297 -9 324 -6 q 242 -12 271 -12 q 198 -10 218 -12 q 168 0 178 -7 q 169 68 169 38 q 169 128 169 99 q 169 190 169 158 q 171 260 169 221 q 135 360 153 311 q 100 458 118 408 q 63 560 82 508 q 19 668 43 613 m 161 808 q 189 855 178 835 q 209 893 200 875 q 227 930 218 911 q 250 974 236 949 q 294 967 271 975 q 339 946 318 958 q 375 919 360 933 q 393 892 390 904 q 324 794 349 832 q 283 736 300 757 q 245 747 261 742 q 215 759 229 751 q 189 778 201 767 q 161 808 176 790 z "},"ÿ":{"ha":497,"x_min":19,"x_max":472,"o":"m 19 668 q 51 681 31 676 q 96 686 72 686 q 139 682 118 686 q 174 669 160 678 q 206 540 193 597 q 235 425 218 482 q 246 421 239 422 q 260 425 253 419 q 292 544 278 488 q 328 671 307 600 q 354 681 336 678 q 393 685 372 685 q 439 681 417 685 q 472 665 461 676 q 424 540 443 590 q 390 447 406 489 q 361 363 375 404 q 328 267 347 322 q 328 156 328 226 q 331 0 328 86 q 297 -9 324 -6 q 242 -12 271 -12 q 198 -10 218 -12 q 168 0 178 -7 q 169 68 169 38 q 169 128 169 99 q 169 190 169 158 q 171 260 169 221 q 135 360 153 311 q 100 458 118 408 q 63 560 82 508 q 19 668 43 613 m 350 921 q 409 899 389 921 q 429 842 429 876 q 406 792 429 814 q 350 771 382 771 q 299 793 318 771 q 281 842 281 815 q 297 896 281 871 q 350 921 314 921 m 140 921 q 199 899 179 921 q 218 842 218 876 q 195 792 218 814 q 140 771 172 771 q 90 793 108 771 q 71 842 71 815 q 88 896 71 871 q 140 921 104 921 z "},"Œ":{"ha":682,"x_min":35,"x_max":638,"o":"m 35 408 q 44 544 35 469 q 78 683 53 618 q 147 790 103 747 q 260 833 190 833 q 282 832 275 833 q 358 832 322 832 q 432 833 394 832 q 513 834 469 833 q 608 835 556 835 q 617 801 614 825 q 619 751 619 778 q 617 701 619 725 q 610 667 614 678 q 540 667 575 667 q 475 667 510 667 q 408 665 440 667 q 408 490 406 576 q 476 489 429 489 q 592 486 522 489 q 598 456 596 474 q 600 419 600 438 q 599 383 600 400 q 594 353 597 365 q 536 351 560 351 q 492 350 513 350 q 453 349 472 350 q 408 347 433 349 q 409 288 408 314 q 410 240 410 263 q 409 194 410 217 q 408 149 408 172 q 469 151 443 150 q 519 151 496 151 q 567 151 543 151 q 622 150 592 150 q 633 117 629 139 q 637 73 636 96 q 635 29 638 50 q 625 0 632 8 q 456 0 542 0 q 286 1 369 0 q 277 0 282 0 q 268 0 272 0 q 147 48 193 1 q 76 160 101 94 q 43 294 51 225 q 35 408 35 363 m 174 408 q 177 337 174 376 q 190 262 181 297 q 217 202 200 226 q 260 175 233 178 q 260 292 260 229 q 260 419 260 356 q 261 544 261 482 q 261 658 261 606 q 219 634 236 657 q 192 576 203 611 q 177 497 182 540 q 174 408 172 453 z "},"œ":{"ha":650,"x_min":21,"x_max":583,"o":"m 21 325 q 32 435 21 375 q 70 546 43 494 q 142 632 97 597 q 254 667 186 667 q 396 667 317 667 q 560 669 475 667 q 568 643 565 661 q 572 606 571 625 q 571 566 572 586 q 565 533 569 546 q 519 534 544 533 q 469 535 494 535 q 422 535 444 535 q 382 535 399 535 q 380 478 381 504 q 382 419 379 451 q 441 418 411 418 q 496 418 471 418 q 538 418 521 418 q 561 417 556 418 q 578 353 578 390 q 563 282 579 317 q 464 281 504 281 q 382 279 424 281 q 381 192 381 226 q 382 138 382 158 q 431 138 408 138 q 476 138 454 138 q 522 138 499 138 q 571 136 544 138 q 581 108 578 126 q 583 69 583 89 q 579 30 582 49 q 571 1 576 11 q 418 1 497 0 q 275 1 339 1 q 218 2 249 -3 q 147 26 188 7 q 101 65 124 38 q 60 132 78 93 q 32 220 43 171 q 21 325 21 269 m 161 324 q 167 267 161 297 q 183 211 172 238 q 211 163 194 185 q 253 132 228 142 q 251 331 251 226 q 253 529 251 435 q 217 509 235 528 q 188 461 200 490 q 168 396 175 432 q 161 324 161 360 z "},"™":{"ha":560,"x_min":43,"x_max":504,"o":"m 286 833 q 315 838 293 838 q 335 836 326 838 q 347 832 344 835 q 370 782 357 813 q 393 732 383 751 q 404 732 401 729 q 422 780 415 760 q 442 833 429 800 q 453 837 444 836 q 470 838 461 838 q 488 838 479 839 q 500 835 496 838 q 502 758 501 801 q 503 668 503 714 q 504 581 504 622 q 503 513 504 540 q 489 508 499 510 q 468 506 479 506 q 438 513 450 506 q 438 559 438 540 q 437 596 438 578 q 436 635 436 614 q 436 689 436 656 q 419 665 429 682 q 401 639 408 647 l 392 639 q 373 666 385 647 q 354 690 361 685 q 355 619 353 663 q 353 513 357 575 q 322 507 342 507 q 302 508 311 507 q 286 513 293 510 q 285 593 285 550 q 285 680 285 636 q 285 764 285 724 q 286 833 286 804 m 50 833 q 93 833 65 833 q 150 833 121 833 q 205 833 179 833 q 240 833 231 833 q 249 799 250 822 q 240 764 247 776 q 218 762 226 763 q 181 761 210 761 q 181 680 181 711 q 181 624 181 649 q 183 574 182 599 q 183 515 183 550 q 151 506 175 506 q 111 515 124 506 q 112 583 111 551 q 113 643 113 614 q 113 701 113 672 q 114 763 114 729 l 49 763 q 44 796 44 774 q 50 833 43 818 z "},"¥":{"ha":558,"x_min":17,"x_max":532,"o":"m 17 825 q 49 838 28 833 q 93 843 69 843 q 136 839 115 843 q 171 826 157 835 q 193 751 182 792 q 216 669 204 710 q 239 591 228 628 q 260 529 250 554 q 270 525 263 526 q 285 529 278 524 q 308 599 296 561 q 334 676 321 636 q 360 757 347 717 q 385 832 374 797 q 414 842 396 839 q 451 846 432 846 q 498 842 475 846 q 532 829 521 838 q 482 697 506 758 q 436 580 458 636 q 394 470 414 524 q 356 360 375 417 l 439 360 q 447 339 444 353 q 451 310 450 325 q 449 280 451 294 q 442 257 446 265 q 392 256 415 256 q 347 256 369 256 l 347 201 l 439 201 q 447 181 444 194 q 451 151 450 167 q 449 122 451 136 q 442 99 446 107 q 394 97 417 97 q 351 97 372 97 q 354 51 353 74 q 358 6 356 29 q 327 -3 357 3 q 261 -10 297 -10 q 224 -7 242 -10 q 193 3 206 -4 q 194 50 193 26 q 196 97 194 74 q 153 99 175 99 q 108 99 132 99 q 99 122 103 107 q 96 151 96 136 q 99 181 96 167 q 110 201 103 194 l 197 201 q 199 228 199 215 q 199 256 199 242 q 155 257 178 257 q 108 257 132 257 q 99 280 103 265 q 96 310 96 294 q 99 339 96 325 q 110 360 103 353 l 189 360 q 149 469 171 410 q 103 590 126 529 q 58 713 81 651 q 17 825 36 774 z "},"£":{"ha":572,"x_min":26,"x_max":532,"o":"m 43 467 l 115 467 q 113 574 115 521 q 106 676 110 628 q 97 764 101 724 q 88 833 92 804 q 123 851 103 844 q 164 857 143 857 q 201 851 183 857 q 229 832 218 844 q 247 778 239 815 q 260 692 254 742 q 268 585 265 643 q 271 468 271 528 q 360 467 315 468 q 454 467 406 467 q 465 442 461 458 q 469 407 469 425 q 467 372 469 389 q 458 344 464 356 q 358 343 404 343 q 269 343 313 343 q 259 232 267 282 q 239 151 251 182 l 514 149 q 527 118 522 140 q 532 72 532 96 q 528 28 532 49 q 515 0 524 7 l 92 0 q 70 11 82 1 q 49 33 58 21 q 38 59 40 46 q 43 81 35 72 q 91 187 75 117 q 113 344 107 257 l 40 344 q 30 372 33 356 q 26 407 26 389 q 31 442 26 425 q 43 467 35 458 z "},"¢":{"ha":461,"x_min":31,"x_max":411,"o":"m 189 758 l 189 929 q 211 940 196 936 q 244 943 226 943 q 276 940 261 943 q 299 932 292 938 l 299 760 q 365 724 340 750 q 400 662 389 697 q 411 584 411 626 q 403 499 411 542 q 357 490 381 490 q 301 506 324 490 q 305 547 306 526 q 298 583 304 567 q 278 611 292 600 q 244 622 265 622 q 206 606 222 622 q 178 561 189 589 q 164 497 168 533 q 161 424 160 461 q 176 314 164 369 q 217 228 189 258 q 255 203 232 211 q 301 196 278 196 q 383 215 347 196 q 397 149 392 189 q 397 75 403 108 q 299 53 356 56 l 299 -85 q 276 -98 289 -94 q 247 -101 263 -101 q 210 -97 228 -101 q 189 -89 193 -92 l 189 74 q 113 135 143 94 q 65 226 83 176 q 40 330 47 276 q 32 429 33 383 q 39 538 31 485 q 66 636 47 592 q 115 713 85 681 q 189 758 146 744 z "},"…":{"ha":725,"x_min":38,"x_max":689,"o":"m 124 171 q 195 143 171 171 q 219 74 219 115 q 190 13 219 39 q 124 -14 161 -14 q 61 13 85 -14 q 38 74 38 40 q 58 140 38 110 q 124 171 79 171 m 358 171 q 430 143 406 171 q 454 74 454 115 q 425 13 454 39 q 358 -14 396 -14 q 296 13 319 -14 q 272 74 272 40 q 293 140 272 110 q 358 171 314 171 m 593 171 q 665 143 640 171 q 689 74 689 115 q 660 13 689 39 q 593 -14 631 -14 q 531 13 554 -14 q 507 74 507 40 q 528 140 507 110 q 593 171 549 171 z "},"ˇ":{"ha":524,"x_min":31,"x_max":493,"o":"m 31 915 q 59 922 40 919 q 100 924 78 924 q 145 922 124 924 q 178 914 167 919 q 211 879 193 900 q 258 831 229 858 q 285 858 274 847 q 304 878 296 869 q 322 896 313 888 q 342 915 331 904 q 375 921 356 919 q 417 922 394 922 q 464 920 442 922 q 493 914 486 918 q 419 841 457 879 q 346 769 382 803 q 309 769 335 769 q 255 768 283 768 q 201 768 226 768 q 167 768 176 768 q 130 805 150 783 q 91 847 110 826 q 56 887 72 868 q 31 915 39 906 z "},"Š":{"ha":443,"x_min":-10,"x_max":454,"o":"m 217 844 q 319 822 279 844 q 380 764 358 800 q 406 682 401 728 q 403 589 411 636 q 388 585 400 586 q 357 583 375 583 q 318 583 339 583 q 278 585 297 583 q 270 658 281 622 q 229 700 260 694 q 200 693 213 703 q 180 666 188 683 q 170 624 172 649 q 169 575 168 600 q 197 509 172 542 q 256 453 221 476 q 322 402 290 429 q 376 344 353 375 q 414 277 400 313 q 428 201 428 242 q 416 138 428 168 q 385 81 404 107 q 344 35 367 54 q 299 8 321 17 q 260 -3 289 4 q 182 -11 232 -11 q 121 -8 154 -11 q 47 6 88 -4 q 44 62 43 39 q 47 101 44 85 q 54 130 50 118 q 63 154 58 142 q 164 138 119 138 q 242 156 214 138 q 271 206 271 174 q 263 235 271 218 q 243 268 256 251 q 217 300 231 285 q 190 326 203 315 q 126 383 156 357 q 76 438 97 410 q 43 501 56 467 q 28 579 31 535 q 31 663 25 617 q 58 749 38 708 q 117 817 79 790 q 217 844 156 844 m -10 1082 q 19 1088 0 1086 q 60 1090 38 1090 q 105 1088 83 1090 q 138 1081 126 1086 q 171 1046 153 1067 q 218 997 189 1025 q 244 1025 233 1014 q 264 1045 256 1036 q 281 1063 272 1054 q 301 1082 290 1071 q 335 1088 315 1086 q 376 1089 354 1089 q 424 1087 401 1089 q 453 1081 446 1085 q 379 1008 417 1046 q 306 936 342 969 q 269 935 294 936 q 215 935 243 935 q 161 935 186 935 q 126 935 136 935 q 90 972 110 950 q 51 1014 69 993 q 15 1053 32 1035 q -10 1082 -1 1072 z "},"Ž":{"ha":485,"x_min":11,"x_max":475,"o":"m 39 832 l 426 832 q 451 816 442 829 q 460 788 460 803 q 388 631 426 714 q 313 465 349 549 q 251 300 278 381 q 217 150 225 219 q 278 152 242 151 q 350 153 315 153 q 410 151 385 153 q 438 146 436 149 q 446 116 443 135 q 449 77 449 97 q 447 36 449 57 q 440 0 444 15 q 383 0 426 0 q 282 1 340 0 q 159 3 224 1 q 36 6 94 4 q 76 223 51 122 q 128 408 100 324 q 186 557 157 492 q 239 667 215 622 l 40 667 q 29 701 33 679 q 25 748 25 724 q 28 795 25 772 q 39 832 31 818 m 11 1082 q 40 1088 21 1086 q 81 1090 58 1090 q 126 1088 104 1090 q 158 1081 147 1086 q 192 1046 174 1067 q 239 997 210 1025 q 265 1025 254 1014 q 285 1045 276 1036 q 302 1063 293 1054 q 322 1082 311 1071 q 356 1088 336 1086 q 397 1089 375 1089 q 444 1087 422 1089 q 474 1081 467 1085 q 400 1008 438 1046 q 326 936 363 969 q 290 935 315 936 q 235 935 264 935 q 182 935 207 935 q 147 935 157 935 q 110 972 131 950 q 72 1014 90 993 q 36 1053 53 1035 q 11 1082 19 1072 z "},"ž":{"ha":500,"x_min":18,"x_max":482,"o":"m 51 667 l 439 667 q 463 651 454 664 q 471 622 471 638 q 404 524 442 583 q 332 397 367 464 q 271 265 297 331 q 238 149 244 199 l 442 149 q 450 119 447 138 q 453 79 453 100 q 452 38 454 58 q 446 1 450 18 q 336 1 386 1 q 239 0 286 0 q 143 1 192 0 q 38 1 94 1 q 67 147 47 74 q 114 288 88 219 q 171 416 140 356 q 231 524 201 476 q 188 524 207 524 q 149 524 169 524 q 107 524 129 524 q 53 524 85 524 q 43 555 47 536 q 38 594 39 574 q 40 633 38 614 q 51 667 43 653 m 19 915 q 48 922 29 919 q 89 924 67 924 q 134 922 113 924 q 167 914 156 919 q 200 879 182 900 q 247 831 218 858 q 274 858 263 847 q 293 878 285 869 q 310 896 301 888 q 331 915 319 904 q 364 921 344 919 q 406 922 383 922 q 453 920 431 922 q 482 914 475 918 q 408 841 446 879 q 335 769 371 803 q 298 769 324 769 q 244 768 272 768 q 190 768 215 768 q 156 768 165 768 q 119 805 139 783 q 80 847 99 826 q 44 887 61 868 q 19 915 28 906 z "},"š":{"ha":404,"x_min":-29,"x_max":435,"o":"m 194 692 q 284 674 249 692 q 338 626 319 656 q 361 558 357 596 q 358 481 365 519 q 344 478 356 479 q 317 476 333 476 q 283 476 301 475 q 247 476 264 476 q 242 531 250 508 q 207 558 233 554 q 167 542 176 563 q 161 479 158 522 q 187 422 164 451 q 240 374 210 393 q 341 279 301 336 q 381 154 381 222 q 371 103 381 128 q 345 58 361 78 q 310 22 329 38 q 271 0 290 7 q 236 -9 263 -3 q 165 -15 210 -15 q 46 -1 114 -15 q 42 47 42 26 q 46 83 43 68 q 52 110 49 99 q 58 131 56 121 q 108 119 85 122 q 150 115 131 115 q 210 130 189 115 q 231 169 231 144 q 210 215 231 189 q 167 258 189 240 q 110 308 136 283 q 67 360 85 333 q 38 416 49 386 q 24 483 26 446 q 27 551 21 514 q 52 619 33 588 q 106 671 71 650 q 194 692 140 692 m -29 915 q -1 922 -19 919 q 40 924 18 924 q 85 922 64 924 q 118 914 107 919 q 151 879 133 900 q 199 831 169 858 q 225 858 214 847 q 244 878 236 869 q 262 896 253 888 q 282 915 271 904 q 315 921 296 919 q 357 922 335 922 q 404 920 382 922 q 433 914 426 918 q 360 841 397 879 q 286 769 322 803 q 249 769 275 769 q 195 768 224 768 q 142 768 167 768 q 107 768 117 768 q 70 805 90 783 q 31 847 50 826 q -4 887 13 868 q -29 915 -21 906 z "},"°":{"ha":321,"x_min":25,"x_max":297,"o":"m 161 846 q 262 803 226 846 q 297 701 297 761 q 261 598 297 640 q 161 556 225 556 q 106 567 131 556 q 63 599 81 579 q 35 646 44 619 q 25 701 25 672 q 35 756 25 731 q 64 802 46 782 q 107 834 82 822 q 161 846 132 846 m 161 639 q 202 656 185 639 q 219 701 219 672 q 201 746 219 729 q 161 763 182 763 q 121 746 138 763 q 104 701 104 729 q 121 656 104 672 q 161 639 138 639 z "},"˚":{"ha":301,"x_min":25,"x_max":274,"o":"m 149 985 q 240 947 207 985 q 274 856 274 908 q 240 762 274 800 q 149 724 206 724 q 98 734 121 724 q 59 763 75 744 q 34 805 43 781 q 25 856 25 829 q 34 904 25 881 q 60 946 43 928 q 99 974 76 964 q 149 985 122 985 m 149 799 q 185 813 168 799 q 201 856 201 828 q 185 894 201 879 q 149 910 168 910 q 111 894 126 910 q 96 854 96 879 q 111 813 96 828 q 149 799 126 799 z "},"Å":{"ha":501,"x_min":18,"x_max":483,"o":"m 172 831 q 197 840 181 838 q 233 843 214 843 q 278 839 256 843 q 319 826 301 835 q 353 656 333 760 q 397 435 374 551 q 442 204 419 319 q 483 -1 465 89 q 450 -9 471 -7 q 408 -11 429 -11 q 365 -8 385 -11 q 343 0 346 -6 q 328 65 333 39 q 313 131 324 92 q 247 132 286 132 q 179 131 207 132 q 163 58 168 86 q 153 3 158 31 q 127 -8 146 -4 q 86 -11 108 -11 q 49 -8 67 -11 q 18 1 31 -6 q 61 231 42 125 q 98 436 81 338 q 133 631 115 535 q 172 831 151 726 m 294 247 q 285 319 290 279 q 274 403 281 360 q 260 489 268 446 q 246 568 253 532 q 221 407 231 488 q 200 247 211 326 l 294 247 m 251 1151 q 343 1113 310 1151 q 376 1022 376 1075 q 342 928 376 967 q 251 890 308 890 q 201 901 224 890 q 162 929 178 911 q 137 972 146 947 q 128 1022 128 996 q 137 1071 128 1047 q 163 1113 146 1094 q 202 1141 179 1131 q 251 1151 225 1151 m 251 965 q 288 980 271 965 q 304 1022 304 994 q 288 1061 304 1046 q 251 1076 271 1076 q 214 1061 229 1076 q 199 1021 199 1046 q 214 980 199 994 q 251 965 229 965 z "},"å":{"ha":500,"x_min":17,"x_max":482,"o":"m 171 671 q 203 678 182 675 q 249 682 225 682 q 285 679 267 682 q 318 668 303 676 q 399 345 356 513 q 482 1 442 178 q 448 -6 469 -4 q 404 -8 426 -8 q 363 -6 381 -8 q 342 3 344 -4 q 323 72 331 42 q 304 133 315 103 q 276 135 289 135 q 250 136 264 136 q 219 136 236 136 q 179 135 203 136 q 162 62 168 96 q 151 4 156 28 q 129 -4 147 1 q 86 -10 111 -10 q 52 -6 69 -10 q 17 8 35 -3 q 45 138 32 81 q 70 246 58 196 q 93 342 82 296 q 116 438 104 389 q 141 544 128 488 q 171 671 154 601 m 293 250 q 272 359 285 307 q 244 479 260 411 q 231 415 236 442 q 219 365 225 389 q 210 313 214 340 q 199 249 206 286 q 244 249 225 249 q 277 249 263 249 q 293 250 292 250 m 250 985 q 342 947 308 985 q 375 856 375 908 q 341 762 375 800 q 250 724 307 724 q 199 734 222 724 q 160 763 176 744 q 135 805 144 781 q 126 856 126 829 q 135 904 126 881 q 161 946 144 928 q 201 974 178 964 q 250 985 224 985 m 250 799 q 286 813 269 799 q 303 856 303 828 q 286 894 303 879 q 250 910 269 910 q 213 894 228 910 q 197 854 197 879 q 213 813 197 828 q 250 799 228 799 z "},"Ð":{"ha":568,"x_min":10,"x_max":533,"o":"m 26 486 l 76 486 q 76 658 76 572 q 79 836 76 744 q 178 844 133 844 q 344 812 276 844 q 453 722 411 779 q 515 588 496 665 q 533 422 533 511 q 522 295 533 363 q 484 167 511 228 q 413 62 457 107 q 300 0 368 17 q 188 -14 243 -14 q 129 -10 156 -14 q 79 -1 103 -7 q 78 180 78 94 q 76 347 78 265 l 25 347 q 13 378 17 358 q 10 418 10 397 q 14 458 10 439 q 26 486 18 478 m 228 346 q 228 278 228 310 q 228 224 228 247 q 228 186 228 200 q 229 172 229 172 q 281 183 258 171 q 319 217 303 196 q 347 264 336 238 q 366 318 358 290 q 376 373 374 346 q 379 422 379 400 q 372 502 379 458 q 347 585 365 546 q 299 650 329 624 q 224 676 269 676 q 226 611 226 665 q 226 488 226 557 q 256 487 242 488 q 286 486 269 486 q 297 458 293 478 q 300 418 300 439 q 297 378 300 397 q 289 347 294 358 q 256 346 271 346 q 228 346 242 346 z "},"Đ":{"ha":568,"x_min":10,"x_max":533,"o":"m 26 486 l 76 486 q 76 658 76 572 q 79 836 76 744 q 178 844 133 844 q 344 812 276 844 q 453 722 411 779 q 515 588 496 665 q 533 422 533 511 q 522 295 533 363 q 484 167 511 228 q 413 62 457 107 q 300 0 368 17 q 188 -14 243 -14 q 129 -10 156 -14 q 79 -1 103 -7 q 78 180 78 94 q 76 347 78 265 l 25 347 q 13 378 17 358 q 10 418 10 397 q 14 458 10 439 q 26 486 18 478 m 228 346 q 228 278 228 310 q 228 224 228 247 q 228 186 228 200 q 229 172 229 172 q 281 183 258 171 q 319 217 303 196 q 347 264 336 238 q 366 318 358 290 q 376 373 374 346 q 379 422 379 400 q 372 502 379 458 q 347 585 365 546 q 299 650 329 624 q 224 676 269 676 q 226 611 226 665 q 226 488 226 557 q 256 487 242 488 q 286 486 269 486 q 297 458 293 478 q 300 418 300 439 q 297 378 300 397 q 289 347 294 358 q 256 346 271 346 q 228 346 242 346 z "},"đ":{"ha":506,"x_min":10,"x_max":472,"o":"m 26 410 l 67 410 q 67 539 67 472 q 69 685 68 606 q 162 688 121 688 q 244 682 203 689 q 356 631 313 671 q 424 540 399 590 q 459 440 449 490 q 471 357 469 389 q 467 263 472 314 q 442 163 463 211 q 383 73 422 114 q 275 11 343 32 q 157 -7 217 -7 q 69 4 107 -7 q 68 148 68 83 q 68 271 68 213 l 25 271 q 13 301 17 282 q 10 342 10 321 q 14 382 10 363 q 26 410 18 401 m 201 269 q 201 188 201 221 q 203 157 201 156 q 275 182 247 161 q 319 231 303 203 q 340 291 335 258 q 344 353 344 324 q 338 406 343 376 q 318 464 333 436 q 274 514 303 492 q 199 543 246 536 q 201 496 200 532 q 201 411 201 460 q 231 411 217 411 q 263 410 244 411 q 273 382 269 401 q 276 342 276 363 q 274 301 276 321 q 265 271 271 282 q 231 269 246 269 q 201 269 217 269 z "},"ð":{"ha":506,"x_min":10,"x_max":472,"o":"m 26 410 l 67 410 q 67 539 67 472 q 69 685 68 606 q 162 688 121 688 q 244 682 203 689 q 356 631 313 671 q 424 540 399 590 q 459 440 449 490 q 471 357 469 389 q 467 263 472 314 q 442 163 463 211 q 383 73 422 114 q 275 11 343 32 q 157 -7 217 -7 q 69 4 107 -7 q 68 148 68 83 q 68 271 68 213 l 25 271 q 13 301 17 282 q 10 342 10 321 q 14 382 10 363 q 26 410 18 401 m 201 269 q 201 188 201 221 q 203 157 201 156 q 275 182 247 161 q 319 231 303 203 q 340 291 335 258 q 344 353 344 324 q 338 406 343 376 q 318 464 333 436 q 274 514 303 492 q 199 543 246 536 q 201 496 200 532 q 201 411 201 460 q 231 411 217 411 q 263 410 244 411 q 273 382 269 401 q 276 342 276 363 q 274 301 276 321 q 265 271 271 282 q 231 269 246 269 q 201 269 217 269 z "},"Ø":{"ha":506,"x_min":4,"x_max":503,"o":"m 6 42 q 35 99 21 71 q 63 154 49 126 q 42 224 50 188 q 31 293 35 260 q 24 356 26 326 q 22 408 22 386 q 26 499 22 450 q 41 597 31 547 q 69 692 51 646 q 112 774 86 739 q 173 831 138 810 q 254 853 208 853 q 326 838 294 853 q 382 794 357 822 q 394 819 389 807 q 407 843 400 831 q 434 847 418 849 q 465 838 450 844 q 490 822 479 832 q 503 801 501 813 l 444 685 q 478 544 468 618 q 488 408 488 471 q 484 338 488 381 q 471 249 481 296 q 444 154 461 201 q 401 69 428 107 q 338 7 375 31 q 251 -15 301 -17 q 179 1 211 -15 q 124 44 147 17 l 103 3 q 71 -10 90 -10 q 26 6 47 -10 q 6 42 4 21 m 204 203 q 251 175 225 175 q 296 194 278 175 q 325 245 314 213 q 341 320 336 278 q 347 408 346 363 q 347 442 347 424 q 344 482 347 461 q 274 342 308 411 q 204 203 239 272 m 299 632 q 256 658 281 658 q 210 638 229 660 q 181 581 192 617 q 165 500 169 546 q 161 408 160 454 q 161 384 161 397 q 163 357 161 371 q 228 490 194 424 q 299 632 261 557 z "},"ø":{"ha":508,"x_min":7,"x_max":499,"o":"m 8 49 q 33 88 21 68 q 58 126 46 107 q 31 221 42 169 q 21 325 21 272 q 33 438 21 375 q 72 557 44 501 q 144 651 99 613 q 256 689 189 689 q 325 674 293 689 q 382 631 357 658 q 394 650 389 640 q 407 669 400 660 q 433 672 418 675 q 463 660 449 668 q 487 642 476 653 q 499 619 497 631 q 472 576 485 597 q 444 535 458 554 q 476 435 465 486 q 488 338 488 383 q 477 226 488 279 q 447 128 467 172 q 402 53 428 85 q 344 3 376 21 q 303 -16 325 -8 q 254 -24 281 -24 q 181 -10 221 -24 q 118 26 142 3 q 110 14 114 19 q 103 3 107 8 q 75 -8 93 -8 q 29 9 51 -8 q 8 49 7 26 m 210 165 q 253 132 226 142 q 289 140 272 124 q 319 185 306 156 q 340 253 332 214 q 350 329 349 292 q 346 378 350 351 q 274 264 308 317 q 210 165 240 211 m 300 503 q 280 522 290 514 q 257 529 269 529 q 221 512 239 529 q 190 465 203 494 q 169 399 176 436 q 161 324 161 361 q 161 307 161 315 q 163 289 161 299 q 231 394 197 342 q 300 503 264 447 z "},"Ł":{"ha":485,"x_min":11,"x_max":463,"o":"m 17 338 q 61 372 38 353 q 111 411 85 390 q 109 540 110 476 q 108 660 108 604 q 107 760 107 717 q 107 831 107 804 q 142 844 122 840 q 182 849 161 849 q 228 844 206 849 q 269 829 251 839 q 267 790 268 818 q 267 724 267 763 q 267 637 267 685 q 267 536 267 589 q 303 564 286 550 q 336 589 321 578 q 360 583 347 590 q 384 563 374 575 q 401 538 394 551 q 404 511 407 524 q 342 460 376 488 q 268 403 307 433 q 269 278 268 338 q 269 172 269 218 q 364 173 326 174 q 446 172 401 172 q 458 140 454 163 q 463 92 463 118 q 460 41 463 65 q 450 4 457 17 q 292 1 375 1 q 111 1 210 0 q 113 115 113 42 q 111 279 113 189 q 101 269 106 274 q 90 261 96 265 q 61 261 76 256 q 34 278 46 267 q 17 307 22 290 q 17 338 11 324 z "},"ł":{"ha":493,"x_min":6,"x_max":475,"o":"m 11 258 q 59 295 33 275 q 113 338 85 315 q 113 447 113 393 q 115 546 114 501 q 115 623 115 590 q 115 668 115 656 q 148 679 128 675 q 190 683 168 683 q 260 667 231 683 q 258 568 258 622 q 257 453 257 514 q 295 483 276 468 q 331 510 314 497 q 355 503 342 511 q 378 484 368 496 q 395 458 389 472 q 399 432 401 444 q 334 380 369 408 q 258 319 299 351 q 259 228 258 272 q 260 143 260 183 q 311 145 278 144 q 378 146 344 146 q 438 145 413 146 q 465 142 464 144 q 473 113 471 135 q 475 68 475 92 q 472 24 475 44 q 463 0 468 4 q 408 1 442 1 q 336 1 375 1 q 258 1 297 1 q 188 1 219 1 q 136 1 157 1 q 115 1 115 1 q 113 62 113 4 q 113 204 113 119 q 99 194 106 199 q 85 182 92 189 q 56 182 71 176 q 28 199 40 188 q 11 228 17 211 q 11 258 6 244 z "},"Þ":{"ha":550,"x_min":58,"x_max":515,"o":"m 58 832 q 89 844 67 840 q 136 849 111 849 q 180 845 160 849 q 210 835 200 842 q 210 790 210 813 q 211 744 211 768 q 335 719 279 740 q 431 660 392 699 q 493 562 471 621 q 515 422 515 503 q 494 292 515 351 q 433 187 472 232 q 338 115 394 142 q 210 85 281 89 l 210 -1 q 184 -17 203 -12 q 142 -21 165 -21 q 91 -15 115 -21 q 58 -1 67 -10 l 58 832 m 213 329 q 213 276 213 301 q 214 250 213 250 q 277 265 249 250 q 326 306 306 281 q 357 362 346 331 q 368 422 368 393 q 357 481 368 453 q 325 533 346 510 q 276 569 304 556 q 213 583 247 583 l 213 329 z "},"þ":{"ha":532,"x_min":58,"x_max":488,"o":"m 58 667 q 84 677 65 674 q 125 681 103 681 q 175 676 151 681 q 210 665 199 672 q 210 621 210 643 q 211 575 211 599 q 290 569 243 575 q 381 539 338 564 q 456 464 425 514 q 488 325 488 414 q 456 192 488 240 q 381 121 425 144 q 290 91 338 97 q 210 85 242 85 l 210 -1 q 184 -17 203 -12 q 142 -21 165 -21 q 91 -15 115 -21 q 58 -1 67 -10 l 58 667 m 214 236 q 308 256 276 236 q 340 325 340 276 q 213 424 340 424 l 213 329 q 213 299 213 315 q 213 269 213 283 q 213 246 213 256 q 214 236 214 236 z "},"®":{"ha":646,"x_min":40,"x_max":615,"o":"m 40 671 q 63 781 40 729 q 124 872 85 833 q 214 933 163 911 q 324 956 265 956 q 436 933 383 956 q 528 872 489 911 q 592 781 568 833 q 615 671 615 729 q 592 558 615 611 q 528 466 568 506 q 436 403 489 426 q 324 379 383 379 q 214 403 265 379 q 124 466 163 426 q 63 558 85 506 q 40 671 40 611 m 113 671 q 129 588 113 628 q 174 519 146 549 q 240 472 201 489 q 322 454 279 454 q 405 472 365 454 q 474 519 444 489 q 522 588 504 549 q 539 671 539 628 q 522 753 539 715 q 474 820 504 792 q 405 865 444 849 q 322 882 365 882 q 240 865 279 882 q 174 820 201 849 q 129 753 146 792 q 113 671 113 715 m 221 832 q 259 844 235 839 q 308 847 283 849 q 384 813 357 844 q 411 735 411 781 q 404 686 411 713 q 382 642 397 660 q 397 604 390 619 q 410 575 404 589 q 424 546 417 561 q 440 508 431 531 q 425 503 436 506 q 403 501 414 501 q 378 503 390 501 q 363 508 367 506 q 353 531 357 522 q 346 550 350 540 q 335 573 342 560 q 321 608 329 586 q 310 605 318 608 q 288 599 301 601 q 290 563 289 575 q 291 542 290 550 q 292 528 292 535 q 292 508 292 521 q 258 503 281 503 q 224 508 236 503 q 221 657 221 579 q 221 832 221 735 m 286 663 q 328 683 317 665 q 338 728 339 700 q 323 768 336 749 q 285 782 310 788 q 285 756 285 772 q 285 724 285 740 q 285 690 285 707 q 286 663 286 674 z "},"©":{"ha":665,"x_min":44,"x_max":619,"o":"m 44 671 q 67 781 44 729 q 128 872 89 833 q 218 933 167 911 q 328 956 269 956 q 440 933 388 956 q 533 872 493 911 q 596 781 572 833 q 619 671 619 729 q 596 558 619 611 q 533 466 572 506 q 440 403 493 426 q 328 379 388 379 q 218 403 269 379 q 128 466 167 426 q 67 558 89 506 q 44 671 44 611 m 326 454 q 409 472 369 454 q 478 519 449 489 q 526 588 508 549 q 543 671 543 628 q 526 753 543 715 q 478 820 508 792 q 409 865 449 849 q 326 882 369 882 q 244 865 283 882 q 178 820 206 849 q 133 753 150 792 q 117 671 117 715 q 133 588 117 628 q 178 519 150 549 q 244 472 206 489 q 326 454 283 454 m 318 844 q 366 833 347 844 q 394 805 385 822 q 406 765 404 788 q 403 717 407 742 q 372 713 389 713 q 346 721 356 714 q 344 756 350 740 q 317 772 338 771 q 284 745 294 772 q 275 679 274 718 q 278 640 275 660 q 289 603 281 619 q 311 576 297 586 q 349 565 325 565 q 392 575 372 565 q 399 542 396 563 q 400 506 403 522 q 343 493 375 493 q 277 510 304 493 q 234 553 250 526 q 211 615 218 581 q 203 682 204 649 q 208 744 201 714 q 230 796 215 774 q 267 831 244 818 q 318 844 289 844 z "}}}
